<svg xmlns="http://www.w3.org/2000/svg" xmlns:xlink="http://www.w3.org/1999/xlink" width="500" zoomAndPan="magnify" viewBox="0 0 375 374.999991" height="500" preserveAspectRatio="xMidYMid meet" version="1.0"><defs><clipPath id="aafdc44cd2"><path d="M 19.515625 12.929688 L 355.515625 12.929688 L 355.515625 348.929688 L 19.515625 348.929688 Z M 19.515625 12.929688 " clip-rule="nonzero"/></clipPath><clipPath id="1063c2f33f"><path d="M 336.847656 332.929688 C 335.378906 332.929688 334.183594 331.730469 334.183594 330.261719 C 334.183594 328.792969 335.378906 327.59375 336.847656 327.59375 C 338.316406 327.59375 339.515625 328.792969 339.515625 330.261719 C 339.515625 331.730469 338.316406 332.929688 336.847656 332.929688 Z M 336.847656 322.261719 C 332.441406 322.261719 328.847656 325.855469 328.847656 330.261719 C 328.847656 334.667969 332.441406 338.261719 336.847656 338.261719 C 341.253906 338.261719 344.847656 334.667969 344.847656 330.261719 C 344.847656 325.855469 341.253906 322.261719 336.847656 322.261719 Z M 336.847656 255.585938 C 338.316406 255.585938 339.515625 256.78125 339.515625 258.25 C 339.515625 259.71875 338.316406 260.917969 336.847656 260.917969 C 335.378906 260.917969 334.183594 259.71875 334.183594 258.25 C 334.183594 256.78125 335.378906 255.585938 336.847656 255.585938 Z M 336.847656 266.25 C 341.253906 266.25 344.847656 262.667969 344.847656 258.25 C 344.847656 253.84375 341.253906 250.25 336.847656 250.25 C 332.441406 250.25 328.847656 253.84375 328.847656 258.25 C 328.847656 262.667969 332.441406 266.25 336.847656 266.25 Z M 38.183594 332.929688 C 36.714844 332.929688 35.515625 331.730469 35.515625 330.261719 C 35.515625 328.792969 36.714844 327.59375 38.183594 327.59375 C 39.652344 327.59375 40.847656 328.792969 40.847656 330.261719 C 40.847656 331.730469 39.652344 332.929688 38.183594 332.929688 Z M 38.183594 322.261719 C 33.765625 322.261719 30.183594 325.855469 30.183594 330.261719 C 30.183594 334.667969 33.765625 338.261719 38.183594 338.261719 C 42.597656 338.261719 46.183594 334.667969 46.183594 330.261719 C 46.183594 325.855469 42.597656 322.261719 38.183594 322.261719 Z M 38.183594 255.585938 C 39.652344 255.585938 40.847656 256.78125 40.847656 258.25 C 40.847656 259.71875 39.652344 260.917969 38.183594 260.917969 C 36.714844 260.917969 35.515625 259.71875 35.515625 258.25 C 35.515625 256.78125 36.714844 255.585938 38.183594 255.585938 Z M 38.183594 266.25 C 42.597656 266.25 46.183594 262.667969 46.183594 258.25 C 46.183594 253.84375 42.597656 250.25 38.183594 250.25 C 33.765625 250.25 30.183594 253.84375 30.183594 258.25 C 30.183594 262.667969 33.765625 266.25 38.183594 266.25 Z M 33.441406 244.929688 L 341.589844 244.929688 C 346.328125 244.929688 350.183594 248.78125 350.183594 253.523438 L 350.183594 271.59375 L 24.847656 271.59375 L 24.847656 253.523438 C 24.847656 248.78125 28.703125 244.929688 33.441406 244.929688 Z M 32.847656 164.929688 C 32.847656 150.21875 34.316406 142.992188 36.796875 137.980469 C 43.652344 144.679688 53.671875 148.929688 64.847656 148.929688 C 76.027344 148.929688 86.046875 144.679688 92.902344 137.980469 C 95.378906 142.992188 96.847656 150.21875 96.847656 164.929688 L 96.847656 239.59375 L 33.441406 239.59375 C 33.234375 239.59375 33.046875 239.648438 32.847656 239.65625 Z M 49.109375 94.1875 C 49.128906 95.53125 49.152344 96.824219 49.171875 97.992188 C 49.183594 98.417969 49.191406 98.792969 49.203125 99.199219 C 42.015625 103.304688 38.183594 109.398438 38.183594 116.929688 C 38.183594 129.492188 49.152344 138.261719 64.847656 138.261719 C 80.546875 138.261719 91.515625 129.492188 91.515625 116.929688 C 91.515625 109.4375 87.734375 103.386719 80.628906 99.28125 C 80.640625 99.011719 80.640625 98.773438 80.652344 98.5 C 80.671875 97.210938 80.703125 95.773438 80.734375 94.25 C 90.621094 99.0625 96.847656 107.648438 96.847656 116.929688 C 96.847656 122.40625 94.847656 127.511719 91.433594 131.75 C 91.316406 131.875 91.203125 131.980469 91.109375 132.117188 C 85.328125 139.042969 75.722656 143.59375 64.847656 143.59375 C 53.972656 143.59375 44.371094 139.042969 38.578125 132.117188 C 38.496094 131.980469 38.378906 131.875 38.265625 131.75 C 34.847656 127.511719 32.847656 122.40625 32.847656 116.929688 C 32.847656 107.605469 39.128906 98.980469 49.109375 94.1875 Z M 43.515625 116.929688 C 43.515625 112.230469 45.421875 108.480469 49.253906 105.523438 C 49.171875 112.667969 48.214844 114.386719 43.816406 119.75 C 43.628906 118.84375 43.515625 117.90625 43.515625 116.929688 Z M 54.328125 50.261719 C 54.328125 47.324219 56.722656 44.929688 59.660156 44.929688 L 70.183594 44.929688 C 73.121094 44.929688 75.515625 47.324219 75.515625 50.261719 L 75.515625 82.261719 C 75.515625 89.042969 75.402344 94.261719 75.316406 98.386719 C 74.972656 114.417969 75.191406 115.148438 83.027344 124.667969 L 83.464844 125.199219 C 79.941406 129.96875 73.253906 132.929688 64.847656 132.929688 C 56.441406 132.929688 49.753906 129.96875 46.234375 125.199219 L 46.808594 124.5 C 54.828125 114.78125 54.816406 114.15625 54.503906 97.886719 C 54.433594 93.84375 54.328125 88.773438 54.328125 82.261719 Z M 85.890625 119.742188 C 81.527344 114.398438 80.609375 112.6875 80.558594 105.605469 C 84.316406 108.542969 86.183594 112.273438 86.183594 116.929688 C 86.183594 117.898438 86.066406 118.835938 85.890625 119.742188 Z M 103.503906 98.199219 L 104.265625 97.261719 C 105.753906 95.40625 107.035156 93.84375 108.152344 92.492188 C 116.171875 82.78125 116.152344 82.148438 115.839844 65.929688 C 115.765625 61.875 115.660156 56.792969 115.660156 50.261719 L 115.660156 23.59375 C 115.660156 20.65625 118.058594 18.261719 120.996094 18.261719 L 131.515625 18.261719 C 134.453125 18.261719 136.847656 20.65625 136.847656 23.59375 L 136.847656 50.261719 C 136.847656 57.0625 136.734375 62.292969 136.652344 66.417969 C 136.308594 82.40625 136.527344 83.148438 144.347656 92.648438 C 145.433594 93.96875 146.671875 95.480469 148.097656 97.261719 L 148.941406 98.3125 C 154.285156 104.949219 157.839844 109.398438 158.140625 130.085938 C 153.410156 136.375 150.183594 143.375 150.183594 164.929688 L 150.183594 239.59375 L 102.183594 239.59375 L 102.183594 164.929688 C 102.183594 147.386719 100.078125 139.511719 96.609375 133.65625 C 100.121094 128.78125 102.183594 123.0625 102.183594 116.929688 C 102.183594 112.53125 101.058594 108.292969 99.027344 104.398438 C 100.296875 102.230469 101.796875 100.335938 103.503906 98.199219 Z M 165.597656 129.261719 C 167.089844 127.40625 168.371094 125.84375 169.484375 124.492188 C 177.503906 114.78125 177.484375 114.148438 177.171875 97.929688 C 177.097656 93.875 176.996094 88.792969 176.996094 82.261719 L 176.996094 50.261719 C 176.996094 47.324219 179.390625 44.929688 182.328125 44.929688 L 192.847656 44.929688 C 195.785156 44.929688 198.183594 47.324219 198.183594 50.261719 L 198.183594 82.261719 C 198.183594 89.0625 198.066406 94.292969 197.984375 98.417969 C 197.640625 114.40625 197.859375 115.148438 205.683594 124.648438 C 206.765625 125.96875 208.003906 127.480469 209.433594 129.261719 L 210.328125 130.367188 C 216.058594 137.480469 219.515625 141.761719 219.515625 164.929688 L 219.515625 239.59375 L 155.515625 239.59375 L 155.515625 164.929688 C 155.515625 141.761719 158.972656 137.480469 164.703125 130.367188 Z M 226.089844 98.3125 L 226.839844 97.375 C 233.015625 101.273438 240.609375 103.59375 248.847656 103.59375 C 257.089844 103.59375 264.683594 101.273438 270.859375 97.375 L 271.503906 98.1875 C 272.933594 99.949219 274.152344 101.554688 275.253906 103.242188 C 273.703125 106.710938 272.847656 110.4375 272.847656 114.261719 C 272.847656 120.917969 275.234375 127.105469 279.308594 132.230469 C 275.109375 138.605469 272.847656 146.449219 272.847656 164.929688 L 272.847656 239.59375 L 224.847656 239.59375 L 224.847656 164.929688 C 224.847656 143.375 221.621094 136.375 216.890625 130.085938 C 217.191406 109.398438 220.746094 104.949219 226.089844 98.3125 Z M 216.847656 71.59375 C 216.847656 62.304688 223.089844 53.710938 232.996094 48.90625 L 232.996094 50.261719 C 232.996094 51.574219 233.003906 52.78125 233.015625 53.980469 C 225.941406 58.085938 222.183594 64.125 222.183594 71.59375 C 222.183594 84.15625 233.152344 92.929688 248.847656 92.929688 C 264.546875 92.929688 275.515625 84.15625 275.515625 71.59375 C 275.515625 64.179688 271.796875 58.167969 264.828125 54.0625 C 264.839844 52.835938 264.847656 51.605469 264.847656 50.261719 L 264.847656 48.980469 C 274.671875 53.792969 280.847656 62.355469 280.847656 71.59375 C 280.847656 79.574219 276.597656 86.730469 269.910156 91.617188 C 269.847656 91.65625 269.777344 91.667969 269.714844 91.71875 C 269.671875 91.75 269.652344 91.8125 269.609375 91.84375 C 264.015625 95.835938 256.777344 98.261719 248.847656 98.261719 C 240.921875 98.261719 233.683594 95.835938 228.089844 91.84375 C 228.046875 91.8125 228.027344 91.75 227.984375 91.71875 C 227.921875 91.667969 227.847656 91.65625 227.785156 91.617188 C 221.097656 86.730469 216.847656 79.574219 216.847656 71.59375 Z M 233.171875 65.980469 C 233.371094 75.824219 233.347656 79.0625 232.003906 81.875 C 229.152344 79.179688 227.515625 75.648438 227.515625 71.59375 C 227.515625 66.96875 229.359375 63.25 233.078125 60.3125 C 233.109375 62.386719 233.140625 64.304688 233.171875 65.980469 Z M 238.328125 23.59375 C 238.328125 20.65625 240.722656 18.261719 243.660156 18.261719 L 254.183594 18.261719 C 257.121094 18.261719 259.515625 20.65625 259.515625 23.59375 L 259.515625 50.261719 C 259.515625 57.03125 259.410156 62.25 259.316406 66.367188 C 259.097656 76.6875 259.027344 80.667969 261.308594 84.90625 C 257.890625 86.625 253.652344 87.59375 248.847656 87.59375 C 244.066406 87.59375 239.828125 86.636719 236.421875 84.929688 C 238.777344 80.59375 238.714844 76.523438 238.503906 65.875 C 238.433594 61.84375 238.328125 56.773438 238.328125 50.261719 Z M 265.746094 81.835938 C 264.402344 78.917969 264.453125 75.636719 264.652344 66.480469 C 264.691406 64.6875 264.734375 62.65625 264.765625 60.429688 C 268.390625 63.34375 270.183594 67.023438 270.183594 71.59375 C 270.183594 75.625 268.566406 79.136719 265.746094 81.835938 Z M 294.402344 91.542969 C 294.421875 93.375 294.453125 95.023438 294.484375 96.5625 C 287.328125 100.667969 283.515625 106.742188 283.515625 114.261719 C 283.515625 126.824219 294.484375 135.59375 310.183594 135.59375 C 325.878906 135.59375 336.847656 126.824219 336.847656 114.261719 C 336.847656 106.792969 333.089844 100.75 326.015625 96.648438 C 326.046875 95.09375 326.089844 93.460938 326.109375 91.605469 C 335.984375 96.417969 342.183594 105 342.183594 114.261719 C 342.183594 128.96875 327.828125 140.929688 310.183594 140.929688 C 292.535156 140.929688 278.183594 128.96875 278.183594 114.261719 C 278.183594 104.949219 284.441406 96.335938 294.402344 91.542969 Z M 288.847656 114.261719 C 288.847656 109.5625 290.753906 105.8125 294.589844 102.855469 C 294.683594 111.980469 294.089844 113.65625 289.691406 119.085938 C 289.140625 117.585938 288.847656 115.96875 288.847656 114.261719 Z M 299.671875 50.261719 C 299.671875 47.324219 302.058594 44.929688 305.003906 44.929688 L 315.515625 44.929688 C 318.453125 44.929688 320.847656 47.324219 320.847656 50.261719 L 320.847656 82.261719 C 320.847656 89.042969 320.734375 94.261719 320.652344 98.375 C 320.316406 113.9375 320.535156 115.117188 327.691406 123.855469 C 323.972656 127.84375 317.777344 130.261719 310.183594 130.261719 C 302.589844 130.261719 296.390625 127.84375 292.671875 123.855469 C 300.140625 114.773438 300.140625 113.773438 299.839844 97.886719 C 299.765625 93.84375 299.671875 88.773438 299.671875 82.261719 Z M 330.671875 119.0625 C 326.328125 113.679688 325.785156 111.96875 325.902344 102.949219 C 329.652344 105.886719 331.515625 109.617188 331.515625 114.261719 C 331.515625 115.96875 331.222656 117.574219 330.671875 119.0625 Z M 342.183594 239.65625 C 341.984375 239.648438 341.796875 239.59375 341.589844 239.59375 L 278.183594 239.59375 L 278.183594 164.929688 C 278.183594 147.730469 280.277344 140.875 283.089844 136.210938 C 289.902344 142.386719 299.503906 146.261719 310.183594 146.261719 C 320.859375 146.261719 330.464844 142.386719 337.277344 136.210938 C 340.089844 140.875 342.183594 147.730469 342.183594 164.929688 Z M 341.589844 343.59375 L 33.441406 343.59375 C 28.703125 343.59375 24.847656 339.742188 24.847656 335 L 24.847656 316.929688 L 350.183594 316.929688 L 350.183594 335 C 350.183594 339.742188 346.328125 343.59375 341.589844 343.59375 Z M 350.183594 311.59375 L 24.847656 311.59375 L 24.847656 276.929688 L 350.183594 276.929688 Z M 33.441406 348.929688 L 341.589844 348.929688 C 349.265625 348.929688 355.515625 342.679688 355.515625 335 L 355.515625 253.523438 C 355.515625 247.96875 352.222656 243.199219 347.515625 240.96875 L 347.515625 164.929688 C 347.515625 146.449219 345.246094 138.605469 341.058594 132.230469 C 345.128906 127.105469 347.515625 120.917969 347.515625 114.261719 C 347.515625 102.199219 339.191406 91.210938 326.171875 85.792969 C 326.171875 84.648438 326.183594 83.511719 326.183594 82.261719 L 326.183594 50.261719 C 326.183594 44.386719 321.402344 39.59375 315.515625 39.59375 L 305.003906 39.59375 C 299.121094 39.59375 294.339844 44.386719 294.339844 50.261719 L 294.339844 82.261719 C 294.339844 83.480469 294.339844 84.605469 294.347656 85.730469 C 287.515625 88.542969 281.972656 92.886719 278.234375 98.117188 C 277.410156 97.011719 276.546875 95.949219 275.660156 94.84375 L 275.191406 94.25 C 281.972656 88.449219 286.183594 80.4375 286.183594 71.59375 C 286.183594 59.542969 277.871094 48.542969 264.847656 43.125 L 264.847656 23.59375 C 264.847656 17.71875 260.066406 12.929688 254.183594 12.929688 L 243.660156 12.929688 C 237.785156 12.929688 232.996094 17.71875 232.996094 23.59375 L 232.996094 43.0625 C 219.902344 48.460938 211.515625 59.5 211.515625 71.59375 C 211.515625 80.4375 215.722656 88.449219 222.503906 94.25 L 221.933594 94.96875 C 216.703125 101.460938 212.765625 106.386719 211.777344 123.667969 C 211.066406 122.804688 210.402344 121.992188 209.796875 121.261719 C 203.003906 113.011719 203.003906 113.011719 203.316406 98.53125 C 203.402344 94.375 203.515625 89.117188 203.515625 82.261719 L 203.515625 50.261719 C 203.515625 44.386719 198.734375 39.59375 192.847656 39.59375 L 182.328125 39.59375 C 176.453125 39.59375 171.660156 44.386719 171.660156 50.261719 L 171.660156 82.261719 C 171.660156 88.835938 171.765625 93.960938 171.839844 98.03125 C 172.128906 112.90625 172.128906 112.90625 165.378906 121.09375 C 164.734375 121.875 164.015625 122.742188 163.253906 123.679688 C 162.265625 106.386719 158.328125 101.460938 153.097656 94.96875 L 152.265625 93.929688 C 150.816406 92.125 149.558594 90.59375 148.464844 89.261719 C 141.671875 81.011719 141.671875 81.011719 141.984375 66.53125 C 142.066406 62.375 142.183594 57.105469 142.183594 50.261719 L 142.183594 23.59375 C 142.183594 17.71875 137.402344 12.929688 131.515625 12.929688 L 120.996094 12.929688 C 115.121094 12.929688 110.328125 17.71875 110.328125 23.59375 L 110.328125 50.261719 C 110.328125 56.835938 110.433594 61.960938 110.503906 66.03125 C 110.796875 80.90625 110.796875 80.90625 104.046875 89.09375 C 102.910156 90.46875 101.597656 92.054688 100.097656 93.929688 L 99.359375 94.855469 C 98.121094 96.386719 96.941406 97.875 95.839844 99.480469 C 92.160156 94.855469 87.015625 91.023438 80.816406 88.449219 C 80.828125 86.523438 80.847656 84.511719 80.847656 82.261719 L 80.847656 50.261719 C 80.847656 44.386719 76.066406 39.59375 70.183594 39.59375 L 59.660156 39.59375 C 53.785156 39.59375 48.996094 44.386719 48.996094 50.261719 L 48.996094 82.261719 C 48.996094 84.480469 49.015625 86.480469 49.035156 88.386719 C 35.910156 93.78125 27.515625 104.824219 27.515625 116.929688 C 27.515625 123.0625 29.578125 128.78125 33.078125 133.65625 C 29.621094 139.511719 27.515625 147.386719 27.515625 164.929688 L 27.515625 240.96875 C 22.808594 243.199219 19.515625 247.96875 19.515625 253.523438 L 19.515625 335 C 19.515625 342.679688 25.765625 348.929688 33.441406 348.929688 Z M 321.628906 187.042969 C 321.015625 187.65625 320.746094 188.511719 320.890625 189.367188 L 322.691406 200.199219 L 311.371094 194.542969 C 311.003906 194.355469 310.589844 194.261719 310.183594 194.261719 C 309.777344 194.261719 309.359375 194.355469 308.996094 194.542969 L 297.671875 200.199219 L 299.472656 189.367188 C 299.621094 188.511719 299.347656 187.65625 298.734375 187.042969 L 291.121094 179.429688 L 303.027344 175.460938 C 303.628906 175.25 304.140625 174.84375 304.464844 174.304688 L 310.183594 164.78125 L 315.902344 174.304688 C 316.222656 174.84375 316.734375 175.25 317.339844 175.460938 L 329.246094 179.429688 Z M 335.027344 175.730469 L 319.964844 170.710938 L 312.464844 158.21875 C 311.503906 156.617188 308.859375 156.617188 307.902344 158.21875 L 300.402344 170.710938 L 285.339844 175.730469 C 284.464844 176.023438 283.796875 176.75 283.589844 177.648438 C 283.378906 178.542969 283.640625 179.492188 284.296875 180.148438 L 293.996094 189.84375 L 291.558594 204.492188 C 291.390625 205.480469 291.796875 206.480469 292.597656 207.074219 C 293.402344 207.667969 294.472656 207.761719 295.371094 207.3125 L 310.183594 199.90625 L 324.996094 207.3125 C 325.371094 207.5 325.777344 207.59375 326.183594 207.59375 C 326.746094 207.59375 327.296875 207.417969 327.765625 207.074219 C 328.566406 206.480469 328.972656 205.480469 328.808594 204.492188 L 326.371094 189.84375 L 336.066406 180.148438 C 336.722656 179.492188 336.996094 178.542969 336.777344 177.648438 C 336.566406 176.75 335.902344 176.023438 335.027344 175.730469 Z M 180.359375 175.460938 C 180.964844 175.25 181.472656 174.84375 181.796875 174.304688 L 187.515625 164.78125 L 193.234375 174.304688 C 193.558594 174.84375 194.066406 175.25 194.671875 175.460938 L 206.578125 179.429688 L 198.964844 187.042969 C 198.359375 187.65625 198.078125 188.511719 198.222656 189.367188 L 200.027344 200.199219 L 188.714844 194.542969 C 188.328125 194.355469 187.921875 194.261719 187.515625 194.261719 C 187.109375 194.261719 186.703125 194.355469 186.316406 194.542969 L 175.003906 200.199219 L 176.808594 189.367188 C 176.953125 188.511719 176.671875 187.65625 176.066406 187.042969 L 168.453125 179.429688 Z M 171.328125 189.84375 L 168.890625 204.492188 C 168.722656 205.480469 169.121094 206.480469 169.933594 207.074219 C 170.734375 207.667969 171.808594 207.761719 172.714844 207.3125 L 187.515625 199.90625 L 202.316406 207.3125 C 202.703125 207.5 203.109375 207.59375 203.515625 207.59375 C 204.078125 207.59375 204.628906 207.417969 205.097656 207.074219 C 205.910156 206.480469 206.308594 205.480469 206.140625 204.492188 L 203.703125 189.84375 L 213.402344 180.148438 C 214.058594 179.492188 214.316406 178.542969 214.109375 177.648438 C 213.902344 176.75 213.234375 176.023438 212.359375 175.730469 L 197.296875 170.710938 L 189.796875 158.21875 C 188.839844 156.617188 186.191406 156.617188 185.234375 158.21875 L 177.734375 170.710938 L 162.671875 175.730469 C 161.796875 176.023438 161.128906 176.75 160.921875 177.648438 C 160.714844 178.542969 160.972656 179.492188 161.628906 180.148438 Z M 57.691406 175.460938 C 58.296875 175.25 58.808594 174.84375 59.128906 174.304688 L 64.847656 164.78125 L 70.566406 174.304688 C 70.890625 174.84375 71.402344 175.25 72.003906 175.460938 L 83.910156 179.429688 L 76.296875 187.042969 C 75.691406 187.65625 75.410156 188.511719 75.558594 189.367188 L 77.359375 200.199219 L 66.046875 194.542969 C 65.660156 194.355469 65.253906 194.261719 64.847656 194.261719 C 64.441406 194.261719 64.035156 194.355469 63.652344 194.542969 L 52.339844 200.199219 L 54.140625 189.367188 C 54.285156 188.511719 54.003906 187.65625 53.402344 187.042969 L 45.785156 179.429688 Z M 48.660156 189.84375 L 46.222656 204.492188 C 46.058594 205.480469 46.453125 206.480469 47.265625 207.074219 C 48.066406 207.667969 49.140625 207.761719 50.046875 207.3125 L 64.847656 199.90625 L 79.652344 207.3125 C 80.035156 207.5 80.441406 207.59375 80.847656 207.59375 C 81.410156 207.59375 81.964844 207.417969 82.433594 207.074219 C 83.246094 206.480469 83.640625 205.480469 83.472656 204.492188 L 81.035156 189.84375 L 90.734375 180.148438 C 91.390625 179.492188 91.652344 178.542969 91.441406 177.648438 C 91.234375 176.75 90.566406 176.023438 89.691406 175.730469 L 74.628906 170.710938 L 67.128906 158.21875 C 66.171875 156.617188 63.527344 156.617188 62.566406 158.21875 L 55.066406 170.710938 L 40.003906 175.730469 C 39.128906 176.023438 38.464844 176.75 38.253906 177.648438 C 38.046875 178.542969 38.308594 179.492188 38.964844 180.148438 Z M 48.660156 189.84375 " clip-rule="nonzero"/></clipPath><clipPath id="c2c8947bd7"><path d="M 336.847656 332.929688 C 335.378906 332.929688 334.183594 331.730469 334.183594 330.261719 C 334.183594 328.792969 335.378906 327.59375 336.847656 327.59375 C 338.316406 327.59375 339.515625 328.792969 339.515625 330.261719 C 339.515625 331.730469 338.316406 332.929688 336.847656 332.929688 Z M 336.847656 322.261719 C 332.441406 322.261719 328.847656 325.855469 328.847656 330.261719 C 328.847656 334.667969 332.441406 338.261719 336.847656 338.261719 C 341.253906 338.261719 344.847656 334.667969 344.847656 330.261719 C 344.847656 325.855469 341.253906 322.261719 336.847656 322.261719 Z M 336.847656 255.585938 C 338.316406 255.585938 339.515625 256.78125 339.515625 258.25 C 339.515625 259.71875 338.316406 260.917969 336.847656 260.917969 C 335.378906 260.917969 334.183594 259.71875 334.183594 258.25 C 334.183594 256.78125 335.378906 255.585938 336.847656 255.585938 Z M 336.847656 266.25 C 341.253906 266.25 344.847656 262.667969 344.847656 258.25 C 344.847656 253.84375 341.253906 250.25 336.847656 250.25 C 332.441406 250.25 328.847656 253.84375 328.847656 258.25 C 328.847656 262.667969 332.441406 266.25 336.847656 266.25 Z M 38.183594 332.929688 C 36.714844 332.929688 35.515625 331.730469 35.515625 330.261719 C 35.515625 328.792969 36.714844 327.59375 38.183594 327.59375 C 39.652344 327.59375 40.847656 328.792969 40.847656 330.261719 C 40.847656 331.730469 39.652344 332.929688 38.183594 332.929688 Z M 38.183594 322.261719 C 33.765625 322.261719 30.183594 325.855469 30.183594 330.261719 C 30.183594 334.667969 33.765625 338.261719 38.183594 338.261719 C 42.597656 338.261719 46.183594 334.667969 46.183594 330.261719 C 46.183594 325.855469 42.597656 322.261719 38.183594 322.261719 Z M 38.183594 255.585938 C 39.652344 255.585938 40.847656 256.78125 40.847656 258.25 C 40.847656 259.71875 39.652344 260.917969 38.183594 260.917969 C 36.714844 260.917969 35.515625 259.71875 35.515625 258.25 C 35.515625 256.78125 36.714844 255.585938 38.183594 255.585938 Z M 38.183594 266.25 C 42.597656 266.25 46.183594 262.667969 46.183594 258.25 C 46.183594 253.84375 42.597656 250.25 38.183594 250.25 C 33.765625 250.25 30.183594 253.84375 30.183594 258.25 C 30.183594 262.667969 33.765625 266.25 38.183594 266.25 Z M 33.441406 244.929688 L 341.589844 244.929688 C 346.328125 244.929688 350.183594 248.78125 350.183594 253.523438 L 350.183594 271.59375 L 24.847656 271.59375 L 24.847656 253.523438 C 24.847656 248.78125 28.703125 244.929688 33.441406 244.929688 Z M 32.847656 164.929688 C 32.847656 150.21875 34.316406 142.992188 36.796875 137.980469 C 43.652344 144.679688 53.671875 148.929688 64.847656 148.929688 C 76.027344 148.929688 86.046875 144.679688 92.902344 137.980469 C 95.378906 142.992188 96.847656 150.21875 96.847656 164.929688 L 96.847656 239.59375 L 33.441406 239.59375 C 33.234375 239.59375 33.046875 239.648438 32.847656 239.65625 Z M 49.109375 94.1875 C 49.128906 95.53125 49.152344 96.824219 49.171875 97.992188 C 49.183594 98.417969 49.191406 98.792969 49.203125 99.199219 C 42.015625 103.304688 38.183594 109.398438 38.183594 116.929688 C 38.183594 129.492188 49.152344 138.261719 64.847656 138.261719 C 80.546875 138.261719 91.515625 129.492188 91.515625 116.929688 C 91.515625 109.4375 87.734375 103.386719 80.628906 99.28125 C 80.640625 99.011719 80.640625 98.773438 80.652344 98.5 C 80.671875 97.210938 80.703125 95.773438 80.734375 94.25 C 90.621094 99.0625 96.847656 107.648438 96.847656 116.929688 C 96.847656 122.40625 94.847656 127.511719 91.433594 131.75 C 91.316406 131.875 91.203125 131.980469 91.109375 132.117188 C 85.328125 139.042969 75.722656 143.59375 64.847656 143.59375 C 53.972656 143.59375 44.371094 139.042969 38.578125 132.117188 C 38.496094 131.980469 38.378906 131.875 38.265625 131.75 C 34.847656 127.511719 32.847656 122.40625 32.847656 116.929688 C 32.847656 107.605469 39.128906 98.980469 49.109375 94.1875 Z M 43.515625 116.929688 C 43.515625 112.230469 45.421875 108.480469 49.253906 105.523438 C 49.171875 112.667969 48.214844 114.386719 43.816406 119.75 C 43.628906 118.84375 43.515625 117.90625 43.515625 116.929688 Z M 54.328125 50.261719 C 54.328125 47.324219 56.722656 44.929688 59.660156 44.929688 L 70.183594 44.929688 C 73.121094 44.929688 75.515625 47.324219 75.515625 50.261719 L 75.515625 82.261719 C 75.515625 89.042969 75.402344 94.261719 75.316406 98.386719 C 74.972656 114.417969 75.191406 115.148438 83.027344 124.667969 L 83.464844 125.199219 C 79.941406 129.96875 73.253906 132.929688 64.847656 132.929688 C 56.441406 132.929688 49.753906 129.96875 46.234375 125.199219 L 46.808594 124.5 C 54.828125 114.78125 54.816406 114.15625 54.503906 97.886719 C 54.433594 93.84375 54.328125 88.773438 54.328125 82.261719 Z M 85.890625 119.742188 C 81.527344 114.398438 80.609375 112.6875 80.558594 105.605469 C 84.316406 108.542969 86.183594 112.273438 86.183594 116.929688 C 86.183594 117.898438 86.066406 118.835938 85.890625 119.742188 Z M 103.503906 98.199219 L 104.265625 97.261719 C 105.753906 95.40625 107.035156 93.84375 108.152344 92.492188 C 116.171875 82.78125 116.152344 82.148438 115.839844 65.929688 C 115.765625 61.875 115.660156 56.792969 115.660156 50.261719 L 115.660156 23.59375 C 115.660156 20.65625 118.058594 18.261719 120.996094 18.261719 L 131.515625 18.261719 C 134.453125 18.261719 136.847656 20.65625 136.847656 23.59375 L 136.847656 50.261719 C 136.847656 57.0625 136.734375 62.292969 136.652344 66.417969 C 136.308594 82.40625 136.527344 83.148438 144.347656 92.648438 C 145.433594 93.96875 146.671875 95.480469 148.097656 97.261719 L 148.941406 98.3125 C 154.285156 104.949219 157.839844 109.398438 158.140625 130.085938 C 153.410156 136.375 150.183594 143.375 150.183594 164.929688 L 150.183594 239.59375 L 102.183594 239.59375 L 102.183594 164.929688 C 102.183594 147.386719 100.078125 139.511719 96.609375 133.65625 C 100.121094 128.78125 102.183594 123.0625 102.183594 116.929688 C 102.183594 112.53125 101.058594 108.292969 99.027344 104.398438 C 100.296875 102.230469 101.796875 100.335938 103.503906 98.199219 Z M 165.597656 129.261719 C 167.089844 127.40625 168.371094 125.84375 169.484375 124.492188 C 177.503906 114.78125 177.484375 114.148438 177.171875 97.929688 C 177.097656 93.875 176.996094 88.792969 176.996094 82.261719 L 176.996094 50.261719 C 176.996094 47.324219 179.390625 44.929688 182.328125 44.929688 L 192.847656 44.929688 C 195.785156 44.929688 198.183594 47.324219 198.183594 50.261719 L 198.183594 82.261719 C 198.183594 89.0625 198.066406 94.292969 197.984375 98.417969 C 197.640625 114.40625 197.859375 115.148438 205.683594 124.648438 C 206.765625 125.96875 208.003906 127.480469 209.433594 129.261719 L 210.328125 130.367188 C 216.058594 137.480469 219.515625 141.761719 219.515625 164.929688 L 219.515625 239.59375 L 155.515625 239.59375 L 155.515625 164.929688 C 155.515625 141.761719 158.972656 137.480469 164.703125 130.367188 Z M 226.089844 98.3125 L 226.839844 97.375 C 233.015625 101.273438 240.609375 103.59375 248.847656 103.59375 C 257.089844 103.59375 264.683594 101.273438 270.859375 97.375 L 271.503906 98.1875 C 272.933594 99.949219 274.152344 101.554688 275.253906 103.242188 C 273.703125 106.710938 272.847656 110.4375 272.847656 114.261719 C 272.847656 120.917969 275.234375 127.105469 279.308594 132.230469 C 275.109375 138.605469 272.847656 146.449219 272.847656 164.929688 L 272.847656 239.59375 L 224.847656 239.59375 L 224.847656 164.929688 C 224.847656 143.375 221.621094 136.375 216.890625 130.085938 C 217.191406 109.398438 220.746094 104.949219 226.089844 98.3125 Z M 216.847656 71.59375 C 216.847656 62.304688 223.089844 53.710938 232.996094 48.90625 L 232.996094 50.261719 C 232.996094 51.574219 233.003906 52.78125 233.015625 53.980469 C 225.941406 58.085938 222.183594 64.125 222.183594 71.59375 C 222.183594 84.15625 233.152344 92.929688 248.847656 92.929688 C 264.546875 92.929688 275.515625 84.15625 275.515625 71.59375 C 275.515625 64.179688 271.796875 58.167969 264.828125 54.0625 C 264.839844 52.835938 264.847656 51.605469 264.847656 50.261719 L 264.847656 48.980469 C 274.671875 53.792969 280.847656 62.355469 280.847656 71.59375 C 280.847656 79.574219 276.597656 86.730469 269.910156 91.617188 C 269.847656 91.65625 269.777344 91.667969 269.714844 91.71875 C 269.671875 91.75 269.652344 91.8125 269.609375 91.84375 C 264.015625 95.835938 256.777344 98.261719 248.847656 98.261719 C 240.921875 98.261719 233.683594 95.835938 228.089844 91.84375 C 228.046875 91.8125 228.027344 91.75 227.984375 91.71875 C 227.921875 91.667969 227.847656 91.65625 227.785156 91.617188 C 221.097656 86.730469 216.847656 79.574219 216.847656 71.59375 Z M 233.171875 65.980469 C 233.371094 75.824219 233.347656 79.0625 232.003906 81.875 C 229.152344 79.179688 227.515625 75.648438 227.515625 71.59375 C 227.515625 66.96875 229.359375 63.25 233.078125 60.3125 C 233.109375 62.386719 233.140625 64.304688 233.171875 65.980469 Z M 238.328125 23.59375 C 238.328125 20.65625 240.722656 18.261719 243.660156 18.261719 L 254.183594 18.261719 C 257.121094 18.261719 259.515625 20.65625 259.515625 23.59375 L 259.515625 50.261719 C 259.515625 57.03125 259.410156 62.25 259.316406 66.367188 C 259.097656 76.6875 259.027344 80.667969 261.308594 84.90625 C 257.890625 86.625 253.652344 87.59375 248.847656 87.59375 C 244.066406 87.59375 239.828125 86.636719 236.421875 84.929688 C 238.777344 80.59375 238.714844 76.523438 238.503906 65.875 C 238.433594 61.84375 238.328125 56.773438 238.328125 50.261719 Z M 265.746094 81.835938 C 264.402344 78.917969 264.453125 75.636719 264.652344 66.480469 C 264.691406 64.6875 264.734375 62.65625 264.765625 60.429688 C 268.390625 63.34375 270.183594 67.023438 270.183594 71.59375 C 270.183594 75.625 268.566406 79.136719 265.746094 81.835938 Z M 294.402344 91.542969 C 294.421875 93.375 294.453125 95.023438 294.484375 96.5625 C 287.328125 100.667969 283.515625 106.742188 283.515625 114.261719 C 283.515625 126.824219 294.484375 135.59375 310.183594 135.59375 C 325.878906 135.59375 336.847656 126.824219 336.847656 114.261719 C 336.847656 106.792969 333.089844 100.75 326.015625 96.648438 C 326.046875 95.09375 326.089844 93.460938 326.109375 91.605469 C 335.984375 96.417969 342.183594 105 342.183594 114.261719 C 342.183594 128.96875 327.828125 140.929688 310.183594 140.929688 C 292.535156 140.929688 278.183594 128.96875 278.183594 114.261719 C 278.183594 104.949219 284.441406 96.335938 294.402344 91.542969 Z M 288.847656 114.261719 C 288.847656 109.5625 290.753906 105.8125 294.589844 102.855469 C 294.683594 111.980469 294.089844 113.65625 289.691406 119.085938 C 289.140625 117.585938 288.847656 115.96875 288.847656 114.261719 Z M 299.671875 50.261719 C 299.671875 47.324219 302.058594 44.929688 305.003906 44.929688 L 315.515625 44.929688 C 318.453125 44.929688 320.847656 47.324219 320.847656 50.261719 L 320.847656 82.261719 C 320.847656 89.042969 320.734375 94.261719 320.652344 98.375 C 320.316406 113.9375 320.535156 115.117188 327.691406 123.855469 C 323.972656 127.84375 317.777344 130.261719 310.183594 130.261719 C 302.589844 130.261719 296.390625 127.84375 292.671875 123.855469 C 300.140625 114.773438 300.140625 113.773438 299.839844 97.886719 C 299.765625 93.84375 299.671875 88.773438 299.671875 82.261719 Z M 330.671875 119.0625 C 326.328125 113.679688 325.785156 111.96875 325.902344 102.949219 C 329.652344 105.886719 331.515625 109.617188 331.515625 114.261719 C 331.515625 115.96875 331.222656 117.574219 330.671875 119.0625 Z M 342.183594 239.65625 C 341.984375 239.648438 341.796875 239.59375 341.589844 239.59375 L 278.183594 239.59375 L 278.183594 164.929688 C 278.183594 147.730469 280.277344 140.875 283.089844 136.210938 C 289.902344 142.386719 299.503906 146.261719 310.183594 146.261719 C 320.859375 146.261719 330.464844 142.386719 337.277344 136.210938 C 340.089844 140.875 342.183594 147.730469 342.183594 164.929688 Z M 341.589844 343.59375 L 33.441406 343.59375 C 28.703125 343.59375 24.847656 339.742188 24.847656 335 L 24.847656 316.929688 L 350.183594 316.929688 L 350.183594 335 C 350.183594 339.742188 346.328125 343.59375 341.589844 343.59375 Z M 350.183594 311.59375 L 24.847656 311.59375 L 24.847656 276.929688 L 350.183594 276.929688 Z M 33.441406 348.929688 L 341.589844 348.929688 C 349.265625 348.929688 355.515625 342.679688 355.515625 335 L 355.515625 253.523438 C 355.515625 247.96875 352.222656 243.199219 347.515625 240.96875 L 347.515625 164.929688 C 347.515625 146.449219 345.246094 138.605469 341.058594 132.230469 C 345.128906 127.105469 347.515625 120.917969 347.515625 114.261719 C 347.515625 102.199219 339.191406 91.210938 326.171875 85.792969 C 326.171875 84.648438 326.183594 83.511719 326.183594 82.261719 L 326.183594 50.261719 C 326.183594 44.386719 321.402344 39.59375 315.515625 39.59375 L 305.003906 39.59375 C 299.121094 39.59375 294.339844 44.386719 294.339844 50.261719 L 294.339844 82.261719 C 294.339844 83.480469 294.339844 84.605469 294.347656 85.730469 C 287.515625 88.542969 281.972656 92.886719 278.234375 98.117188 C 277.410156 97.011719 276.546875 95.949219 275.660156 94.84375 L 275.191406 94.25 C 281.972656 88.449219 286.183594 80.4375 286.183594 71.59375 C 286.183594 59.542969 277.871094 48.542969 264.847656 43.125 L 264.847656 23.59375 C 264.847656 17.71875 260.066406 12.929688 254.183594 12.929688 L 243.660156 12.929688 C 237.785156 12.929688 232.996094 17.71875 232.996094 23.59375 L 232.996094 43.0625 C 219.902344 48.460938 211.515625 59.5 211.515625 71.59375 C 211.515625 80.4375 215.722656 88.449219 222.503906 94.25 L 221.933594 94.96875 C 216.703125 101.460938 212.765625 106.386719 211.777344 123.667969 C 211.066406 122.804688 210.402344 121.992188 209.796875 121.261719 C 203.003906 113.011719 203.003906 113.011719 203.316406 98.53125 C 203.402344 94.375 203.515625 89.117188 203.515625 82.261719 L 203.515625 50.261719 C 203.515625 44.386719 198.734375 39.59375 192.847656 39.59375 L 182.328125 39.59375 C 176.453125 39.59375 171.660156 44.386719 171.660156 50.261719 L 171.660156 82.261719 C 171.660156 88.835938 171.765625 93.960938 171.839844 98.03125 C 172.128906 112.90625 172.128906 112.90625 165.378906 121.09375 C 164.734375 121.875 164.015625 122.742188 163.253906 123.679688 C 162.265625 106.386719 158.328125 101.460938 153.097656 94.96875 L 152.265625 93.929688 C 150.816406 92.125 149.558594 90.59375 148.464844 89.261719 C 141.671875 81.011719 141.671875 81.011719 141.984375 66.53125 C 142.066406 62.375 142.183594 57.105469 142.183594 50.261719 L 142.183594 23.59375 C 142.183594 17.71875 137.402344 12.929688 131.515625 12.929688 L 120.996094 12.929688 C 115.121094 12.929688 110.328125 17.71875 110.328125 23.59375 L 110.328125 50.261719 C 110.328125 56.835938 110.433594 61.960938 110.503906 66.03125 C 110.796875 80.90625 110.796875 80.90625 104.046875 89.09375 C 102.910156 90.46875 101.597656 92.054688 100.097656 93.929688 L 99.359375 94.855469 C 98.121094 96.386719 96.941406 97.875 95.839844 99.480469 C 92.160156 94.855469 87.015625 91.023438 80.816406 88.449219 C 80.828125 86.523438 80.847656 84.511719 80.847656 82.261719 L 80.847656 50.261719 C 80.847656 44.386719 76.066406 39.59375 70.183594 39.59375 L 59.660156 39.59375 C 53.785156 39.59375 48.996094 44.386719 48.996094 50.261719 L 48.996094 82.261719 C 48.996094 84.480469 49.015625 86.480469 49.035156 88.386719 C 35.910156 93.78125 27.515625 104.824219 27.515625 116.929688 C 27.515625 123.0625 29.578125 128.78125 33.078125 133.65625 C 29.621094 139.511719 27.515625 147.386719 27.515625 164.929688 L 27.515625 240.96875 C 22.808594 243.199219 19.515625 247.96875 19.515625 253.523438 L 19.515625 335 C 19.515625 342.679688 25.765625 348.929688 33.441406 348.929688 Z M 321.628906 187.042969 C 321.015625 187.65625 320.746094 188.511719 320.890625 189.367188 L 322.691406 200.199219 L 311.371094 194.542969 C 311.003906 194.355469 310.589844 194.261719 310.183594 194.261719 C 309.777344 194.261719 309.359375 194.355469 308.996094 194.542969 L 297.671875 200.199219 L 299.472656 189.367188 C 299.621094 188.511719 299.347656 187.65625 298.734375 187.042969 L 291.121094 179.429688 L 303.027344 175.460938 C 303.628906 175.25 304.140625 174.84375 304.464844 174.304688 L 310.183594 164.78125 L 315.902344 174.304688 C 316.222656 174.84375 316.734375 175.25 317.339844 175.460938 L 329.246094 179.429688 Z M 335.027344 175.730469 L 319.964844 170.710938 L 312.464844 158.21875 C 311.503906 156.617188 308.859375 156.617188 307.902344 158.21875 L 300.402344 170.710938 L 285.339844 175.730469 C 284.464844 176.023438 283.796875 176.75 283.589844 177.648438 C 283.378906 178.542969 283.640625 179.492188 284.296875 180.148438 L 293.996094 189.84375 L 291.558594 204.492188 C 291.390625 205.480469 291.796875 206.480469 292.597656 207.074219 C 293.402344 207.667969 294.472656 207.761719 295.371094 207.3125 L 310.183594 199.90625 L 324.996094 207.3125 C 325.371094 207.5 325.777344 207.59375 326.183594 207.59375 C 326.746094 207.59375 327.296875 207.417969 327.765625 207.074219 C 328.566406 206.480469 328.972656 205.480469 328.808594 204.492188 L 326.371094 189.84375 L 336.066406 180.148438 C 336.722656 179.492188 336.996094 178.542969 336.777344 177.648438 C 336.566406 176.75 335.902344 176.023438 335.027344 175.730469 Z M 180.359375 175.460938 C 180.964844 175.25 181.472656 174.84375 181.796875 174.304688 L 187.515625 164.78125 L 193.234375 174.304688 C 193.558594 174.84375 194.066406 175.25 194.671875 175.460938 L 206.578125 179.429688 L 198.964844 187.042969 C 198.359375 187.65625 198.078125 188.511719 198.222656 189.367188 L 200.027344 200.199219 L 188.714844 194.542969 C 188.328125 194.355469 187.921875 194.261719 187.515625 194.261719 C 187.109375 194.261719 186.703125 194.355469 186.316406 194.542969 L 175.003906 200.199219 L 176.808594 189.367188 C 176.953125 188.511719 176.671875 187.65625 176.066406 187.042969 L 168.453125 179.429688 Z M 171.328125 189.84375 L 168.890625 204.492188 C 168.722656 205.480469 169.121094 206.480469 169.933594 207.074219 C 170.734375 207.667969 171.808594 207.761719 172.714844 207.3125 L 187.515625 199.90625 L 202.316406 207.3125 C 202.703125 207.5 203.109375 207.59375 203.515625 207.59375 C 204.078125 207.59375 204.628906 207.417969 205.097656 207.074219 C 205.910156 206.480469 206.308594 205.480469 206.140625 204.492188 L 203.703125 189.84375 L 213.402344 180.148438 C 214.058594 179.492188 214.316406 178.542969 214.109375 177.648438 C 213.902344 176.75 213.234375 176.023438 212.359375 175.730469 L 197.296875 170.710938 L 189.796875 158.21875 C 188.839844 156.617188 186.191406 156.617188 185.234375 158.21875 L 177.734375 170.710938 L 162.671875 175.730469 C 161.796875 176.023438 161.128906 176.75 160.921875 177.648438 C 160.714844 178.542969 160.972656 179.492188 161.628906 180.148438 Z M 57.691406 175.460938 C 58.296875 175.25 58.808594 174.84375 59.128906 174.304688 L 64.847656 164.78125 L 70.566406 174.304688 C 70.890625 174.84375 71.402344 175.25 72.003906 175.460938 L 83.910156 179.429688 L 76.296875 187.042969 C 75.691406 187.65625 75.410156 188.511719 75.558594 189.367188 L 77.359375 200.199219 L 66.046875 194.542969 C 65.660156 194.355469 65.253906 194.261719 64.847656 194.261719 C 64.441406 194.261719 64.035156 194.355469 63.652344 194.542969 L 52.339844 200.199219 L 54.140625 189.367188 C 54.285156 188.511719 54.003906 187.65625 53.402344 187.042969 L 45.785156 179.429688 Z M 48.660156 189.84375 L 46.222656 204.492188 C 46.058594 205.480469 46.453125 206.480469 47.265625 207.074219 C 48.066406 207.667969 49.140625 207.761719 50.046875 207.3125 L 64.847656 199.90625 L 79.652344 207.3125 C 80.035156 207.5 80.441406 207.59375 80.847656 207.59375 C 81.410156 207.59375 81.964844 207.417969 82.433594 207.074219 C 83.246094 206.480469 83.640625 205.480469 83.472656 204.492188 L 81.035156 189.84375 L 90.734375 180.148438 C 91.390625 179.492188 91.652344 178.542969 91.441406 177.648438 C 91.234375 176.75 90.566406 176.023438 89.691406 175.730469 L 74.628906 170.710938 L 67.128906 158.21875 C 66.171875 156.617188 63.527344 156.617188 62.566406 158.21875 L 55.066406 170.710938 L 40.003906 175.730469 C 39.128906 176.023438 38.464844 176.75 38.253906 177.648438 C 38.046875 178.542969 38.308594 179.492188 38.964844 180.148438 L 48.660156 189.84375 " clip-rule="nonzero"/></clipPath><linearGradient x1="-0.0000000456509" gradientTransform="matrix(0, 335.999992, -335.999992, 0, 187.51593, 12.92896)" y1="0" x2="1" gradientUnits="userSpaceOnUse" y2="0" id="a050b95d1d"><stop stop-opacity="1" stop-color="rgb(93.699646%, 79.598999%, 34.498596%)" offset="0"/><stop stop-opacity="1" stop-color="rgb(93.699646%, 79.408264%, 34.689331%)" offset="0.015625"/><stop stop-opacity="1" stop-color="rgb(93.499756%, 78.997803%, 35.099792%)" offset="0.0195312"/><stop stop-opacity="1" stop-color="rgb(93.299866%, 78.778076%, 35.321045%)" offset="0.0234375"/><stop stop-opacity="1" stop-color="rgb(93.299866%, 78.582764%, 35.516357%)" offset="0.03125"/><stop stop-opacity="1" stop-color="rgb(93.299866%, 78.192139%, 35.906982%)" offset="0.0390625"/><stop stop-opacity="1" stop-color="rgb(93.299866%, 77.801514%, 36.297607%)" offset="0.046875"/><stop stop-opacity="1" stop-color="rgb(93.107605%, 77.458191%, 36.688232%)" offset="0.0546875"/><stop stop-opacity="1" stop-color="rgb(92.906189%, 77.11792%, 36.891174%)" offset="0.0625"/><stop stop-opacity="1" stop-color="rgb(92.89093%, 76.702881%, 37.104797%)" offset="0.0664062"/><stop stop-opacity="1" stop-color="rgb(92.883301%, 76.483154%, 37.310791%)" offset="0.0703125"/><stop stop-opacity="1" stop-color="rgb(92.69104%, 76.290894%, 37.457275%)" offset="0.078125"/><stop stop-opacity="1" stop-color="rgb(92.498779%, 76.098633%, 37.800598%)" offset="0.0859375"/><stop stop-opacity="1" stop-color="rgb(92.498779%, 75.904846%, 38.191223%)" offset="0.09375"/><stop stop-opacity="1" stop-color="rgb(92.498779%, 75.515747%, 38.581848%)" offset="0.101562"/><stop stop-opacity="1" stop-color="rgb(92.349243%, 75.100708%, 38.987732%)" offset="0.105469"/><stop stop-opacity="1" stop-color="rgb(92.199707%, 74.880981%, 39.199829%)" offset="0.109375"/><stop stop-opacity="1" stop-color="rgb(92.199707%, 74.685669%, 39.204407%)" offset="0.117187"/><stop stop-opacity="1" stop-color="rgb(92.199707%, 74.295044%, 39.404297%)" offset="0.125"/><stop stop-opacity="1" stop-color="rgb(92.199707%, 73.904419%, 39.794922%)" offset="0.132812"/><stop stop-opacity="1" stop-color="rgb(92.008972%, 73.513794%, 40.185547%)" offset="0.140625"/><stop stop-opacity="1" stop-color="rgb(91.809082%, 73.097229%, 40.600586%)" offset="0.144531"/><stop stop-opacity="1" stop-color="rgb(91.799927%, 72.877502%, 40.821838%)" offset="0.148437"/><stop stop-opacity="1" stop-color="rgb(91.792297%, 72.688293%, 41.017151%)" offset="0.15625"/><stop stop-opacity="1" stop-color="rgb(91.592407%, 72.497559%, 41.407776%)" offset="0.164062"/><stop stop-opacity="1" stop-color="rgb(91.398621%, 72.351074%, 41.798401%)" offset="0.171875"/><stop stop-opacity="1" stop-color="rgb(91.398621%, 72.009277%, 41.996765%)" offset="0.179687"/><stop stop-opacity="1" stop-color="rgb(91.398621%, 71.620178%, 42.185974%)" offset="0.1875"/><stop stop-opacity="1" stop-color="rgb(91.19873%, 71.203613%, 42.544556%)" offset="0.191406"/><stop stop-opacity="1" stop-color="rgb(90.99884%, 70.983887%, 42.715454%)" offset="0.195312"/><stop stop-opacity="1" stop-color="rgb(90.99884%, 70.788574%, 42.910767%)" offset="0.203125"/><stop stop-opacity="1" stop-color="rgb(90.99884%, 70.397949%, 43.301392%)" offset="0.210937"/><stop stop-opacity="1" stop-color="rgb(90.99884%, 70.007324%, 43.692017%)" offset="0.21875"/><stop stop-opacity="1" stop-color="rgb(90.809631%, 69.616699%, 44.082642%)" offset="0.226562"/><stop stop-opacity="1" stop-color="rgb(90.609741%, 69.20929%, 44.297791%)" offset="0.230469"/><stop stop-opacity="1" stop-color="rgb(90.59906%, 68.998718%, 44.317627%)" offset="0.234375"/><stop stop-opacity="1" stop-color="rgb(90.594482%, 68.994141%, 44.512939%)" offset="0.242187"/><stop stop-opacity="1" stop-color="rgb(90.394592%, 68.79425%, 44.903564%)" offset="0.25"/><stop stop-opacity="1" stop-color="rgb(90.19928%, 68.403625%, 45.294189%)" offset="0.257812"/><stop stop-opacity="1" stop-color="rgb(90.19928%, 68.013%, 45.684814%)" offset="0.265625"/><stop stop-opacity="1" stop-color="rgb(90.188599%, 67.64679%, 46.099854%)" offset="0.269531"/><stop stop-opacity="1" stop-color="rgb(90.177917%, 67.477417%, 46.321106%)" offset="0.273438"/><stop stop-opacity="1" stop-color="rgb(89.988708%, 67.282104%, 46.510315%)" offset="0.28125"/><stop stop-opacity="1" stop-color="rgb(89.7995%, 66.891479%, 46.70105%)" offset="0.289062"/><stop stop-opacity="1" stop-color="rgb(89.7995%, 66.500854%, 46.897888%)" offset="0.296875"/><stop stop-opacity="1" stop-color="rgb(89.7995%, 66.110229%, 47.288513%)" offset="0.304688"/><stop stop-opacity="1" stop-color="rgb(89.611816%, 65.719604%, 47.631836%)" offset="0.3125"/><stop stop-opacity="1" stop-color="rgb(89.411926%, 65.310669%, 47.996521%)" offset="0.316406"/><stop stop-opacity="1" stop-color="rgb(89.399719%, 65.098572%, 48.214722%)" offset="0.320312"/><stop stop-opacity="1" stop-color="rgb(89.396667%, 65.09552%, 48.410034%)" offset="0.328125"/><stop stop-opacity="1" stop-color="rgb(89.198303%, 64.897156%, 48.800659%)" offset="0.335938"/><stop stop-opacity="1" stop-color="rgb(89.001465%, 64.506531%, 49.191284%)" offset="0.34375"/><stop stop-opacity="1" stop-color="rgb(88.999939%, 64.115906%, 49.3927%)" offset="0.351562"/><stop stop-opacity="1" stop-color="rgb(88.989258%, 63.700867%, 49.607849%)" offset="0.355469"/><stop stop-opacity="1" stop-color="rgb(88.980103%, 63.48114%, 49.81842%)" offset="0.359375"/><stop stop-opacity="1" stop-color="rgb(88.789368%, 63.285828%, 50.013733%)" offset="0.367188"/><stop stop-opacity="1" stop-color="rgb(88.598633%, 62.895203%, 50.404358%)" offset="0.375"/><stop stop-opacity="1" stop-color="rgb(88.598633%, 62.553406%, 50.794983%)" offset="0.382812"/><stop stop-opacity="1" stop-color="rgb(88.598633%, 62.211609%, 51.185608%)" offset="0.390625"/><stop stop-opacity="1" stop-color="rgb(88.398743%, 61.79657%, 51.589966%)" offset="0.394531"/><stop stop-opacity="1" stop-color="rgb(88.198853%, 61.576843%, 51.799011%)" offset="0.398437"/><stop stop-opacity="1" stop-color="rgb(88.198853%, 61.387634%, 51.805115%)" offset="0.40625"/><stop stop-opacity="1" stop-color="rgb(88.197327%, 61.196899%, 52.006531%)" offset="0.414062"/><stop stop-opacity="1" stop-color="rgb(88.000488%, 61.000061%, 52.348328%)" offset="0.421875"/><stop stop-opacity="1" stop-color="rgb(87.802124%, 60.609436%, 52.688599%)" offset="0.429687"/><stop stop-opacity="1" stop-color="rgb(87.799072%, 60.218811%, 53.079224%)" offset="0.4375"/><stop stop-opacity="1" stop-color="rgb(87.792969%, 59.803772%, 53.494263%)" offset="0.441406"/><stop stop-opacity="1" stop-color="rgb(87.786865%, 59.584045%, 53.715515%)" offset="0.445312"/><stop stop-opacity="1" stop-color="rgb(87.643433%, 59.388733%, 53.910828%)" offset="0.453125"/><stop stop-opacity="1" stop-color="rgb(87.5%, 58.998108%, 54.301453%)" offset="0.460937"/><stop stop-opacity="1" stop-color="rgb(87.5%, 58.607483%, 54.498291%)" offset="0.46875"/><stop stop-opacity="1" stop-color="rgb(87.5%, 58.216858%, 54.6875%)" offset="0.476562"/><stop stop-opacity="1" stop-color="rgb(87.298584%, 57.809448%, 55.096436%)" offset="0.480469"/><stop stop-opacity="1" stop-color="rgb(87.098694%, 57.598877%, 55.317688%)" offset="0.484375"/><stop stop-opacity="1" stop-color="rgb(87.098694%, 57.595825%, 55.513%)" offset="0.492187"/><stop stop-opacity="1" stop-color="rgb(87.098694%, 57.446289%, 55.903625%)" offset="0.5"/><stop stop-opacity="1" stop-color="rgb(86.903381%, 57.104492%, 56.29425%)" offset="0.507812"/><stop stop-opacity="1" stop-color="rgb(86.703491%, 56.713867%, 56.684875%)" offset="0.515625"/><stop stop-opacity="1" stop-color="rgb(86.698914%, 56.297302%, 57.089233%)" offset="0.519531"/><stop stop-opacity="1" stop-color="rgb(86.698914%, 56.077576%, 57.299805%)" offset="0.523438"/><stop stop-opacity="1" stop-color="rgb(86.69281%, 55.882263%, 57.304382%)" offset="0.53125"/><stop stop-opacity="1" stop-color="rgb(86.49292%, 55.491638%, 57.455444%)" offset="0.539062"/><stop stop-opacity="1" stop-color="rgb(86.299133%, 55.101013%, 57.797241%)" offset="0.546875"/><stop stop-opacity="1" stop-color="rgb(86.299133%, 54.710388%, 58.187866%)" offset="0.554688"/><stop stop-opacity="1" stop-color="rgb(86.11145%, 54.319763%, 58.578491%)" offset="0.5625"/><stop stop-opacity="1" stop-color="rgb(85.91156%, 53.910828%, 58.99353%)" offset="0.566406"/><stop stop-opacity="1" stop-color="rgb(85.899353%, 53.69873%, 59.214783%)" offset="0.570312"/><stop stop-opacity="1" stop-color="rgb(85.899353%, 53.695679%, 59.407043%)" offset="0.578125"/><stop stop-opacity="1" stop-color="rgb(85.899353%, 53.497314%, 59.599304%)" offset="0.585938"/><stop stop-opacity="1" stop-color="rgb(85.705566%, 53.106689%, 59.793091%)" offset="0.59375"/><stop stop-opacity="1" stop-color="rgb(85.505676%, 52.716064%, 60.18219%)" offset="0.601562"/><stop stop-opacity="1" stop-color="rgb(85.499573%, 52.349854%, 60.597229%)" offset="0.605469"/><stop stop-opacity="1" stop-color="rgb(85.499573%, 52.180481%, 60.818481%)" offset="0.609375"/><stop stop-opacity="1" stop-color="rgb(85.494995%, 51.985168%, 61.013794%)" offset="0.617188"/><stop stop-opacity="1" stop-color="rgb(85.295105%, 51.594543%, 61.404419%)" offset="0.625"/><stop stop-opacity="1" stop-color="rgb(85.099792%, 51.203918%, 61.795044%)" offset="0.632812"/><stop stop-opacity="1" stop-color="rgb(85.099792%, 50.813293%, 62.185669%)" offset="0.640625"/><stop stop-opacity="1" stop-color="rgb(84.898376%, 50.396729%, 62.397766%)" offset="0.644531"/><stop stop-opacity="1" stop-color="rgb(84.698486%, 50.177002%, 62.416077%)" offset="0.648438"/><stop stop-opacity="1" stop-color="rgb(84.698486%, 49.987793%, 62.564087%)" offset="0.65625"/><stop stop-opacity="1" stop-color="rgb(84.698486%, 49.797058%, 62.90741%)" offset="0.664062"/><stop stop-opacity="1" stop-color="rgb(84.698486%, 49.60022%, 63.298035%)" offset="0.671875"/><stop stop-opacity="1" stop-color="rgb(84.506226%, 49.209595%, 63.68866%)" offset="0.679688"/><stop stop-opacity="1" stop-color="rgb(84.306335%, 48.81897%, 64.079285%)" offset="0.6875"/><stop stop-opacity="1" stop-color="rgb(84.298706%, 48.403931%, 64.494324%)" offset="0.691406"/><stop stop-opacity="1" stop-color="rgb(84.298706%, 48.184204%, 64.715576%)" offset="0.695312"/><stop stop-opacity="1" stop-color="rgb(84.295654%, 47.988892%, 64.906311%)" offset="0.703125"/><stop stop-opacity="1" stop-color="rgb(84.09729%, 47.648621%, 65.098572%)" offset="0.710938"/><stop stop-opacity="1" stop-color="rgb(83.900452%, 47.306824%, 65.292358%)" offset="0.71875"/><stop stop-opacity="1" stop-color="rgb(83.898926%, 46.916199%, 65.681458%)" offset="0.726562"/><stop stop-opacity="1" stop-color="rgb(83.699036%, 46.499634%, 66.096497%)" offset="0.730469"/><stop stop-opacity="1" stop-color="rgb(83.499146%, 46.279907%, 66.317749%)" offset="0.734375"/><stop stop-opacity="1" stop-color="rgb(83.499146%, 46.089172%, 66.513062%)" offset="0.742188"/><stop stop-opacity="1" stop-color="rgb(83.499146%, 45.899963%, 66.903687%)" offset="0.75"/><stop stop-opacity="1" stop-color="rgb(83.499146%, 45.704651%, 67.294312%)" offset="0.757812"/><stop stop-opacity="1" stop-color="rgb(83.308411%, 45.314026%, 67.494202%)" offset="0.765625"/><stop stop-opacity="1" stop-color="rgb(83.108521%, 44.897461%, 67.658997%)" offset="0.769531"/><stop stop-opacity="1" stop-color="rgb(83.099365%, 44.677734%, 67.82074%)" offset="0.773437"/><stop stop-opacity="1" stop-color="rgb(83.099365%, 44.482422%, 68.016052%)" offset="0.78125"/><stop stop-opacity="1" stop-color="rgb(83.097839%, 44.091797%, 68.406677%)" offset="0.789062"/><stop stop-opacity="1" stop-color="rgb(82.901001%, 43.701172%, 68.797302%)" offset="0.796875"/><stop stop-opacity="1" stop-color="rgb(82.702637%, 43.310547%, 69.187927%)" offset="0.804687"/><stop stop-opacity="1" stop-color="rgb(82.699585%, 42.919922%, 69.578552%)" offset="0.8125"/><stop stop-opacity="1" stop-color="rgb(82.548523%, 42.553711%, 69.985962%)" offset="0.816406"/><stop stop-opacity="1" stop-color="rgb(82.398987%, 42.384338%, 70.199585%)" offset="0.820312"/><stop stop-opacity="1" stop-color="rgb(82.398987%, 42.192078%, 70.202637%)" offset="0.828125"/><stop stop-opacity="1" stop-color="rgb(82.398987%, 41.999817%, 70.401001%)" offset="0.835937"/><stop stop-opacity="1" stop-color="rgb(82.398987%, 41.80603%, 70.791626%)" offset="0.84375"/><stop stop-opacity="1" stop-color="rgb(82.209778%, 41.416931%, 71.182251%)" offset="0.851562"/><stop stop-opacity="1" stop-color="rgb(82.009888%, 41.000366%, 71.59729%)" offset="0.855469"/><stop stop-opacity="1" stop-color="rgb(81.999207%, 40.78064%, 71.818542%)" offset="0.859375"/><stop stop-opacity="1" stop-color="rgb(81.999207%, 40.585327%, 72.012329%)" offset="0.867187"/><stop stop-opacity="1" stop-color="rgb(81.999207%, 40.194702%, 72.3526%)" offset="0.875"/><stop stop-opacity="1" stop-color="rgb(81.803894%, 39.804077%, 72.694397%)" offset="0.882812"/><stop stop-opacity="1" stop-color="rgb(81.604004%, 39.413452%, 72.894287%)" offset="0.890625"/><stop stop-opacity="1" stop-color="rgb(81.588745%, 38.996887%, 73.109436%)" offset="0.894531"/><stop stop-opacity="1" stop-color="rgb(81.578064%, 38.777161%, 73.321533%)" offset="0.898437"/><stop stop-opacity="1" stop-color="rgb(81.388855%, 38.581848%, 73.516846%)" offset="0.90625"/><stop stop-opacity="1" stop-color="rgb(81.199646%, 38.192749%, 73.907471%)" offset="0.914062"/><stop stop-opacity="1" stop-color="rgb(81.199646%, 37.998962%, 74.298096%)" offset="0.921875"/><stop stop-opacity="1" stop-color="rgb(81.199646%, 37.806702%, 74.688721%)" offset="0.929687"/><stop stop-opacity="1" stop-color="rgb(81.011963%, 37.466431%, 75.079346%)" offset="0.9375"/><stop stop-opacity="1" stop-color="rgb(80.812073%, 37.10022%, 75.294495%)" offset="0.941406"/><stop stop-opacity="1" stop-color="rgb(80.799866%, 36.883545%, 75.314331%)" offset="0.945312"/><stop stop-opacity="1" stop-color="rgb(80.799866%, 36.688232%, 75.509644%)" offset="0.953125"/><stop stop-opacity="1" stop-color="rgb(80.799866%, 36.297607%, 75.900269%)" offset="0.960937"/><stop stop-opacity="1" stop-color="rgb(80.606079%, 35.906982%, 76.290894%)" offset="0.96875"/><stop stop-opacity="1" stop-color="rgb(80.404663%, 35.516357%, 76.681519%)" offset="0.976562"/><stop stop-opacity="1" stop-color="rgb(80.389404%, 35.099792%, 77.095032%)" offset="0.980469"/><stop stop-opacity="1" stop-color="rgb(80.380249%, 34.880066%, 77.313232%)" offset="0.984375"/><stop stop-opacity="1" stop-color="rgb(80.189514%, 34.684753%, 77.461243%)" offset="0.992188"/><stop stop-opacity="1" stop-color="rgb(79.998779%, 34.294128%, 77.804565%)" offset="1"/></linearGradient></defs><g clip-path="url(#aafdc44cd2)"><g clip-path="url(#1063c2f33f)"><g clip-path="url(#c2c8947bd7)"><path fill="url(#a050b95d1d)" d="M 355.515625 12.929688 L 19.515625 12.929688 L 19.515625 348.929688 L 355.515625 348.929688 Z M 355.515625 12.929688 " fill-rule="nonzero"/></g></g></g></svg>