<svg xmlns="http://www.w3.org/2000/svg" xmlns:xlink="http://www.w3.org/1999/xlink" width="500" zoomAndPan="magnify" viewBox="0 0 375 374.999991" height="500" preserveAspectRatio="xMidYMid meet" version="1.0"><defs><clipPath id="1f3f60c4a5"><path d="M 44.238281 32.121094 L 346 32.121094 L 346 357.621094 L 44.238281 357.621094 Z M 44.238281 32.121094 " clip-rule="nonzero"/></clipPath><clipPath id="b608147114"><path d="M 156.503906 109.492188 L 156.503906 34.707031 C 156.503906 33.960938 156.179688 33.25 155.617188 32.757812 C 155.054688 32.269531 154.308594 32.039062 153.566406 32.148438 L 66.964844 44.191406 C 66.867188 44.203125 66.789062 44.253906 66.699219 44.277344 C 66.5625 44.3125 66.429688 44.355469 66.292969 44.410156 C 66.113281 44.492188 65.953125 44.59375 65.800781 44.707031 C 65.730469 44.761719 65.644531 44.777344 65.582031 44.835938 L 45.632812 62.988281 C 45.09375 63.480469 44.789062 64.171875 44.789062 64.898438 L 44.789062 133.050781 C 44.789062 134.335938 45.730469 135.425781 47 135.609375 L 53.117188 136.492188 L 53.117188 342.175781 C 53.117188 343.226562 53.75 344.167969 54.722656 344.566406 L 75.242188 352.980469 C 75.277344 352.996094 75.316406 352.988281 75.351562 353.003906 C 75.628906 353.105469 75.914062 353.171875 76.203125 353.171875 C 76.207031 353.171875 76.210938 353.175781 76.21875 353.175781 C 76.335938 353.175781 76.449219 353.136719 76.5625 353.121094 C 76.695312 353.105469 76.828125 353.101562 76.957031 353.066406 C 77.160156 353.007812 77.347656 352.90625 77.53125 352.800781 C 77.5625 352.777344 77.601562 352.773438 77.628906 352.753906 L 77.632812 352.75 C 77.636719 352.746094 77.640625 352.746094 77.644531 352.742188 L 90.496094 344.339844 C 91.226562 343.859375 91.664062 343.046875 91.664062 342.175781 L 91.664062 223.941406 L 132.578125 230.984375 L 132.578125 294.898438 C 132.578125 295.945312 133.210938 296.886719 134.179688 297.285156 L 154.703125 305.699219 C 154.738281 305.714844 154.777344 305.707031 154.8125 305.722656 C 155.089844 305.824219 155.375 305.890625 155.664062 305.890625 C 155.667969 305.890625 155.671875 305.894531 155.679688 305.894531 C 155.796875 305.894531 155.910156 305.859375 156.023438 305.84375 C 156.15625 305.824219 156.289062 305.820312 156.417969 305.785156 C 156.621094 305.726562 156.808594 305.628906 156.988281 305.519531 C 157.023438 305.5 157.058594 305.492188 157.089844 305.472656 L 157.09375 305.46875 C 157.097656 305.46875 157.101562 305.464844 157.105469 305.460938 L 169.957031 297.058594 C 170.6875 296.582031 171.125 295.765625 171.125 294.898438 L 171.125 237.625 L 250.867188 251.355469 L 250.867188 346.625 C 250.867188 347.675781 251.5 348.617188 252.472656 349.015625 L 272.988281 357.429688 C 273.023438 357.445312 273.0625 357.4375 273.097656 357.449219 C 273.375 357.550781 273.664062 357.617188 273.953125 357.621094 C 273.957031 357.621094 273.960938 357.621094 273.96875 357.621094 C 274.164062 357.621094 274.355469 357.582031 274.542969 357.539062 C 274.597656 357.523438 274.65625 357.53125 274.707031 357.511719 C 274.953125 357.4375 275.179688 357.332031 275.394531 357.1875 C 275.394531 357.1875 275.398438 357.1875 275.398438 357.1875 L 288.042969 348.773438 C 288.761719 348.292969 289.191406 347.484375 289.191406 346.621094 L 289.191406 327.226562 L 302.550781 332.703125 C 302.585938 332.71875 302.625 332.710938 302.664062 332.726562 C 302.941406 332.824219 303.226562 332.890625 303.511719 332.894531 C 303.515625 332.894531 303.523438 332.898438 303.53125 332.898438 C 303.585938 332.898438 303.636719 332.875 303.6875 332.875 C 303.875 332.863281 304.066406 332.84375 304.253906 332.792969 C 304.359375 332.761719 304.453125 332.703125 304.554688 332.65625 C 304.671875 332.605469 304.792969 332.570312 304.90625 332.503906 L 318.46875 323.984375 C 319.222656 323.507812 319.679688 322.6875 319.679688 321.792969 L 319.679688 197.871094 L 337.042969 198.875 C 337.09375 198.875 337.144531 198.875 337.191406 198.875 C 337.191406 198.875 337.191406 198.875 337.195312 198.875 C 337.195312 198.875 337.195312 198.875 337.199219 198.875 C 342.035156 198.871094 345.820312 194.082031 345.820312 187.96875 C 345.820312 181.886719 342.070312 177.121094 337.273438 177.066406 C 337.257812 177.066406 337.242188 177.058594 337.226562 177.058594 L 319.679688 176.816406 L 319.679688 144.519531 C 319.679688 144.488281 319.660156 144.457031 319.65625 144.425781 C 319.65625 144.324219 319.632812 144.230469 319.617188 144.128906 C 319.59375 143.992188 319.5625 143.859375 319.519531 143.726562 C 319.484375 143.628906 319.460938 143.527344 319.417969 143.429688 C 319.40625 143.398438 319.40625 143.367188 319.390625 143.335938 C 319.363281 143.285156 319.3125 143.253906 319.28125 143.199219 C 319.210938 143.085938 319.132812 142.988281 319.046875 142.882812 C 318.972656 142.796875 318.90625 142.707031 318.820312 142.628906 C 318.75 142.566406 318.679688 142.515625 318.605469 142.460938 C 318.503906 142.390625 318.402344 142.332031 318.292969 142.273438 C 318.1875 142.21875 318.09375 142.164062 317.980469 142.121094 C 317.886719 142.085938 317.792969 142.066406 317.691406 142.039062 C 317.636719 142.027344 317.589844 141.988281 317.53125 141.980469 L 150.550781 113.222656 L 154.675781 111.960938 C 155.761719 111.628906 156.503906 110.628906 156.503906 109.492188 Z M 151.339844 37.671875 L 151.339844 84.953125 L 145.410156 86.628906 L 145.410156 48.023438 C 145.410156 47.269531 145.082031 46.550781 144.503906 46.058594 C 143.929688 45.570312 143.171875 45.355469 142.421875 45.472656 L 78.410156 55.617188 C 77.15625 55.816406 76.230469 56.898438 76.230469 58.171875 L 76.230469 106.183594 L 69.902344 107.972656 L 69.902344 49 Z M 140.246094 88.089844 L 81.394531 104.726562 L 81.394531 60.375 L 140.246094 51.046875 Z M 49.953125 66.042969 L 64.738281 52.589844 L 64.738281 132.949219 L 49.953125 130.8125 Z M 66.949219 138.488281 C 67.070312 138.507812 67.195312 138.515625 67.316406 138.515625 C 67.316406 138.515625 67.320312 138.515625 67.320312 138.515625 C 67.320312 138.515625 67.320312 138.515625 67.324219 138.515625 C 67.328125 138.515625 67.332031 138.511719 67.332031 138.511719 C 67.582031 138.511719 67.832031 138.476562 68.074219 138.402344 L 76.230469 135.910156 L 76.230469 151.6875 C 76.230469 152.945312 77.136719 154.019531 78.375 154.230469 L 175.613281 170.976562 C 169.988281 172.3125 164.09375 174.503906 159.542969 178.101562 C 153.140625 183.171875 148.894531 190.15625 145.144531 196.3125 C 142.015625 201.453125 139.0625 206.308594 135.535156 208.835938 C 130.296875 212.585938 120.71875 213.925781 116.890625 211.449219 C 116.046875 210.902344 115.234375 210.0625 115.65625 208.007812 C 116 206.3125 116.796875 205.933594 120.359375 204.933594 C 123.121094 204.15625 126.5625 203.191406 130.34375 200.554688 C 135.148438 197.207031 136.183594 192.566406 137.183594 188.082031 C 137.527344 186.535156 137.882812 184.9375 138.398438 183.417969 C 139.816406 179.226562 143.097656 175.746094 143.136719 175.710938 C 143.890625 174.917969 144.0625 173.730469 143.566406 172.753906 C 143.066406 171.777344 141.988281 171.214844 140.917969 171.371094 C 140.636719 171.40625 133.894531 172.363281 128.480469 176.503906 C 126.558594 177.96875 124.972656 179.808594 123.4375 181.585938 C 121.285156 184.082031 119.25 186.4375 116.898438 186.957031 C 112.636719 187.898438 110.414062 186.78125 107.605469 185.367188 C 104.320312 183.710938 100.234375 181.648438 92.808594 183.214844 C 86.328125 184.582031 81.8125 187.710938 78.804688 190.683594 L 78.804688 184.742188 C 78.804688 183.484375 77.890625 182.40625 76.648438 182.195312 L 58.28125 179.105469 L 58.28125 137.234375 Z M 139.964844 129.851562 L 257.03125 150.011719 L 241.472656 158.578125 L 117.898438 137.296875 Z M 309.066406 145.761719 L 273.554688 164.101562 L 249.632812 159.980469 L 283.464844 141.351562 Z M 90.09375 218.425781 C 89.785156 218.296875 89.445312 218.222656 89.085938 218.222656 C 89.054688 218.222656 89.03125 218.234375 89 218.238281 L 78.804688 216.480469 L 78.804688 199.054688 C 79.800781 197.207031 84.105469 190.328125 93.875 188.269531 C 99.527344 187.074219 102.191406 188.425781 105.28125 189.980469 C 108.40625 191.554688 111.941406 193.34375 118.007812 192.003906 C 122.035156 191.117188 124.734375 187.992188 127.347656 184.964844 C 128.773438 183.316406 130.117188 181.753906 131.617188 180.609375 C 132.644531 179.820312 133.753906 179.171875 134.84375 178.648438 C 134.339844 179.617188 133.875 180.664062 133.503906 181.761719 C 132.902344 183.542969 132.511719 185.28125 132.140625 186.960938 C 131.25 190.960938 130.542969 194.121094 127.390625 196.320312 C 124.324219 198.457031 121.472656 199.257812 118.957031 199.964844 C 115.339844 200.980469 111.597656 202.035156 110.59375 206.976562 C 109.832031 210.707031 111.070312 213.835938 114.078125 215.789062 C 120.269531 219.800781 132.105469 217.648438 138.539062 213.039062 C 142.925781 209.898438 146.144531 204.605469 149.554688 199 C 153.253906 192.929688 157.070312 186.652344 162.75 182.15625 C 168.492188 177.605469 177.121094 175.617188 183.839844 174.75 C 178.179688 178.757812 171.554688 184.488281 169.613281 190.417969 C 167.664062 196.375 168.164062 199.28125 168.570312 201.617188 C 168.863281 203.304688 169.074219 204.523438 168.238281 207.078125 C 167.5 209.320312 165.15625 211.21875 163.085938 212.898438 C 160.738281 214.804688 158.515625 216.605469 158.390625 219.191406 C 158.300781 221.128906 158.835938 222.695312 159.984375 223.855469 C 161.90625 225.792969 165 225.917969 167.152344 225.820312 C 181.316406 225.261719 185.433594 217.390625 189.0625 210.449219 C 190.992188 206.753906 192.820312 203.261719 196.035156 200.632812 C 201.101562 196.5 208.324219 194.820312 213.886719 194.148438 C 210.785156 196.96875 207.671875 200.71875 206.832031 204.914062 C 205.957031 209.273438 206.234375 211.457031 206.457031 213.214844 C 206.636719 214.652344 206.769531 215.6875 206.175781 218.015625 C 204.933594 222.863281 200.128906 226.75 200.085938 226.785156 C 199.457031 227.285156 199.09375 228.050781 199.109375 228.855469 C 199.125 229.664062 199.511719 230.414062 200.160156 230.890625 C 205 234.453125 217.140625 239.152344 228.433594 231.480469 C 236.972656 225.671875 236.71875 220.039062 236.492188 215.066406 C 236.34375 211.730469 236.203125 208.582031 238.597656 204.851562 C 242.378906 198.964844 251.042969 198.101562 256.417969 198.1875 C 250.65625 205.867188 239.996094 222.976562 249.6875 233.964844 C 252.320312 236.941406 255.695312 237.984375 259.128906 237.984375 C 263.628906 237.984375 268.222656 236.199219 271.382812 234.644531 L 271.382812 249.648438 Z M 271.386719 187.46875 L 271.386719 228.769531 C 268.03125 230.691406 258.113281 235.691406 253.570312 230.542969 C 245.664062 221.585938 258.023438 203.792969 263.453125 197.695312 C 264.078125 196.988281 264.273438 195.996094 263.953125 195.109375 C 263.636719 194.21875 262.863281 193.574219 261.929688 193.421875 C 261.109375 193.296875 241.765625 190.363281 234.253906 202.058594 C 230.972656 207.171875 231.175781 211.675781 231.339844 215.296875 C 231.546875 219.949219 231.683594 223.023438 225.53125 227.207031 C 217.664062 232.554688 209.921875 230.210938 205.953125 228.300781 C 207.84375 226.238281 210.214844 223.0625 211.179688 219.300781 C 212.019531 216.019531 211.796875 214.261719 211.582031 212.570312 C 211.390625 211.042969 211.191406 209.464844 211.898438 205.933594 C 212.964844 200.613281 220.675781 195.070312 223.558594 193.386719 C 224.546875 192.808594 225.035156 191.652344 224.765625 190.539062 C 224.492188 189.429688 223.527344 188.632812 222.382812 188.574219 C 221.625 188.539062 203.628906 187.769531 192.773438 196.632812 C 188.734375 199.933594 186.574219 204.0625 184.484375 208.058594 C 180.933594 214.855469 178.128906 220.222656 166.949219 220.660156 C 164.222656 220.753906 163.675781 220.242188 163.652344 220.222656 C 163.613281 220.1875 163.527344 219.972656 163.53125 219.578125 C 163.734375 219.03125 165.304688 217.757812 166.34375 216.917969 C 168.835938 214.894531 171.933594 212.378906 173.148438 208.695312 C 174.386719 204.917969 174.003906 202.699219 173.660156 200.738281 C 173.308594 198.695312 172.972656 196.761719 174.523438 192.027344 C 176.789062 185.117188 188.960938 177.199219 194.359375 174.207031 Z M 276.554688 168.367188 L 314.511719 148.765625 L 314.511719 160.429688 L 276.554688 180.964844 Z M 264.285156 146.015625 L 142.339844 125.015625 L 142.339844 117.050781 L 275.304688 139.945312 Z M 271.386719 168.96875 L 271.386719 182.226562 L 81.394531 149.507812 L 81.394531 136.25 Z M 58.285156 184.34375 L 73.640625 186.929688 L 73.640625 346.738281 L 58.285156 340.445312 Z M 86.503906 340.777344 L 78.804688 345.8125 L 78.804688 221.726562 L 86.503906 223.050781 Z M 137.742188 231.875 L 153.097656 234.519531 L 153.097656 299.457031 L 137.742188 293.164062 Z M 165.960938 293.5 L 158.265625 298.535156 L 158.265625 235.410156 L 165.960938 236.734375 Z M 256.035156 252.246094 L 271.386719 254.886719 L 271.386719 351.1875 L 256.035156 344.890625 Z M 276.554688 350.214844 L 276.554688 222.5 L 284.03125 218.015625 L 284.03125 345.242188 Z M 289.195312 245.855469 L 300.949219 238.183594 L 300.949219 326.46875 L 289.195312 321.652344 Z M 306.117188 325.644531 L 306.117188 204.773438 L 314.515625 199.734375 L 314.515625 320.375 Z M 329.894531 182.125 C 329.0625 183.808594 328.566406 185.796875 328.566406 187.96875 C 328.566406 189.917969 328.988281 191.707031 329.664062 193.273438 L 311.15625 192.203125 C 310.339844 191.496094 309.746094 189.984375 309.601562 188.179688 C 309.410156 185.691406 310.089844 183.238281 311.292969 181.875 Z M 337.214844 193.710938 L 337.152344 193.707031 C 335.527344 193.667969 333.734375 191.328125 333.734375 187.972656 C 333.734375 184.589844 335.558594 182.230469 337.195312 182.230469 C 338.832031 182.230469 340.65625 184.589844 340.65625 187.972656 C 340.65625 191.339844 338.847656 193.6875 337.214844 193.710938 Z M 310.347656 176.695312 C 309.808594 176.65625 309.21875 176.867188 308.761719 177.214844 C 305.777344 179.457031 304.085938 183.921875 304.453125 188.585938 C 304.765625 192.523438 306.441406 195.574219 309.050781 196.988281 L 302.203125 201.097656 C 302.113281 201.148438 302.0625 201.234375 301.980469 201.300781 C 301.839844 201.410156 301.707031 201.519531 301.589844 201.652344 C 301.480469 201.78125 301.398438 201.914062 301.316406 202.058594 C 301.238281 202.203125 301.167969 202.339844 301.113281 202.496094 C 301.054688 202.667969 301.027344 202.835938 301.007812 203.015625 C 300.992188 203.117188 300.949219 203.207031 300.949219 203.308594 L 300.949219 232.015625 L 289.191406 239.6875 L 289.191406 213.453125 C 289.191406 213.390625 289.164062 213.339844 289.160156 213.277344 C 289.148438 213.109375 289.105469 212.945312 289.058594 212.777344 C 289.011719 212.605469 288.964844 212.441406 288.882812 212.285156 C 288.859375 212.234375 288.859375 212.175781 288.828125 212.125 C 288.773438 212.035156 288.691406 211.984375 288.628906 211.90625 C 288.515625 211.761719 288.40625 211.628906 288.269531 211.507812 C 288.140625 211.402344 288.007812 211.316406 287.867188 211.238281 C 287.722656 211.15625 287.585938 211.085938 287.425781 211.035156 C 287.257812 210.976562 287.082031 210.949219 286.90625 210.929688 C 286.804688 210.914062 286.714844 210.867188 286.613281 210.867188 C 286.554688 210.867188 286.503906 210.898438 286.441406 210.902344 C 286.269531 210.914062 286.105469 210.957031 285.9375 211.003906 C 285.765625 211.050781 285.605469 211.097656 285.449219 211.179688 C 285.398438 211.207031 285.335938 211.207031 285.285156 211.238281 L 276.554688 216.472656 L 276.554688 186.832031 L 314.515625 166.300781 L 314.515625 176.75 Z M 137.175781 125.335938 L 107.195312 135.453125 L 88.355469 132.207031 L 137.171875 117.304688 L 137.171875 125.335938 Z M 69.902344 132.441406 L 69.902344 113.34375 L 151.339844 90.320312 L 151.339844 107.578125 Z M 290.140625 186.726562 C 285.671875 186.726562 282.164062 191.125 282.164062 196.742188 C 282.164062 202.355469 285.667969 206.753906 290.140625 206.753906 C 294.613281 206.753906 298.117188 202.355469 298.117188 196.742188 C 298.117188 191.125 294.613281 186.726562 290.140625 186.726562 Z M 290.140625 201.585938 C 288.8125 201.585938 287.332031 199.511719 287.332031 196.738281 C 287.332031 193.964844 288.8125 191.890625 290.140625 191.890625 C 291.46875 191.890625 292.953125 193.964844 292.953125 196.738281 C 292.953125 199.511719 291.46875 201.585938 290.140625 201.585938 Z M 290.140625 201.585938 " clip-rule="nonzero"/></clipPath><linearGradient x1="58.276001" gradientTransform="matrix(2.582804, 0, 0, 2.583333, 44.787738, 32.120059)" y1="-0.00000435807" x2="58.276001" gradientUnits="userSpaceOnUse" y2="125.999992" id="585468d6fc"><stop stop-opacity="1" stop-color="rgb(93.699646%, 79.598999%, 34.498596%)" offset="0"/><stop stop-opacity="1" stop-color="rgb(93.64624%, 79.420471%, 34.667969%)" offset="0.0078125"/><stop stop-opacity="1" stop-color="rgb(93.537903%, 79.064941%, 35.00824%)" offset="0.015625"/><stop stop-opacity="1" stop-color="rgb(93.431091%, 78.709412%, 35.348511%)" offset="0.0234375"/><stop stop-opacity="1" stop-color="rgb(93.32428%, 78.353882%, 35.688782%)" offset="0.03125"/><stop stop-opacity="1" stop-color="rgb(93.217468%, 77.998352%, 36.027527%)" offset="0.0390625"/><stop stop-opacity="1" stop-color="rgb(93.110657%, 77.642822%, 36.367798%)" offset="0.046875"/><stop stop-opacity="1" stop-color="rgb(93.003845%, 77.287292%, 36.708069%)" offset="0.0546875"/><stop stop-opacity="1" stop-color="rgb(92.897034%, 76.931763%, 37.046814%)" offset="0.0625"/><stop stop-opacity="1" stop-color="rgb(92.788696%, 76.577759%, 37.387085%)" offset="0.0703125"/><stop stop-opacity="1" stop-color="rgb(92.681885%, 76.222229%, 37.727356%)" offset="0.078125"/><stop stop-opacity="1" stop-color="rgb(92.575073%, 75.866699%, 38.067627%)" offset="0.0859375"/><stop stop-opacity="1" stop-color="rgb(92.468262%, 75.511169%, 38.406372%)" offset="0.09375"/><stop stop-opacity="1" stop-color="rgb(92.36145%, 75.15564%, 38.746643%)" offset="0.101563"/><stop stop-opacity="1" stop-color="rgb(92.254639%, 74.80011%, 39.086914%)" offset="0.109375"/><stop stop-opacity="1" stop-color="rgb(92.147827%, 74.44458%, 39.425659%)" offset="0.117188"/><stop stop-opacity="1" stop-color="rgb(92.03949%, 74.08905%, 39.76593%)" offset="0.125"/><stop stop-opacity="1" stop-color="rgb(91.932678%, 73.733521%, 40.106201%)" offset="0.132813"/><stop stop-opacity="1" stop-color="rgb(91.825867%, 73.377991%, 40.446472%)" offset="0.140625"/><stop stop-opacity="1" stop-color="rgb(91.719055%, 73.022461%, 40.785217%)" offset="0.148438"/><stop stop-opacity="1" stop-color="rgb(91.612244%, 72.666931%, 41.125488%)" offset="0.15625"/><stop stop-opacity="1" stop-color="rgb(91.505432%, 72.311401%, 41.465759%)" offset="0.164063"/><stop stop-opacity="1" stop-color="rgb(91.398621%, 71.955872%, 41.80603%)" offset="0.171875"/><stop stop-opacity="1" stop-color="rgb(91.290283%, 71.600342%, 42.144775%)" offset="0.179688"/><stop stop-opacity="1" stop-color="rgb(91.183472%, 71.244812%, 42.485046%)" offset="0.1875"/><stop stop-opacity="1" stop-color="rgb(91.07666%, 70.889282%, 42.825317%)" offset="0.195313"/><stop stop-opacity="1" stop-color="rgb(90.969849%, 70.533752%, 43.164062%)" offset="0.203125"/><stop stop-opacity="1" stop-color="rgb(90.863037%, 70.178223%, 43.504333%)" offset="0.210938"/><stop stop-opacity="1" stop-color="rgb(90.756226%, 69.822693%, 43.844604%)" offset="0.21875"/><stop stop-opacity="1" stop-color="rgb(90.649414%, 69.467163%, 44.184875%)" offset="0.226563"/><stop stop-opacity="1" stop-color="rgb(90.541077%, 69.111633%, 44.523621%)" offset="0.234375"/><stop stop-opacity="1" stop-color="rgb(90.434265%, 68.756104%, 44.863892%)" offset="0.242188"/><stop stop-opacity="1" stop-color="rgb(90.327454%, 68.400574%, 45.204163%)" offset="0.25"/><stop stop-opacity="1" stop-color="rgb(90.220642%, 68.04657%, 45.542908%)" offset="0.257813"/><stop stop-opacity="1" stop-color="rgb(90.113831%, 67.69104%, 45.883179%)" offset="0.265625"/><stop stop-opacity="1" stop-color="rgb(90.007019%, 67.33551%, 46.22345%)" offset="0.273438"/><stop stop-opacity="1" stop-color="rgb(89.900208%, 66.97998%, 46.563721%)" offset="0.28125"/><stop stop-opacity="1" stop-color="rgb(89.79187%, 66.624451%, 46.902466%)" offset="0.289063"/><stop stop-opacity="1" stop-color="rgb(89.685059%, 66.268921%, 47.242737%)" offset="0.296875"/><stop stop-opacity="1" stop-color="rgb(89.578247%, 65.913391%, 47.583008%)" offset="0.304688"/><stop stop-opacity="1" stop-color="rgb(89.471436%, 65.557861%, 47.921753%)" offset="0.3125"/><stop stop-opacity="1" stop-color="rgb(89.364624%, 65.202332%, 48.262024%)" offset="0.320313"/><stop stop-opacity="1" stop-color="rgb(89.257812%, 64.846802%, 48.602295%)" offset="0.328125"/><stop stop-opacity="1" stop-color="rgb(89.151001%, 64.491272%, 48.942566%)" offset="0.335938"/><stop stop-opacity="1" stop-color="rgb(89.042664%, 64.135742%, 49.281311%)" offset="0.34375"/><stop stop-opacity="1" stop-color="rgb(88.935852%, 63.780212%, 49.621582%)" offset="0.351563"/><stop stop-opacity="1" stop-color="rgb(88.829041%, 63.424683%, 49.961853%)" offset="0.359375"/><stop stop-opacity="1" stop-color="rgb(88.722229%, 63.069153%, 50.300598%)" offset="0.367188"/><stop stop-opacity="1" stop-color="rgb(88.615417%, 62.713623%, 50.640869%)" offset="0.375"/><stop stop-opacity="1" stop-color="rgb(88.508606%, 62.358093%, 50.98114%)" offset="0.382813"/><stop stop-opacity="1" stop-color="rgb(88.401794%, 62.002563%, 51.321411%)" offset="0.390625"/><stop stop-opacity="1" stop-color="rgb(88.293457%, 61.647034%, 51.660156%)" offset="0.398438"/><stop stop-opacity="1" stop-color="rgb(88.186646%, 61.291504%, 52.000427%)" offset="0.40625"/><stop stop-opacity="1" stop-color="rgb(88.079834%, 60.935974%, 52.340698%)" offset="0.414063"/><stop stop-opacity="1" stop-color="rgb(87.973022%, 60.580444%, 52.679443%)" offset="0.421875"/><stop stop-opacity="1" stop-color="rgb(87.866211%, 60.224915%, 53.019714%)" offset="0.429688"/><stop stop-opacity="1" stop-color="rgb(87.759399%, 59.870911%, 53.359985%)" offset="0.4375"/><stop stop-opacity="1" stop-color="rgb(87.652588%, 59.515381%, 53.700256%)" offset="0.445313"/><stop stop-opacity="1" stop-color="rgb(87.54425%, 59.159851%, 54.039001%)" offset="0.453125"/><stop stop-opacity="1" stop-color="rgb(87.437439%, 58.804321%, 54.379272%)" offset="0.460938"/><stop stop-opacity="1" stop-color="rgb(87.330627%, 58.448792%, 54.719543%)" offset="0.46875"/><stop stop-opacity="1" stop-color="rgb(87.223816%, 58.093262%, 55.059814%)" offset="0.476563"/><stop stop-opacity="1" stop-color="rgb(87.117004%, 57.737732%, 55.39856%)" offset="0.484375"/><stop stop-opacity="1" stop-color="rgb(87.010193%, 57.382202%, 55.738831%)" offset="0.492188"/><stop stop-opacity="1" stop-color="rgb(86.903381%, 57.026672%, 56.079102%)" offset="0.5"/><stop stop-opacity="1" stop-color="rgb(86.795044%, 56.671143%, 56.417847%)" offset="0.507812"/><stop stop-opacity="1" stop-color="rgb(86.688232%, 56.315613%, 56.758118%)" offset="0.515625"/><stop stop-opacity="1" stop-color="rgb(86.581421%, 55.960083%, 57.098389%)" offset="0.523438"/><stop stop-opacity="1" stop-color="rgb(86.474609%, 55.604553%, 57.43866%)" offset="0.53125"/><stop stop-opacity="1" stop-color="rgb(86.367798%, 55.249023%, 57.777405%)" offset="0.539062"/><stop stop-opacity="1" stop-color="rgb(86.260986%, 54.893494%, 58.117676%)" offset="0.546875"/><stop stop-opacity="1" stop-color="rgb(86.154175%, 54.537964%, 58.457947%)" offset="0.554688"/><stop stop-opacity="1" stop-color="rgb(86.045837%, 54.182434%, 58.796692%)" offset="0.5625"/><stop stop-opacity="1" stop-color="rgb(85.939026%, 53.826904%, 59.136963%)" offset="0.570312"/><stop stop-opacity="1" stop-color="rgb(85.832214%, 53.471375%, 59.477234%)" offset="0.578125"/><stop stop-opacity="1" stop-color="rgb(85.725403%, 53.115845%, 59.817505%)" offset="0.585938"/><stop stop-opacity="1" stop-color="rgb(85.618591%, 52.760315%, 60.15625%)" offset="0.59375"/><stop stop-opacity="1" stop-color="rgb(85.51178%, 52.404785%, 60.496521%)" offset="0.601562"/><stop stop-opacity="1" stop-color="rgb(85.404968%, 52.049255%, 60.836792%)" offset="0.609375"/><stop stop-opacity="1" stop-color="rgb(85.296631%, 51.693726%, 61.175537%)" offset="0.617188"/><stop stop-opacity="1" stop-color="rgb(85.189819%, 51.339722%, 61.515808%)" offset="0.625"/><stop stop-opacity="1" stop-color="rgb(85.083008%, 50.984192%, 61.856079%)" offset="0.632812"/><stop stop-opacity="1" stop-color="rgb(84.976196%, 50.628662%, 62.19635%)" offset="0.640625"/><stop stop-opacity="1" stop-color="rgb(84.869385%, 50.273132%, 62.535095%)" offset="0.648438"/><stop stop-opacity="1" stop-color="rgb(84.762573%, 49.917603%, 62.875366%)" offset="0.65625"/><stop stop-opacity="1" stop-color="rgb(84.655762%, 49.562073%, 63.215637%)" offset="0.664062"/><stop stop-opacity="1" stop-color="rgb(84.547424%, 49.206543%, 63.554382%)" offset="0.671875"/><stop stop-opacity="1" stop-color="rgb(84.440613%, 48.851013%, 63.894653%)" offset="0.679688"/><stop stop-opacity="1" stop-color="rgb(84.333801%, 48.495483%, 64.234924%)" offset="0.6875"/><stop stop-opacity="1" stop-color="rgb(84.22699%, 48.139954%, 64.575195%)" offset="0.695312"/><stop stop-opacity="1" stop-color="rgb(84.120178%, 47.784424%, 64.91394%)" offset="0.703125"/><stop stop-opacity="1" stop-color="rgb(84.013367%, 47.428894%, 65.254211%)" offset="0.710938"/><stop stop-opacity="1" stop-color="rgb(83.906555%, 47.073364%, 65.594482%)" offset="0.71875"/><stop stop-opacity="1" stop-color="rgb(83.798218%, 46.717834%, 65.933228%)" offset="0.726562"/><stop stop-opacity="1" stop-color="rgb(83.691406%, 46.362305%, 66.273499%)" offset="0.734375"/><stop stop-opacity="1" stop-color="rgb(83.584595%, 46.006775%, 66.61377%)" offset="0.742188"/><stop stop-opacity="1" stop-color="rgb(83.477783%, 45.651245%, 66.954041%)" offset="0.75"/><stop stop-opacity="1" stop-color="rgb(83.370972%, 45.295715%, 67.292786%)" offset="0.757812"/><stop stop-opacity="1" stop-color="rgb(83.26416%, 44.940186%, 67.633057%)" offset="0.765625"/><stop stop-opacity="1" stop-color="rgb(83.157349%, 44.584656%, 67.973328%)" offset="0.773438"/><stop stop-opacity="1" stop-color="rgb(83.049011%, 44.229126%, 68.313599%)" offset="0.78125"/><stop stop-opacity="1" stop-color="rgb(82.9422%, 43.873596%, 68.652344%)" offset="0.789062"/><stop stop-opacity="1" stop-color="rgb(82.835388%, 43.518066%, 68.992615%)" offset="0.796875"/><stop stop-opacity="1" stop-color="rgb(82.728577%, 43.162537%, 69.332886%)" offset="0.804688"/><stop stop-opacity="1" stop-color="rgb(82.621765%, 42.808533%, 69.671631%)" offset="0.8125"/><stop stop-opacity="1" stop-color="rgb(82.514954%, 42.453003%, 70.011902%)" offset="0.820312"/><stop stop-opacity="1" stop-color="rgb(82.408142%, 42.097473%, 70.352173%)" offset="0.828125"/><stop stop-opacity="1" stop-color="rgb(82.299805%, 41.741943%, 70.692444%)" offset="0.835938"/><stop stop-opacity="1" stop-color="rgb(82.192993%, 41.386414%, 71.031189%)" offset="0.84375"/><stop stop-opacity="1" stop-color="rgb(82.086182%, 41.030884%, 71.37146%)" offset="0.851562"/><stop stop-opacity="1" stop-color="rgb(81.97937%, 40.675354%, 71.711731%)" offset="0.859375"/><stop stop-opacity="1" stop-color="rgb(81.872559%, 40.319824%, 72.050476%)" offset="0.867188"/><stop stop-opacity="1" stop-color="rgb(81.765747%, 39.964294%, 72.390747%)" offset="0.875"/><stop stop-opacity="1" stop-color="rgb(81.658936%, 39.608765%, 72.731018%)" offset="0.882812"/><stop stop-opacity="1" stop-color="rgb(81.550598%, 39.253235%, 73.071289%)" offset="0.890625"/><stop stop-opacity="1" stop-color="rgb(81.443787%, 38.897705%, 73.410034%)" offset="0.898438"/><stop stop-opacity="1" stop-color="rgb(81.336975%, 38.542175%, 73.750305%)" offset="0.90625"/><stop stop-opacity="1" stop-color="rgb(81.230164%, 38.186646%, 74.090576%)" offset="0.914062"/><stop stop-opacity="1" stop-color="rgb(81.123352%, 37.831116%, 74.429321%)" offset="0.921875"/><stop stop-opacity="1" stop-color="rgb(81.016541%, 37.475586%, 74.769592%)" offset="0.929688"/><stop stop-opacity="1" stop-color="rgb(80.909729%, 37.120056%, 75.109863%)" offset="0.9375"/><stop stop-opacity="1" stop-color="rgb(80.801392%, 36.764526%, 75.450134%)" offset="0.945312"/><stop stop-opacity="1" stop-color="rgb(80.69458%, 36.408997%, 75.788879%)" offset="0.953125"/><stop stop-opacity="1" stop-color="rgb(80.587769%, 36.053467%, 76.12915%)" offset="0.960938"/><stop stop-opacity="1" stop-color="rgb(80.480957%, 35.697937%, 76.469421%)" offset="0.96875"/><stop stop-opacity="1" stop-color="rgb(80.374146%, 35.342407%, 76.808167%)" offset="0.976562"/><stop stop-opacity="1" stop-color="rgb(80.267334%, 34.986877%, 77.148438%)" offset="0.984375"/><stop stop-opacity="1" stop-color="rgb(80.160522%, 34.631348%, 77.488708%)" offset="0.992188"/><stop stop-opacity="1" stop-color="rgb(80.052185%, 34.277344%, 77.828979%)" offset="1"/></linearGradient></defs><g clip-path="url(#1f3f60c4a5)"><g clip-path="url(#b608147114)"><path fill="url(#585468d6fc)" d="M 44.789062 32.121094 L 44.789062 357.621094 L 345.820312 357.621094 L 345.820312 32.121094 Z M 44.789062 32.121094 " fill-rule="nonzero"/></g></g></svg>