<svg xmlns="http://www.w3.org/2000/svg" xmlns:xlink="http://www.w3.org/1999/xlink" width="500" zoomAndPan="magnify" viewBox="0 0 375 374.999991" height="500" preserveAspectRatio="xMidYMid meet" version="1.0"><defs><clipPath id="2e36cb3fda"><path d="M 12 14.925781 L 356 14.925781 L 356 342 L 12 342 Z M 12 14.925781 " clip-rule="nonzero"/></clipPath><clipPath id="db3274becc"><path d="M 286.765625 34.132812 L 82.046875 34.132812 C 80.542969 34.132812 79.324219 35.355469 79.324219 36.855469 L 79.324219 183.855469 C 79.324219 185.355469 80.542969 186.578125 82.046875 186.578125 L 286.761719 186.578125 C 288.265625 186.578125 289.484375 185.355469 289.484375 183.855469 L 289.484375 36.855469 C 289.484375 35.355469 288.265625 34.132812 286.765625 34.132812 Z M 218.203125 159.175781 L 201.699219 159.175781 L 201.699219 142.660156 L 218.203125 142.660156 Z M 223.644531 142.660156 L 240.148438 142.660156 L 240.148438 159.171875 L 223.644531 159.171875 Z M 245.589844 142.660156 L 262.09375 142.660156 L 262.09375 159.171875 L 245.589844 159.171875 Z M 267.539062 142.660156 L 284.042969 142.660156 L 284.042969 159.171875 L 267.539062 159.171875 Z M 84.765625 39.578125 L 284.042969 39.578125 L 284.042969 137.214844 L 198.976562 137.214844 C 197.476562 137.214844 196.253906 138.433594 196.253906 139.9375 L 196.253906 159.171875 L 177.03125 159.171875 C 175.527344 159.171875 174.308594 160.390625 174.308594 161.894531 L 174.308594 181.128906 L 162.628906 181.128906 L 162.628906 161.894531 C 162.628906 160.390625 161.410156 159.171875 159.90625 159.171875 L 140.683594 159.171875 L 140.683594 139.9375 C 140.683594 138.433594 139.464844 137.214844 137.960938 137.214844 L 116.015625 137.214844 C 114.511719 137.214844 113.292969 138.433594 113.292969 139.9375 L 113.292969 159.171875 L 94.105469 159.171875 C 92.601562 159.171875 91.382812 160.390625 91.382812 161.894531 L 91.382812 181.128906 L 84.765625 181.128906 Z M 135.238281 159.175781 L 118.734375 159.175781 L 118.734375 142.660156 L 135.238281 142.660156 Z M 118.773438 164.617188 L 135.238281 164.617188 L 135.238281 181.132812 L 118.773438 181.132812 Z M 96.824219 164.617188 L 113.292969 164.617188 L 113.292969 181.132812 L 96.824219 181.132812 Z M 140.679688 181.132812 L 140.679688 164.617188 L 157.183594 164.617188 L 157.183594 181.132812 Z M 179.75 164.617188 L 196.253906 164.617188 L 196.253906 181.132812 L 179.75 181.132812 Z M 201.699219 164.617188 L 218.203125 164.617188 L 218.203125 181.132812 L 201.699219 181.132812 Z M 223.644531 164.617188 L 240.148438 164.617188 L 240.148438 181.132812 L 223.644531 181.132812 Z M 245.589844 164.617188 L 262.09375 164.617188 L 262.09375 181.132812 L 245.589844 181.132812 Z M 284.042969 181.132812 L 267.539062 181.132812 L 267.539062 164.617188 L 284.042969 164.617188 Z M 62.570312 205.789062 L 306.242188 205.789062 C 307.742188 205.789062 308.960938 204.570312 308.960938 203.066406 L 308.960938 17.644531 C 308.960938 16.144531 307.742188 14.925781 306.242188 14.925781 L 62.570312 14.925781 C 61.066406 14.925781 59.847656 16.144531 59.847656 17.644531 L 59.847656 203.066406 C 59.847656 204.570312 61.066406 205.789062 62.570312 205.789062 Z M 65.289062 20.367188 L 303.519531 20.367188 L 303.519531 200.34375 L 65.289062 200.34375 Z M 153.578125 80.140625 L 131.640625 80.140625 C 130.140625 80.140625 128.921875 81.363281 128.921875 82.863281 L 128.921875 104.820312 C 128.921875 106.324219 130.140625 107.542969 131.640625 107.542969 L 150.859375 107.542969 L 150.859375 148.734375 C 150.859375 150.238281 152.078125 151.457031 153.578125 151.457031 L 175.527344 151.457031 C 177.027344 151.457031 178.246094 150.238281 178.246094 148.734375 L 178.246094 82.863281 C 178.246094 81.363281 177.027344 80.140625 175.527344 80.140625 Z M 172.808594 124.054688 L 156.304688 124.054688 L 156.304688 107.542969 L 172.808594 107.542969 Z M 134.363281 85.585938 L 150.859375 85.585938 L 150.859375 102.097656 L 134.363281 102.097656 Z M 172.808594 146.015625 L 156.304688 146.015625 L 156.304688 129.5 L 172.808594 129.5 Z M 172.808594 102.097656 L 156.3125 102.097656 L 156.3125 85.585938 L 172.808594 85.585938 Z M 102.414062 64.628906 C 102.6875 64.71875 102.972656 64.761719 103.253906 64.761719 C 103.539062 64.761719 103.820312 64.71875 104.09375 64.628906 C 109.71875 62.800781 114.726562 58.164062 116.007812 53.609375 C 116.761719 50.914062 116.230469 48.324219 114.503906 46.3125 C 112.785156 44.308594 110.257812 43.457031 107.570312 43.976562 C 105.988281 44.285156 104.480469 45.050781 103.257812 46.09375 C 102.03125 45.046875 100.523438 44.28125 98.945312 43.976562 C 96.253906 43.464844 93.730469 44.308594 92.007812 46.3125 C 90.285156 48.324219 89.75 50.914062 90.507812 53.613281 C 91.78125 58.164062 96.789062 62.800781 102.414062 64.628906 Z M 96.132812 49.859375 C 96.285156 49.6875 96.636719 49.273438 97.414062 49.273438 C 97.5625 49.273438 97.726562 49.285156 97.90625 49.324219 C 99.105469 49.554688 100.347656 50.539062 100.679688 51.511719 C 101.054688 52.617188 102.09375 53.359375 103.257812 53.359375 C 104.421875 53.359375 105.460938 52.617188 105.835938 51.511719 C 106.164062 50.539062 107.40625 49.554688 108.605469 49.324219 C 109.734375 49.097656 110.199219 49.652344 110.378906 49.859375 C 110.738281 50.28125 111.113281 50.921875 110.769531 52.140625 C 110.046875 54.722656 106.777344 57.726562 103.257812 59.144531 C 99.738281 57.726562 96.46875 54.722656 95.746094 52.140625 C 95.398438 50.921875 95.769531 50.28125 96.132812 49.859375 Z M 122.679688 61.542969 L 170.621094 61.542969 C 172.125 61.542969 173.34375 60.324219 173.34375 58.820312 L 173.34375 49.769531 C 173.34375 48.265625 172.125 47.046875 170.621094 47.046875 L 122.679688 47.046875 C 121.179688 47.046875 119.960938 48.265625 119.960938 49.769531 L 119.960938 58.824219 C 119.960938 60.328125 121.175781 61.542969 122.679688 61.542969 Z M 125.402344 52.488281 L 167.902344 52.488281 L 167.902344 56.101562 L 125.402344 56.101562 Z M 231.511719 59.839844 C 236.019531 59.839844 239.683594 56.171875 239.683594 51.664062 C 239.683594 47.15625 236.019531 43.492188 231.511719 43.492188 C 227.007812 43.492188 223.34375 47.15625 223.34375 51.664062 C 223.34375 56.171875 227.007812 59.839844 231.511719 59.839844 Z M 231.511719 48.933594 C 233.015625 48.933594 234.242188 50.15625 234.242188 51.664062 C 234.242188 53.167969 233.015625 54.394531 231.511719 54.394531 C 230.007812 54.394531 228.785156 53.167969 228.785156 51.664062 C 228.785156 50.15625 230.007812 48.933594 231.511719 48.933594 Z M 252.070312 59.839844 C 256.574219 59.839844 260.238281 56.171875 260.238281 51.664062 C 260.238281 47.15625 256.574219 43.492188 252.070312 43.492188 C 247.5625 43.492188 243.898438 47.15625 243.898438 51.664062 C 243.898438 56.171875 247.5625 59.839844 252.070312 59.839844 Z M 252.070312 48.933594 C 253.574219 48.933594 254.796875 50.15625 254.796875 51.664062 C 254.796875 53.167969 253.574219 54.394531 252.070312 54.394531 C 250.5625 54.394531 249.339844 53.171875 249.339844 51.664062 C 249.339844 50.160156 250.5625 48.933594 252.070312 48.933594 Z M 272.621094 59.839844 C 277.128906 59.839844 280.792969 56.171875 280.792969 51.664062 C 280.792969 47.15625 277.128906 43.492188 272.621094 43.492188 C 268.117188 43.492188 264.449219 47.15625 264.449219 51.664062 C 264.449219 56.171875 268.117188 59.839844 272.621094 59.839844 Z M 272.621094 48.933594 C 274.125 48.933594 275.351562 50.15625 275.351562 51.664062 C 275.351562 53.167969 274.125 54.394531 272.621094 54.394531 C 271.117188 54.394531 269.894531 53.167969 269.894531 51.664062 C 269.894531 50.15625 271.117188 48.933594 272.621094 48.933594 Z M 23.234375 340.097656 C 25.480469 341.085938 27.839844 341.566406 30.171875 341.566406 C 34.167969 341.566406 38.089844 340.148438 41.257812 337.410156 L 53.644531 326.714844 C 57.453125 323.429688 62.320312 321.617188 67.347656 321.617188 L 132.773438 321.617188 C 137.804688 321.617188 142.667969 323.429688 146.476562 326.714844 L 158.863281 337.410156 C 163.878906 341.746094 170.785156 342.777344 177.121094 339.996094 C 180.234375 338.632812 182.699219 336.394531 184.425781 333.710938 C 186.1875 336.421875 188.714844 338.695312 191.925781 340.101562 C 194.175781 341.085938 196.53125 341.570312 198.863281 341.570312 C 202.859375 341.570312 206.78125 340.152344 209.949219 337.414062 L 222.335938 326.71875 C 226.144531 323.429688 231.011719 321.621094 236.039062 321.621094 L 301.464844 321.621094 C 306.496094 321.621094 311.359375 323.429688 315.167969 326.71875 L 327.554688 337.414062 C 332.574219 341.75 339.476562 342.78125 345.816406 339.996094 C 353.519531 336.621094 357.523438 328.015625 355.125 319.972656 C 348.65625 298.265625 331.539062 247.777344 312.386719 247.777344 C 306.730469 247.777344 301.9375 250.582031 298.515625 255.886719 C 297.203125 257.925781 294.988281 259.144531 292.59375 259.144531 L 282.355469 259.144531 L 282.355469 228.667969 C 282.355469 227.164062 281.136719 225.945312 279.636719 225.945312 L 89.175781 225.945312 C 87.675781 225.945312 86.457031 227.164062 86.457031 228.667969 L 86.457031 259.136719 L 76.21875 259.136719 C 73.824219 259.136719 71.609375 257.917969 70.296875 255.878906 C 66.875 250.578125 62.082031 247.773438 56.425781 247.773438 C 37.273438 247.773438 20.15625 298.257812 13.6875 319.96875 C 11.289062 328.007812 15.292969 336.617188 23.234375 340.097656 Z M 196.578125 280.890625 L 172.230469 280.890625 C 167.171875 269.65625 161.257812 259.265625 154.867188 253.21875 L 213.945312 253.21875 C 207.554688 259.265625 201.636719 269.65625 196.578125 280.890625 Z M 194.21875 286.335938 C 190.230469 295.871094 186.882812 305.574219 184.40625 313.378906 C 181.929688 305.570312 178.582031 295.867188 174.59375 286.335938 Z M 303.085938 258.832031 C 305.488281 255.105469 308.617188 253.21875 312.382812 253.21875 C 322.648438 253.21875 337.730469 280.664062 349.90625 321.523438 C 351.519531 326.933594 348.820312 332.734375 343.390625 335.113281 C 339.226562 336.933594 334.519531 336.234375 331.105469 333.289062 L 318.71875 322.59375 C 313.925781 318.453125 307.792969 316.171875 301.460938 316.171875 L 236.039062 316.171875 C 229.707031 316.171875 223.574219 318.453125 218.78125 322.59375 L 206.394531 333.289062 C 202.980469 336.238281 198.273438 336.9375 193.871094 335.003906 C 188.679688 332.734375 185.980469 326.933594 187.59375 321.523438 C 191.765625 307.515625 196.28125 295.089844 200.828125 284.800781 C 200.867188 284.71875 200.90625 284.640625 200.9375 284.554688 C 209.613281 264.976562 218.394531 253.21875 225.113281 253.21875 C 228.882812 253.21875 232.011719 255.105469 234.410156 258.832031 C 236.730469 262.433594 240.65625 264.582031 244.90625 264.582031 L 292.585938 264.582031 C 296.84375 264.582031 300.765625 262.433594 303.085938 258.832031 Z M 276.914062 259.136719 L 244.914062 259.136719 C 242.519531 259.136719 240.304688 257.917969 238.988281 255.878906 C 238.355469 254.898438 237.660156 254.027344 236.933594 253.21875 L 245.8125 253.21875 C 247.316406 253.21875 248.535156 252 248.535156 250.496094 L 248.535156 231.386719 L 276.914062 231.386719 Z M 243.09375 231.386719 L 243.09375 247.777344 L 125.71875 247.777344 L 125.71875 231.386719 Z M 91.898438 231.386719 L 120.277344 231.386719 L 120.277344 250.5 C 120.277344 252 121.496094 253.21875 123 253.21875 L 131.878906 253.21875 C 131.152344 254.027344 130.457031 254.898438 129.824219 255.882812 C 128.507812 257.925781 126.292969 259.140625 123.902344 259.140625 L 91.898438 259.140625 Z M 18.898438 321.523438 C 31.078125 280.667969 46.15625 253.21875 56.421875 253.21875 C 60.191406 253.21875 63.320312 255.105469 65.71875 258.832031 C 68.042969 262.433594 71.964844 264.582031 76.21875 264.582031 L 123.898438 264.582031 C 128.148438 264.582031 132.074219 262.433594 134.394531 258.832031 C 136.792969 255.105469 139.921875 253.21875 143.691406 253.21875 C 150.410156 253.21875 159.191406 264.976562 167.871094 284.554688 C 167.902344 284.640625 167.941406 284.71875 167.976562 284.800781 C 172.523438 295.089844 177.039062 307.515625 181.210938 321.523438 C 182.824219 326.933594 180.125 332.734375 174.695312 335.113281 C 170.527344 336.933594 165.824219 336.234375 162.410156 333.289062 L 150.023438 322.59375 C 145.230469 318.453125 139.097656 316.171875 132.765625 316.171875 L 67.347656 316.171875 C 61.011719 316.171875 54.882812 318.453125 50.089844 322.59375 L 37.703125 333.289062 C 34.289062 336.238281 29.582031 336.9375 25.175781 335.003906 C 19.984375 332.734375 17.289062 326.933594 18.898438 321.523438 Z M 113.285156 301.445312 C 113.285156 306.800781 117.640625 311.160156 122.996094 311.160156 C 128.351562 311.160156 132.707031 306.800781 132.707031 301.445312 C 132.707031 296.085938 128.351562 291.726562 122.996094 291.726562 C 117.640625 291.726562 113.285156 296.085938 113.285156 301.445312 Z M 122.996094 297.171875 C 125.351562 297.171875 127.265625 299.089844 127.265625 301.445312 C 127.265625 303.796875 125.351562 305.714844 122.996094 305.714844 C 120.644531 305.714844 118.726562 303.796875 118.726562 301.445312 C 118.726562 299.089844 120.644531 297.171875 122.996094 297.171875 Z M 64.605469 301.445312 C 64.605469 306.800781 68.960938 311.160156 74.316406 311.160156 C 79.671875 311.160156 84.027344 306.800781 84.027344 301.445312 C 84.027344 296.085938 79.671875 291.726562 74.316406 291.726562 C 68.960938 291.726562 64.605469 296.085938 64.605469 301.445312 Z M 74.316406 297.171875 C 76.667969 297.171875 78.585938 299.089844 78.585938 301.445312 C 78.585938 303.796875 76.667969 305.714844 74.316406 305.714844 C 71.960938 305.714844 70.046875 303.796875 70.046875 301.445312 C 70.046875 299.089844 71.960938 297.171875 74.316406 297.171875 Z M 81.988281 287.65625 L 115.414062 287.65625 C 116.914062 287.65625 118.136719 286.4375 118.136719 284.933594 L 118.136719 271.460938 C 118.136719 269.957031 116.914062 268.738281 115.414062 268.738281 L 81.988281 268.738281 C 80.488281 268.738281 79.269531 269.957031 79.269531 271.460938 L 79.269531 284.933594 C 79.269531 286.4375 80.488281 287.65625 81.988281 287.65625 Z M 84.710938 274.179688 L 112.691406 274.179688 L 112.691406 282.210938 L 84.710938 282.210938 Z M 53.472656 273.210938 L 53.472656 266.855469 C 53.472656 265.351562 54.691406 264.132812 56.195312 264.132812 C 57.695312 264.132812 58.914062 265.351562 58.914062 266.855469 L 58.914062 273.210938 C 58.914062 274.710938 57.695312 275.929688 56.195312 275.929688 C 54.691406 275.929688 53.472656 274.710938 53.472656 273.210938 Z M 40.914062 278.851562 C 40.914062 277.347656 42.132812 276.128906 43.636719 276.128906 L 49.984375 276.128906 C 51.488281 276.128906 52.707031 277.347656 52.707031 278.851562 C 52.707031 280.351562 51.488281 281.570312 49.984375 281.570312 L 43.636719 281.570312 C 42.132812 281.570312 40.914062 280.351562 40.914062 278.851562 Z M 52.90625 291.414062 L 52.90625 285.0625 C 52.90625 283.558594 54.125 282.339844 55.625 282.339844 C 57.128906 282.339844 58.347656 283.558594 58.347656 285.0625 L 58.347656 291.414062 C 58.347656 292.917969 57.128906 294.136719 55.625 294.136719 C 54.125 294.136719 52.90625 292.921875 52.90625 291.414062 Z M 59.113281 279.421875 C 59.113281 277.917969 60.332031 276.699219 61.835938 276.699219 L 68.1875 276.699219 C 69.6875 276.699219 70.90625 277.917969 70.90625 279.421875 C 70.90625 280.925781 69.6875 282.144531 68.1875 282.144531 L 61.835938 282.144531 C 60.332031 282.144531 59.113281 280.925781 59.113281 279.421875 Z M 138.300781 271.019531 C 138.300781 268.765625 140.128906 266.933594 142.382812 266.933594 C 144.636719 266.933594 146.464844 268.765625 146.464844 271.019531 C 146.464844 273.273438 144.636719 275.101562 142.382812 275.101562 C 140.128906 275.101562 138.300781 273.273438 138.300781 271.019531 Z M 128.050781 281.316406 C 128.050781 279.0625 129.878906 277.234375 132.132812 277.234375 C 134.382812 277.234375 136.210938 279.0625 136.210938 281.316406 C 136.210938 283.570312 134.382812 285.398438 132.132812 285.398438 C 129.878906 285.398438 128.050781 283.574219 128.050781 281.316406 Z M 146.503906 291.574219 C 146.503906 293.828125 144.675781 295.660156 142.425781 295.660156 C 140.171875 295.660156 138.34375 293.828125 138.34375 291.574219 C 138.34375 289.320312 140.171875 287.492188 142.425781 287.492188 C 144.675781 287.492188 146.503906 289.320312 146.503906 291.574219 Z M 148.597656 281.277344 C 148.597656 279.023438 150.425781 277.195312 152.679688 277.195312 C 154.933594 277.195312 156.761719 279.023438 156.761719 281.277344 C 156.761719 283.53125 154.933594 285.359375 152.679688 285.359375 C 150.425781 285.359375 148.597656 283.53125 148.597656 281.277344 Z M 281.980469 301.445312 C 281.980469 306.800781 286.335938 311.160156 291.691406 311.160156 C 297.042969 311.160156 301.398438 306.800781 301.398438 301.445312 C 301.398438 296.085938 297.042969 291.726562 291.691406 291.726562 C 286.335938 291.726562 281.980469 296.085938 281.980469 301.445312 Z M 291.691406 297.171875 C 294.042969 297.171875 295.957031 299.089844 295.957031 301.445312 C 295.957031 303.796875 294.042969 305.714844 291.691406 305.714844 C 289.335938 305.714844 287.421875 303.796875 287.421875 301.445312 C 287.421875 299.089844 289.335938 297.171875 291.691406 297.171875 Z M 243.007812 291.726562 C 237.652344 291.726562 233.296875 296.085938 233.296875 301.445312 C 233.296875 306.800781 237.652344 311.160156 243.007812 311.160156 C 248.363281 311.160156 252.71875 306.800781 252.71875 301.445312 C 252.71875 296.085938 248.363281 291.726562 243.007812 291.726562 Z M 243.007812 305.714844 C 240.65625 305.714844 238.738281 303.796875 238.738281 301.445312 C 238.738281 299.089844 240.65625 297.171875 243.007812 297.171875 C 245.363281 297.171875 247.277344 299.089844 247.277344 301.445312 C 247.277344 303.796875 245.363281 305.714844 243.007812 305.714844 Z M 247.960938 271.460938 L 247.960938 284.933594 C 247.960938 286.4375 249.179688 287.65625 250.679688 287.65625 L 284.105469 287.65625 C 285.609375 287.65625 286.828125 286.4375 286.828125 284.933594 L 286.828125 271.460938 C 286.828125 269.957031 285.609375 268.738281 284.105469 268.738281 L 250.679688 268.738281 C 249.179688 268.738281 247.960938 269.957031 247.960938 271.460938 Z M 253.402344 274.179688 L 281.386719 274.179688 L 281.386719 282.210938 L 253.402344 282.210938 Z M 227.609375 266.855469 L 227.609375 273.210938 C 227.609375 274.710938 226.390625 275.929688 224.886719 275.929688 C 223.386719 275.929688 222.167969 274.710938 222.167969 273.210938 L 222.167969 266.855469 C 222.167969 265.351562 223.386719 264.132812 224.886719 264.132812 C 226.390625 264.132812 227.609375 265.351562 227.609375 266.855469 Z M 221.398438 278.851562 C 221.398438 280.351562 220.179688 281.570312 218.679688 281.570312 L 212.328125 281.570312 C 210.824219 281.570312 209.605469 280.351562 209.605469 278.851562 C 209.605469 277.347656 210.824219 276.128906 212.328125 276.128906 L 218.679688 276.128906 C 220.183594 276.128906 221.398438 277.347656 221.398438 278.851562 Z M 227.039062 285.0625 L 227.039062 291.414062 C 227.039062 292.917969 225.820312 294.136719 224.320312 294.136719 C 222.816406 294.136719 221.597656 292.917969 221.597656 291.414062 L 221.597656 285.0625 C 221.597656 283.558594 222.816406 282.339844 224.320312 282.339844 C 225.820312 282.339844 227.039062 283.558594 227.039062 285.0625 Z M 236.878906 282.144531 L 230.527344 282.144531 C 229.027344 282.144531 227.808594 280.925781 227.808594 279.421875 C 227.808594 277.917969 229.027344 276.699219 230.527344 276.699219 L 236.878906 276.699219 C 238.378906 276.699219 239.597656 277.917969 239.597656 279.421875 C 239.597656 280.925781 238.378906 282.144531 236.878906 282.144531 Z M 306.996094 271.019531 C 306.996094 268.765625 308.824219 266.933594 311.074219 266.933594 C 313.328125 266.933594 315.15625 268.765625 315.15625 271.019531 C 315.15625 273.273438 313.328125 275.101562 311.074219 275.101562 C 308.824219 275.101562 306.996094 273.273438 306.996094 271.019531 Z M 296.742188 281.316406 C 296.742188 279.0625 298.570312 277.234375 300.824219 277.234375 C 303.078125 277.234375 304.90625 279.0625 304.90625 281.316406 C 304.90625 283.570312 303.078125 285.398438 300.824219 285.398438 C 298.570312 285.398438 296.742188 283.574219 296.742188 281.316406 Z M 315.199219 291.574219 C 315.199219 293.828125 313.371094 295.660156 311.117188 295.660156 C 308.863281 295.660156 307.035156 293.828125 307.035156 291.574219 C 307.035156 289.320312 308.863281 287.492188 311.117188 287.492188 C 313.371094 287.492188 315.199219 289.320312 315.199219 291.574219 Z M 317.289062 281.277344 C 317.289062 279.023438 319.117188 277.195312 321.371094 277.195312 C 323.625 277.195312 325.453125 279.023438 325.453125 281.277344 C 325.453125 283.53125 323.625 285.359375 321.371094 285.359375 C 319.117188 285.359375 317.289062 283.53125 317.289062 281.277344 Z M 105.601562 236.28125 C 100.398438 236.28125 96.160156 240.519531 96.160156 245.726562 C 96.160156 250.933594 100.398438 255.171875 105.601562 255.171875 C 110.808594 255.171875 115.042969 250.933594 115.042969 245.726562 C 115.042969 240.519531 110.808594 236.28125 105.601562 236.28125 Z M 105.601562 249.726562 C 103.394531 249.726562 101.601562 247.933594 101.601562 245.726562 C 101.601562 243.519531 103.394531 241.726562 105.601562 241.726562 C 107.808594 241.726562 109.601562 243.519531 109.601562 245.726562 C 109.601562 247.933594 107.804688 249.726562 105.601562 249.726562 Z M 105.601562 249.726562 " clip-rule="nonzero"/></clipPath><linearGradient x1="62.999001" gradientTransform="matrix(2.720845, 0, 0, 2.722176, 12.99605, 14.92395)" y1="-0.00000199173" x2="62.999001" gradientUnits="userSpaceOnUse" y2="120.399992" id="88f441d205"><stop stop-opacity="1" stop-color="rgb(93.699646%, 79.598999%, 34.498596%)" offset="0"/><stop stop-opacity="1" stop-color="rgb(93.644714%, 79.420471%, 34.669495%)" offset="0.0078125"/><stop stop-opacity="1" stop-color="rgb(93.537903%, 79.063416%, 35.009766%)" offset="0.015625"/><stop stop-opacity="1" stop-color="rgb(93.431091%, 78.707886%, 35.351562%)" offset="0.0234375"/><stop stop-opacity="1" stop-color="rgb(93.322754%, 78.35083%, 35.691833%)" offset="0.03125"/><stop stop-opacity="1" stop-color="rgb(93.215942%, 77.993774%, 36.03363%)" offset="0.0390625"/><stop stop-opacity="1" stop-color="rgb(93.107605%, 77.636719%, 36.373901%)" offset="0.046875"/><stop stop-opacity="1" stop-color="rgb(93.000793%, 77.281189%, 36.715698%)" offset="0.0546875"/><stop stop-opacity="1" stop-color="rgb(92.893982%, 76.924133%, 37.055969%)" offset="0.0625"/><stop stop-opacity="1" stop-color="rgb(92.785645%, 76.567078%, 37.397766%)" offset="0.0703125"/><stop stop-opacity="1" stop-color="rgb(92.678833%, 76.210022%, 37.738037%)" offset="0.078125"/><stop stop-opacity="1" stop-color="rgb(92.572021%, 75.854492%, 38.079834%)" offset="0.0859375"/><stop stop-opacity="1" stop-color="rgb(92.463684%, 75.497437%, 38.420105%)" offset="0.09375"/><stop stop-opacity="1" stop-color="rgb(92.356873%, 75.140381%, 38.761902%)" offset="0.101562"/><stop stop-opacity="1" stop-color="rgb(92.248535%, 74.783325%, 39.102173%)" offset="0.109375"/><stop stop-opacity="1" stop-color="rgb(92.141724%, 74.427795%, 39.44397%)" offset="0.117188"/><stop stop-opacity="1" stop-color="rgb(92.034912%, 74.07074%, 39.784241%)" offset="0.125"/><stop stop-opacity="1" stop-color="rgb(91.926575%, 73.713684%, 40.126038%)" offset="0.132812"/><stop stop-opacity="1" stop-color="rgb(91.819763%, 73.356628%, 40.466309%)" offset="0.140625"/><stop stop-opacity="1" stop-color="rgb(91.711426%, 73.001099%, 40.80658%)" offset="0.148438"/><stop stop-opacity="1" stop-color="rgb(91.604614%, 72.644043%, 41.148376%)" offset="0.15625"/><stop stop-opacity="1" stop-color="rgb(91.497803%, 72.286987%, 41.488647%)" offset="0.164063"/><stop stop-opacity="1" stop-color="rgb(91.389465%, 71.929932%, 41.830444%)" offset="0.171875"/><stop stop-opacity="1" stop-color="rgb(91.282654%, 71.574402%, 42.170715%)" offset="0.179688"/><stop stop-opacity="1" stop-color="rgb(91.175842%, 71.217346%, 42.512512%)" offset="0.1875"/><stop stop-opacity="1" stop-color="rgb(91.067505%, 70.860291%, 42.852783%)" offset="0.195313"/><stop stop-opacity="1" stop-color="rgb(90.960693%, 70.503235%, 43.19458%)" offset="0.203125"/><stop stop-opacity="1" stop-color="rgb(90.852356%, 70.147705%, 43.534851%)" offset="0.210938"/><stop stop-opacity="1" stop-color="rgb(90.745544%, 69.790649%, 43.876648%)" offset="0.21875"/><stop stop-opacity="1" stop-color="rgb(90.638733%, 69.433594%, 44.216919%)" offset="0.226563"/><stop stop-opacity="1" stop-color="rgb(90.530396%, 69.076538%, 44.558716%)" offset="0.234375"/><stop stop-opacity="1" stop-color="rgb(90.423584%, 68.721008%, 44.898987%)" offset="0.242188"/><stop stop-opacity="1" stop-color="rgb(90.316772%, 68.363953%, 45.240784%)" offset="0.25"/><stop stop-opacity="1" stop-color="rgb(90.208435%, 68.006897%, 45.581055%)" offset="0.257812"/><stop stop-opacity="1" stop-color="rgb(90.101624%, 67.649841%, 45.922852%)" offset="0.265625"/><stop stop-opacity="1" stop-color="rgb(89.993286%, 67.294312%, 46.263123%)" offset="0.273438"/><stop stop-opacity="1" stop-color="rgb(89.886475%, 66.937256%, 46.604919%)" offset="0.28125"/><stop stop-opacity="1" stop-color="rgb(89.779663%, 66.5802%, 46.94519%)" offset="0.289062"/><stop stop-opacity="1" stop-color="rgb(89.671326%, 66.223145%, 47.285461%)" offset="0.296875"/><stop stop-opacity="1" stop-color="rgb(89.564514%, 65.867615%, 47.627258%)" offset="0.304688"/><stop stop-opacity="1" stop-color="rgb(89.456177%, 65.510559%, 47.967529%)" offset="0.3125"/><stop stop-opacity="1" stop-color="rgb(89.349365%, 65.153503%, 48.309326%)" offset="0.320312"/><stop stop-opacity="1" stop-color="rgb(89.242554%, 64.796448%, 48.649597%)" offset="0.328125"/><stop stop-opacity="1" stop-color="rgb(89.134216%, 64.440918%, 48.991394%)" offset="0.335937"/><stop stop-opacity="1" stop-color="rgb(89.027405%, 64.083862%, 49.331665%)" offset="0.34375"/><stop stop-opacity="1" stop-color="rgb(88.920593%, 63.726807%, 49.673462%)" offset="0.351562"/><stop stop-opacity="1" stop-color="rgb(88.812256%, 63.369751%, 50.013733%)" offset="0.359375"/><stop stop-opacity="1" stop-color="rgb(88.705444%, 63.014221%, 50.35553%)" offset="0.367187"/><stop stop-opacity="1" stop-color="rgb(88.597107%, 62.657166%, 50.695801%)" offset="0.375"/><stop stop-opacity="1" stop-color="rgb(88.490295%, 62.30011%, 51.037598%)" offset="0.382812"/><stop stop-opacity="1" stop-color="rgb(88.383484%, 61.943054%, 51.377869%)" offset="0.390625"/><stop stop-opacity="1" stop-color="rgb(88.275146%, 61.587524%, 51.719666%)" offset="0.398437"/><stop stop-opacity="1" stop-color="rgb(88.168335%, 61.230469%, 52.059937%)" offset="0.40625"/><stop stop-opacity="1" stop-color="rgb(88.059998%, 60.873413%, 52.401733%)" offset="0.414062"/><stop stop-opacity="1" stop-color="rgb(87.953186%, 60.516357%, 52.742004%)" offset="0.421875"/><stop stop-opacity="1" stop-color="rgb(87.846375%, 60.160828%, 53.083801%)" offset="0.429687"/><stop stop-opacity="1" stop-color="rgb(87.738037%, 59.803772%, 53.424072%)" offset="0.4375"/><stop stop-opacity="1" stop-color="rgb(87.631226%, 59.446716%, 53.765869%)" offset="0.445312"/><stop stop-opacity="1" stop-color="rgb(87.524414%, 59.089661%, 54.10614%)" offset="0.453125"/><stop stop-opacity="1" stop-color="rgb(87.416077%, 58.734131%, 54.446411%)" offset="0.460937"/><stop stop-opacity="1" stop-color="rgb(87.309265%, 58.377075%, 54.788208%)" offset="0.46875"/><stop stop-opacity="1" stop-color="rgb(87.200928%, 58.02002%, 55.128479%)" offset="0.476562"/><stop stop-opacity="1" stop-color="rgb(87.094116%, 57.662964%, 55.470276%)" offset="0.484375"/><stop stop-opacity="1" stop-color="rgb(86.987305%, 57.307434%, 55.810547%)" offset="0.492187"/><stop stop-opacity="1" stop-color="rgb(86.878967%, 56.950378%, 56.152344%)" offset="0.5"/><stop stop-opacity="1" stop-color="rgb(86.772156%, 56.593323%, 56.492615%)" offset="0.507812"/><stop stop-opacity="1" stop-color="rgb(86.665344%, 56.236267%, 56.834412%)" offset="0.515625"/><stop stop-opacity="1" stop-color="rgb(86.557007%, 55.880737%, 57.174683%)" offset="0.523437"/><stop stop-opacity="1" stop-color="rgb(86.450195%, 55.523682%, 57.516479%)" offset="0.53125"/><stop stop-opacity="1" stop-color="rgb(86.341858%, 55.166626%, 57.85675%)" offset="0.539062"/><stop stop-opacity="1" stop-color="rgb(86.235046%, 54.80957%, 58.198547%)" offset="0.546875"/><stop stop-opacity="1" stop-color="rgb(86.128235%, 54.454041%, 58.538818%)" offset="0.554687"/><stop stop-opacity="1" stop-color="rgb(86.019897%, 54.096985%, 58.880615%)" offset="0.5625"/><stop stop-opacity="1" stop-color="rgb(85.913086%, 53.739929%, 59.220886%)" offset="0.570312"/><stop stop-opacity="1" stop-color="rgb(85.804749%, 53.382874%, 59.562683%)" offset="0.578125"/><stop stop-opacity="1" stop-color="rgb(85.697937%, 53.027344%, 59.902954%)" offset="0.585938"/><stop stop-opacity="1" stop-color="rgb(85.591125%, 52.670288%, 60.244751%)" offset="0.59375"/><stop stop-opacity="1" stop-color="rgb(85.482788%, 52.313232%, 60.585022%)" offset="0.601562"/><stop stop-opacity="1" stop-color="rgb(85.375977%, 51.956177%, 60.926819%)" offset="0.609375"/><stop stop-opacity="1" stop-color="rgb(85.269165%, 51.600647%, 61.26709%)" offset="0.617188"/><stop stop-opacity="1" stop-color="rgb(85.160828%, 51.243591%, 61.607361%)" offset="0.625"/><stop stop-opacity="1" stop-color="rgb(85.054016%, 50.886536%, 61.949158%)" offset="0.632812"/><stop stop-opacity="1" stop-color="rgb(84.945679%, 50.52948%, 62.289429%)" offset="0.640625"/><stop stop-opacity="1" stop-color="rgb(84.838867%, 50.17395%, 62.631226%)" offset="0.648438"/><stop stop-opacity="1" stop-color="rgb(84.732056%, 49.816895%, 62.971497%)" offset="0.65625"/><stop stop-opacity="1" stop-color="rgb(84.623718%, 49.459839%, 63.313293%)" offset="0.664062"/><stop stop-opacity="1" stop-color="rgb(84.516907%, 49.102783%, 63.653564%)" offset="0.671875"/><stop stop-opacity="1" stop-color="rgb(84.410095%, 48.747253%, 63.995361%)" offset="0.679687"/><stop stop-opacity="1" stop-color="rgb(84.301758%, 48.390198%, 64.335632%)" offset="0.6875"/><stop stop-opacity="1" stop-color="rgb(84.194946%, 48.033142%, 64.677429%)" offset="0.695312"/><stop stop-opacity="1" stop-color="rgb(84.086609%, 47.676086%, 65.0177%)" offset="0.703125"/><stop stop-opacity="1" stop-color="rgb(83.979797%, 47.320557%, 65.359497%)" offset="0.710937"/><stop stop-opacity="1" stop-color="rgb(83.872986%, 46.963501%, 65.699768%)" offset="0.71875"/><stop stop-opacity="1" stop-color="rgb(83.764648%, 46.606445%, 66.041565%)" offset="0.726562"/><stop stop-opacity="1" stop-color="rgb(83.657837%, 46.24939%, 66.381836%)" offset="0.734375"/><stop stop-opacity="1" stop-color="rgb(83.5495%, 45.89386%, 66.723633%)" offset="0.742188"/><stop stop-opacity="1" stop-color="rgb(83.442688%, 45.536804%, 67.063904%)" offset="0.75"/><stop stop-opacity="1" stop-color="rgb(83.335876%, 45.179749%, 67.405701%)" offset="0.757812"/><stop stop-opacity="1" stop-color="rgb(83.227539%, 44.822693%, 67.745972%)" offset="0.765625"/><stop stop-opacity="1" stop-color="rgb(83.120728%, 44.467163%, 68.086243%)" offset="0.773438"/><stop stop-opacity="1" stop-color="rgb(83.013916%, 44.110107%, 68.42804%)" offset="0.78125"/><stop stop-opacity="1" stop-color="rgb(82.905579%, 43.753052%, 68.768311%)" offset="0.789062"/><stop stop-opacity="1" stop-color="rgb(82.798767%, 43.395996%, 69.110107%)" offset="0.796875"/><stop stop-opacity="1" stop-color="rgb(82.69043%, 43.040466%, 69.450378%)" offset="0.804687"/><stop stop-opacity="1" stop-color="rgb(82.583618%, 42.683411%, 69.792175%)" offset="0.8125"/><stop stop-opacity="1" stop-color="rgb(82.476807%, 42.326355%, 70.132446%)" offset="0.820312"/><stop stop-opacity="1" stop-color="rgb(82.368469%, 41.969299%, 70.474243%)" offset="0.828125"/><stop stop-opacity="1" stop-color="rgb(82.261658%, 41.61377%, 70.814514%)" offset="0.835937"/><stop stop-opacity="1" stop-color="rgb(82.15332%, 41.256714%, 71.156311%)" offset="0.84375"/><stop stop-opacity="1" stop-color="rgb(82.046509%, 40.899658%, 71.496582%)" offset="0.851562"/><stop stop-opacity="1" stop-color="rgb(81.939697%, 40.542603%, 71.838379%)" offset="0.859375"/><stop stop-opacity="1" stop-color="rgb(81.83136%, 40.187073%, 72.17865%)" offset="0.867188"/><stop stop-opacity="1" stop-color="rgb(81.724548%, 39.830017%, 72.520447%)" offset="0.875"/><stop stop-opacity="1" stop-color="rgb(81.617737%, 39.472961%, 72.860718%)" offset="0.882812"/><stop stop-opacity="1" stop-color="rgb(81.509399%, 39.115906%, 73.202515%)" offset="0.890625"/><stop stop-opacity="1" stop-color="rgb(81.402588%, 38.760376%, 73.542786%)" offset="0.898438"/><stop stop-opacity="1" stop-color="rgb(81.29425%, 38.40332%, 73.884583%)" offset="0.90625"/><stop stop-opacity="1" stop-color="rgb(81.187439%, 38.046265%, 74.224854%)" offset="0.914062"/><stop stop-opacity="1" stop-color="rgb(81.080627%, 37.689209%, 74.56665%)" offset="0.921875"/><stop stop-opacity="1" stop-color="rgb(80.97229%, 37.333679%, 74.906921%)" offset="0.929687"/><stop stop-opacity="1" stop-color="rgb(80.865479%, 36.976624%, 75.247192%)" offset="0.9375"/><stop stop-opacity="1" stop-color="rgb(80.758667%, 36.619568%, 75.588989%)" offset="0.945312"/><stop stop-opacity="1" stop-color="rgb(80.65033%, 36.262512%, 75.92926%)" offset="0.953125"/><stop stop-opacity="1" stop-color="rgb(80.543518%, 35.906982%, 76.271057%)" offset="0.960937"/><stop stop-opacity="1" stop-color="rgb(80.435181%, 35.549927%, 76.611328%)" offset="0.96875"/><stop stop-opacity="1" stop-color="rgb(80.328369%, 35.192871%, 76.953125%)" offset="0.976562"/><stop stop-opacity="1" stop-color="rgb(80.221558%, 34.835815%, 77.293396%)" offset="0.984375"/><stop stop-opacity="1" stop-color="rgb(80.11322%, 34.480286%, 77.635193%)" offset="0.992187"/><stop stop-opacity="1" stop-color="rgb(80.029297%, 34.199524%, 77.902222%)" offset="1"/></linearGradient></defs><g clip-path="url(#2e36cb3fda)"><g clip-path="url(#db3274becc)"><path fill="url(#88f441d205)" d="M 11.296875 14.925781 L 11.296875 342.675781 L 357.523438 342.675781 L 357.523438 14.925781 Z M 11.296875 14.925781 " fill-rule="nonzero"/></g></g></svg>