<svg xmlns="http://www.w3.org/2000/svg" xmlns:xlink="http://www.w3.org/1999/xlink" width="500" zoomAndPan="magnify" viewBox="0 0 375 374.999991" height="500" preserveAspectRatio="xMidYMid meet" version="1.0"><defs><clipPath id="3e00071d8f"><path d="M 26 21.191406 L 363 21.191406 L 363 359.441406 L 26 359.441406 Z M 26 21.191406 " clip-rule="nonzero"/></clipPath><clipPath id="e5385e1120"><path d="M 342.832031 21.675781 L 343.722656 21.765625 L 344.589844 21.890625 L 345.457031 22.050781 L 346.304688 22.242188 L 347.140625 22.464844 L 347.960938 22.726562 L 348.773438 23.007812 L 349.566406 23.332031 L 350.347656 23.675781 L 351.105469 24.050781 L 351.847656 24.457031 L 352.578125 24.886719 L 353.285156 25.347656 L 353.972656 25.835938 L 354.648438 26.34375 L 355.292969 26.878906 L 355.921875 27.441406 L 356.527344 28.023438 L 357.109375 28.628906 L 357.667969 29.257812 L 358.207031 29.90625 L 358.71875 30.574219 L 359.203125 31.265625 L 359.664062 31.976562 L 360.089844 32.707031 L 360.496094 33.449219 L 360.875 34.207031 L 361.226562 34.988281 L 361.539062 35.777344 L 361.824219 36.589844 L 362.085938 37.410156 L 362.308594 38.246094 L 362.5 39.097656 L 362.660156 39.964844 L 362.78125 40.828125 L 362.875 41.71875 L 362.929688 42.609375 L 362.945312 43.511719 L 362.945312 46.25 L 362.9375 47.054688 L 362.9375 51.675781 L 362.929688 52.703125 L 362.929688 57.019531 L 362.921875 58.144531 L 362.921875 61.570312 L 362.914062 63.878906 L 362.914062 67.304688 L 362.90625 68.429688 L 362.90625 72.753906 L 362.898438 73.773438 L 362.898438 78.402344 L 362.890625 79.207031 L 362.890625 82.21875 L 362.660156 84.71875 L 361.96875 92.207031 L 361.511719 97.199219 L 358.058594 134.648438 L 356.144531 155.449219 L 355.070312 167.101562 L 353.917969 179.578125 L 351.390625 207.042969 L 350.007812 222.019531 L 348.554688 237.832031 L 343.722656 290.257812 L 347.195312 293.738281 L 357.46875 293.738281 L 357.691406 293.746094 L 357.921875 293.753906 L 358.136719 293.777344 L 358.359375 293.808594 L 358.574219 293.855469 L 358.78125 293.902344 L 358.996094 293.953125 L 359.203125 294.015625 L 359.402344 294.09375 L 359.601562 294.167969 L 359.792969 294.253906 L 359.984375 294.351562 L 360.167969 294.453125 L 360.351562 294.558594 L 360.527344 294.675781 L 360.703125 294.796875 L 360.867188 294.925781 L 361.035156 295.058594 L 361.1875 295.195312 L 361.339844 295.339844 L 361.488281 295.496094 L 361.625 295.648438 L 361.753906 295.816406 L 361.886719 295.976562 L 362.007812 296.152344 L 362.125 296.332031 L 362.230469 296.515625 L 362.332031 296.699219 L 362.429688 296.890625 L 362.515625 297.082031 L 362.589844 297.28125 L 362.667969 297.480469 L 362.730469 297.6875 L 362.78125 297.902344 L 362.828125 298.109375 L 362.875 298.324219 L 362.90625 298.546875 L 362.929688 298.761719 L 362.9375 298.988281 L 362.945312 299.210938 L 362.945312 337.152344 L 362.929688 338.058594 L 362.875 338.945312 L 362.78125 339.835938 L 362.660156 340.703125 L 362.5 341.566406 L 362.308594 342.417969 L 362.085938 343.253906 L 361.824219 344.074219 L 361.539062 344.886719 L 361.226562 345.675781 L 360.875 346.457031 L 360.496094 347.21875 L 360.089844 347.960938 L 359.664062 348.6875 L 359.203125 349.394531 L 358.71875 350.082031 L 358.207031 350.757812 L 357.667969 351.402344 L 357.109375 352.03125 L 356.527344 352.636719 L 355.921875 353.21875 L 355.292969 353.777344 L 354.648438 354.316406 L 353.972656 354.828125 L 353.285156 355.3125 L 352.578125 355.769531 L 351.847656 356.199219 L 351.105469 356.605469 L 350.347656 356.980469 L 349.566406 357.335938 L 348.773438 357.648438 L 347.960938 357.933594 L 347.140625 358.191406 L 346.304688 358.414062 L 345.457031 358.605469 L 344.589844 358.769531 L 343.722656 358.890625 L 342.832031 358.984375 L 341.945312 359.035156 L 341.039062 359.050781 L 48.160156 359.050781 L 47.257812 359.035156 L 46.367188 358.984375 L 45.476562 358.890625 L 44.613281 358.769531 L 43.746094 358.605469 L 42.894531 358.414062 L 42.058594 358.191406 L 41.238281 357.933594 L 40.425781 357.648438 L 39.636719 357.335938 L 38.851562 356.980469 L 38.09375 356.605469 L 37.351562 356.199219 L 36.621094 355.769531 L 35.917969 355.3125 L 35.226562 354.828125 L 34.550781 354.316406 L 33.910156 353.777344 L 33.28125 353.21875 L 32.675781 352.636719 L 32.089844 352.03125 L 31.53125 351.402344 L 30.996094 350.757812 L 30.480469 350.082031 L 30 349.394531 L 29.539062 348.6875 L 29.109375 347.960938 L 28.703125 347.21875 L 28.328125 346.457031 L 27.980469 345.675781 L 27.660156 344.886719 L 27.375 344.074219 L 27.117188 343.253906 L 26.894531 342.417969 L 26.703125 341.566406 L 26.539062 340.703125 L 26.417969 339.835938 L 26.324219 338.945312 L 26.273438 338.058594 L 26.257812 337.152344 L 26.257812 299.210938 L 26.265625 298.988281 L 26.273438 298.761719 L 26.296875 298.546875 L 26.324219 298.324219 L 26.371094 298.109375 L 26.417969 297.902344 L 26.472656 297.6875 L 26.53125 297.480469 L 26.6875 297.082031 L 26.769531 296.890625 L 26.871094 296.699219 L 26.96875 296.515625 L 27.078125 296.332031 L 27.191406 296.152344 L 27.316406 295.976562 L 27.445312 295.816406 L 27.574219 295.648438 L 27.714844 295.496094 L 27.859375 295.339844 L 28.011719 295.195312 L 28.164062 295.058594 L 28.335938 294.925781 L 28.496094 294.796875 L 28.671875 294.675781 L 28.847656 294.558594 L 29.03125 294.453125 L 29.214844 294.351562 L 29.40625 294.253906 L 29.597656 294.167969 L 29.796875 294.09375 L 30 294.015625 L 30.207031 293.953125 L 30.417969 293.902344 L 30.625 293.855469 L 30.839844 293.808594 L 31.0625 293.777344 L 31.277344 293.753906 L 31.507812 293.746094 L 31.730469 293.738281 L 41.445312 293.738281 L 45.425781 289.769531 L 44.574219 280.511719 L 43.738281 271.457031 L 42.925781 262.621094 L 42.128906 253.980469 L 41.351562 245.558594 L 40.59375 237.339844 L 39.859375 229.332031 L 39.136719 221.527344 L 38.4375 213.933594 L 37.757812 206.550781 L 37.097656 199.371094 L 36.453125 192.402344 L 35.832031 185.640625 L 35.226562 179.089844 L 34.644531 172.742188 L 34.078125 166.601562 L 33.53125 160.675781 L 33.003906 154.953125 L 32.496094 149.441406 L 32.007812 144.136719 L 31.53125 139.039062 L 31.085938 134.148438 L 30.648438 129.464844 L 30.242188 124.996094 L 29.84375 120.726562 L 29.476562 116.671875 L 29.117188 112.824219 L 28.785156 109.183594 L 28.464844 105.75 L 28.171875 102.523438 L 27.890625 99.511719 L 27.636719 96.699219 L 27.398438 94.101562 L 27.175781 91.710938 L 26.976562 89.523438 L 26.792969 87.546875 L 26.632812 85.777344 L 26.488281 84.222656 L 26.363281 82.863281 L 26.257812 81.722656 L 26.257812 43.511719 L 26.273438 42.609375 L 26.324219 41.71875 L 26.417969 40.828125 L 26.539062 39.964844 L 26.703125 39.097656 L 26.894531 38.246094 L 27.117188 37.410156 L 27.375 36.589844 L 27.660156 35.777344 L 27.980469 34.988281 L 28.328125 34.207031 L 28.703125 33.449219 L 29.109375 32.707031 L 29.539062 31.976562 L 30 31.265625 L 30.480469 30.574219 L 30.996094 29.90625 L 31.53125 29.257812 L 32.089844 28.628906 L 32.675781 28.023438 L 33.28125 27.441406 L 33.910156 26.878906 L 34.550781 26.34375 L 35.226562 25.835938 L 35.917969 25.347656 L 36.621094 24.886719 L 37.351562 24.457031 L 38.09375 24.050781 L 38.851562 23.675781 L 39.636719 23.332031 L 40.425781 23.007812 L 41.238281 22.726562 L 42.058594 22.464844 L 42.894531 22.242188 L 43.746094 22.050781 L 44.613281 21.890625 L 45.476562 21.765625 L 46.367188 21.675781 L 47.257812 21.621094 L 48.160156 21.605469 L 341.039062 21.605469 L 341.945312 21.621094 Z M 131.65625 293.578125 L 131.660156 293.488281 L 131.667969 293.394531 L 131.675781 293.308594 L 131.683594 293.21875 L 131.691406 293.125 L 131.699219 293.035156 L 131.707031 292.941406 L 131.707031 292.851562 L 131.714844 292.757812 L 131.714844 292.667969 L 131.722656 292.582031 L 131.722656 292.398438 L 131.730469 292.304688 L 131.730469 266.613281 L 313.054688 266.613281 L 307.964844 86.925781 L 81.238281 86.925781 L 76.199219 266.613281 L 98.871094 266.613281 L 98.871094 291.816406 L 98.878906 291.90625 L 98.878906 292.089844 L 98.886719 292.175781 L 98.886719 292.269531 L 98.894531 292.359375 L 98.894531 292.453125 L 98.902344 292.542969 L 98.910156 292.636719 L 98.917969 292.726562 L 98.925781 292.820312 L 98.933594 292.902344 L 98.9375 292.996094 L 98.945312 293.089844 L 98.953125 293.179688 L 98.960938 293.273438 L 98.976562 293.363281 L 98.984375 293.449219 L 98.992188 293.539062 L 99.007812 293.632812 L 99.023438 293.722656 L 99.023438 293.738281 L 109.828125 293.738281 L 109.828125 253.660156 L 109.265625 253.507812 L 108.707031 253.339844 L 108.164062 253.144531 L 107.617188 252.953125 L 107.082031 252.742188 L 106.550781 252.519531 L 106.03125 252.273438 L 105.519531 252.019531 L 105.019531 251.757812 L 104.519531 251.484375 L 104.03125 251.191406 L 103.554688 250.886719 L 103.078125 250.570312 L 102.621094 250.25 L 102.167969 249.902344 L 101.722656 249.558594 L 101.285156 249.199219 L 100.863281 248.824219 L 100.449219 248.441406 L 100.042969 248.050781 L 99.652344 247.644531 L 99.269531 247.230469 L 98.894531 246.808594 L 98.53125 246.371094 L 98.1875 245.925781 L 97.84375 245.472656 L 97.519531 245.015625 L 97.207031 244.539062 L 96.898438 244.0625 L 96.609375 243.574219 L 96.332031 243.074219 L 96.070312 242.578125 L 95.820312 242.0625 L 95.574219 241.542969 L 95.351562 241.011719 L 95.136719 240.476562 L 94.945312 239.933594 L 94.753906 239.386719 L 94.585938 238.828125 L 94.429688 238.269531 L 94.222656 237.402344 L 94.046875 236.535156 L 93.917969 235.679688 L 93.816406 234.8125 L 93.75 233.953125 L 93.71875 233.09375 L 93.726562 232.246094 L 93.765625 231.394531 L 93.832031 230.558594 L 93.941406 229.722656 L 94.070312 228.894531 L 94.238281 228.074219 L 94.4375 227.261719 L 94.667969 226.457031 L 94.929688 225.667969 L 95.222656 224.894531 L 95.542969 224.128906 L 95.886719 223.375 L 96.261719 222.640625 L 96.671875 221.917969 L 97.097656 221.207031 L 97.558594 220.515625 L 98.042969 219.851562 L 98.554688 219.191406 L 99.09375 218.554688 L 99.652344 217.941406 L 100.234375 217.351562 L 100.839844 216.777344 L 101.476562 216.234375 L 102.128906 215.703125 L 102.8125 215.207031 L 103.507812 214.730469 L 104.230469 214.277344 L 104.964844 213.855469 L 105.730469 213.457031 L 106.515625 213.097656 L 107.3125 212.761719 L 108.132812 212.453125 L 108.96875 212.179688 L 109.828125 211.933594 L 110.691406 211.726562 L 111.558594 211.558594 L 112.417969 211.417969 L 113.285156 211.320312 L 114.144531 211.257812 L 115 211.226562 L 115.851562 211.226562 L 116.703125 211.265625 L 117.546875 211.34375 L 118.382812 211.441406 L 119.210938 211.578125 L 120.03125 211.75 L 120.835938 211.949219 L 121.640625 212.179688 L 122.429688 212.4375 L 123.207031 212.730469 L 123.972656 213.042969 L 124.722656 213.398438 L 125.46875 213.773438 L 126.1875 214.179688 L 126.894531 214.609375 L 127.582031 215.066406 L 128.257812 215.550781 L 128.910156 216.054688 L 129.546875 216.59375 L 130.160156 217.152344 L 130.757812 217.742188 L 131.324219 218.347656 L 131.875 218.976562 L 132.398438 219.636719 L 132.902344 220.308594 L 133.378906 221.007812 L 133.824219 221.726562 L 134.246094 222.472656 L 134.644531 223.230469 L 135.011719 224.011719 L 135.351562 224.808594 L 135.648438 225.628906 L 135.925781 226.464844 L 136.171875 227.324219 L 136.378906 228.191406 L 136.554688 229.054688 L 136.683594 229.914062 L 136.785156 230.78125 L 136.851562 231.640625 L 136.882812 232.496094 L 136.875 233.347656 L 136.835938 234.199219 L 136.769531 235.042969 L 136.660156 235.878906 L 136.53125 236.707031 L 136.363281 237.527344 L 136.164062 238.332031 L 135.933594 239.136719 L 135.671875 239.925781 L 135.378906 240.699219 L 135.058594 241.464844 L 134.714844 242.214844 L 134.335938 242.960938 L 133.929688 243.679688 L 133.503906 244.386719 L 133.042969 245.074219 L 132.558594 245.75 L 132.046875 246.402344 L 131.507812 247.039062 L 130.949219 247.652344 L 130.367188 248.25 L 129.761719 248.816406 L 129.125 249.367188 L 128.472656 249.890625 L 127.789062 250.394531 L 127.09375 250.871094 L 126.371094 251.316406 L 125.636719 251.734375 L 124.867188 252.132812 L 124.085938 252.503906 L 123.289062 252.839844 L 122.46875 253.140625 L 121.632812 253.414062 L 120.773438 253.660156 L 120.773438 293.738281 L 131.640625 293.738281 L 131.648438 293.671875 Z M 226.71875 278.433594 L 226.003906 278.578125 L 225.328125 278.808594 L 224.691406 279.128906 L 224.109375 279.519531 L 223.582031 279.980469 L 223.121094 280.511719 L 222.730469 281.09375 L 222.410156 281.730469 L 222.179688 282.402344 L 222.03125 283.117188 L 221.980469 283.859375 L 222.03125 284.601562 L 222.179688 285.316406 L 222.410156 285.992188 L 222.730469 286.617188 L 223.121094 287.203125 L 223.582031 287.730469 L 224.109375 288.191406 L 224.691406 288.582031 L 225.328125 288.902344 L 226.003906 289.132812 L 226.71875 289.277344 L 227.460938 289.332031 L 234.03125 289.332031 L 234.773438 289.277344 L 235.488281 289.132812 L 236.164062 288.902344 L 236.792969 288.582031 L 237.375 288.191406 L 237.902344 287.730469 L 238.363281 287.203125 L 238.753906 286.617188 L 239.078125 285.992188 L 239.304688 285.316406 L 239.453125 284.601562 L 239.503906 283.859375 L 239.453125 283.117188 L 239.304688 282.402344 L 239.078125 281.730469 L 238.753906 281.09375 L 238.363281 280.511719 L 237.902344 279.980469 L 237.375 279.519531 L 236.792969 279.128906 L 236.164062 278.808594 L 235.488281 278.578125 L 234.773438 278.433594 L 234.03125 278.378906 L 227.460938 278.378906 Z M 253.710938 278.433594 L 253 278.578125 L 252.324219 278.808594 L 251.695312 279.128906 L 251.113281 279.519531 L 250.585938 279.980469 L 250.125 280.511719 L 249.734375 281.09375 L 249.410156 281.730469 L 249.179688 282.402344 L 249.035156 283.117188 L 248.980469 283.859375 L 249.035156 284.601562 L 249.179688 285.316406 L 249.410156 285.992188 L 249.734375 286.617188 L 250.125 287.203125 L 250.585938 287.730469 L 251.113281 288.191406 L 251.695312 288.582031 L 252.324219 288.902344 L 253 289.132812 L 253.710938 289.277344 L 254.457031 289.332031 L 260.917969 289.332031 L 261.664062 289.277344 L 262.375 289.132812 L 263.050781 288.902344 L 263.679688 288.582031 L 264.261719 288.191406 L 264.792969 287.730469 L 265.25 287.203125 L 265.640625 286.617188 L 265.964844 285.992188 L 266.195312 285.316406 L 266.339844 284.601562 L 266.394531 283.859375 L 266.339844 283.117188 L 266.195312 282.402344 L 265.964844 281.730469 L 265.640625 281.09375 L 265.25 280.511719 L 264.792969 279.980469 L 264.261719 279.519531 L 263.679688 279.128906 L 263.050781 278.808594 L 262.375 278.578125 L 261.664062 278.433594 L 260.917969 278.378906 L 254.457031 278.378906 Z M 280.652344 278.433594 L 279.941406 278.578125 L 279.265625 278.808594 L 278.636719 279.128906 L 278.054688 279.519531 L 277.527344 279.980469 L 277.066406 280.511719 L 276.675781 281.09375 L 276.351562 281.730469 L 276.121094 282.402344 L 275.976562 283.117188 L 275.921875 283.859375 L 275.976562 284.601562 L 276.121094 285.316406 L 276.351562 285.992188 L 276.675781 286.617188 L 277.066406 287.203125 L 277.527344 287.730469 L 278.054688 288.191406 L 278.636719 288.582031 L 279.265625 288.902344 L 279.941406 289.132812 L 280.652344 289.277344 L 281.398438 289.332031 L 287.699219 289.332031 L 288.445312 289.277344 L 289.15625 289.132812 L 289.832031 288.902344 L 290.460938 288.582031 L 291.042969 288.191406 L 291.570312 287.730469 L 292.03125 287.203125 L 292.421875 286.617188 L 292.746094 285.992188 L 292.976562 285.316406 L 293.121094 284.601562 L 293.175781 283.859375 L 293.121094 283.117188 L 292.976562 282.402344 L 292.746094 281.730469 L 292.421875 281.09375 L 292.03125 280.511719 L 291.570312 279.980469 L 291.042969 279.519531 L 290.460938 279.128906 L 289.832031 278.808594 L 289.15625 278.578125 L 288.445312 278.433594 L 287.699219 278.378906 L 281.398438 278.378906 Z M 280.652344 278.433594 " clip-rule="nonzero"/></clipPath><linearGradient x1="251.74001" gradientTransform="matrix(0.766696, 0, 0, 0.766485, 1.591995, -5.09775)" y1="34.839982" x2="251.74001" gradientUnits="userSpaceOnUse" y2="475.08996" id="b2605e7a8d"><stop stop-opacity="1" stop-color="rgb(17.298889%, 92.498779%, 100%)" offset="0"/><stop stop-opacity="1" stop-color="rgb(17.611694%, 92.3172%, 100%)" offset="0.00390625"/><stop stop-opacity="1" stop-color="rgb(17.926025%, 92.13562%, 100%)" offset="0.0078125"/><stop stop-opacity="1" stop-color="rgb(18.238831%, 91.952515%, 100%)" offset="0.0117188"/><stop stop-opacity="1" stop-color="rgb(18.553162%, 91.770935%, 100%)" offset="0.015625"/><stop stop-opacity="1" stop-color="rgb(18.867493%, 91.589355%, 100%)" offset="0.0195313"/><stop stop-opacity="1" stop-color="rgb(19.181824%, 91.407776%, 100%)" offset="0.0234375"/><stop stop-opacity="1" stop-color="rgb(19.494629%, 91.22467%, 100%)" offset="0.0273438"/><stop stop-opacity="1" stop-color="rgb(19.80896%, 91.043091%, 100%)" offset="0.03125"/><stop stop-opacity="1" stop-color="rgb(20.121765%, 90.859985%, 100%)" offset="0.0351562"/><stop stop-opacity="1" stop-color="rgb(20.436096%, 90.678406%, 100%)" offset="0.0390625"/><stop stop-opacity="1" stop-color="rgb(20.748901%, 90.496826%, 100%)" offset="0.0429688"/><stop stop-opacity="1" stop-color="rgb(21.063232%, 90.315247%, 100%)" offset="0.046875"/><stop stop-opacity="1" stop-color="rgb(21.376038%, 90.132141%, 100%)" offset="0.0507812"/><stop stop-opacity="1" stop-color="rgb(21.690369%, 89.950562%, 100%)" offset="0.0546875"/><stop stop-opacity="1" stop-color="rgb(22.003174%, 89.768982%, 100%)" offset="0.0585938"/><stop stop-opacity="1" stop-color="rgb(22.317505%, 89.587402%, 100%)" offset="0.0625"/><stop stop-opacity="1" stop-color="rgb(22.63031%, 89.404297%, 100%)" offset="0.0664063"/><stop stop-opacity="1" stop-color="rgb(22.944641%, 89.222717%, 100%)" offset="0.0703125"/><stop stop-opacity="1" stop-color="rgb(23.258972%, 89.039612%, 100%)" offset="0.0742188"/><stop stop-opacity="1" stop-color="rgb(23.573303%, 88.858032%, 100%)" offset="0.078125"/><stop stop-opacity="1" stop-color="rgb(23.886108%, 88.676453%, 100%)" offset="0.0820312"/><stop stop-opacity="1" stop-color="rgb(24.200439%, 88.494873%, 100%)" offset="0.0859375"/><stop stop-opacity="1" stop-color="rgb(24.513245%, 88.311768%, 100%)" offset="0.0898438"/><stop stop-opacity="1" stop-color="rgb(24.827576%, 88.130188%, 100%)" offset="0.09375"/><stop stop-opacity="1" stop-color="rgb(25.140381%, 87.948608%, 100%)" offset="0.0976563"/><stop stop-opacity="1" stop-color="rgb(25.454712%, 87.767029%, 100%)" offset="0.101563"/><stop stop-opacity="1" stop-color="rgb(25.767517%, 87.583923%, 100%)" offset="0.105469"/><stop stop-opacity="1" stop-color="rgb(26.081848%, 87.402344%, 100%)" offset="0.109375"/><stop stop-opacity="1" stop-color="rgb(26.394653%, 87.219238%, 100%)" offset="0.113281"/><stop stop-opacity="1" stop-color="rgb(26.708984%, 87.037659%, 100%)" offset="0.117188"/><stop stop-opacity="1" stop-color="rgb(27.02179%, 86.856079%, 100%)" offset="0.121094"/><stop stop-opacity="1" stop-color="rgb(27.336121%, 86.6745%, 100%)" offset="0.125"/><stop stop-opacity="1" stop-color="rgb(27.650452%, 86.491394%, 100%)" offset="0.128906"/><stop stop-opacity="1" stop-color="rgb(27.964783%, 86.309814%, 100%)" offset="0.132813"/><stop stop-opacity="1" stop-color="rgb(28.277588%, 86.128235%, 100%)" offset="0.136719"/><stop stop-opacity="1" stop-color="rgb(28.591919%, 85.946655%, 100%)" offset="0.140625"/><stop stop-opacity="1" stop-color="rgb(28.904724%, 85.76355%, 100%)" offset="0.144531"/><stop stop-opacity="1" stop-color="rgb(29.219055%, 85.58197%, 100%)" offset="0.148438"/><stop stop-opacity="1" stop-color="rgb(29.53186%, 85.398865%, 100%)" offset="0.152344"/><stop stop-opacity="1" stop-color="rgb(29.846191%, 85.217285%, 100%)" offset="0.15625"/><stop stop-opacity="1" stop-color="rgb(30.158997%, 85.035706%, 100%)" offset="0.160156"/><stop stop-opacity="1" stop-color="rgb(30.473328%, 84.854126%, 100%)" offset="0.164062"/><stop stop-opacity="1" stop-color="rgb(30.786133%, 84.671021%, 100%)" offset="0.167969"/><stop stop-opacity="1" stop-color="rgb(31.100464%, 84.489441%, 100%)" offset="0.171875"/><stop stop-opacity="1" stop-color="rgb(31.413269%, 84.307861%, 100%)" offset="0.175781"/><stop stop-opacity="1" stop-color="rgb(31.7276%, 84.126282%, 100%)" offset="0.179688"/><stop stop-opacity="1" stop-color="rgb(32.040405%, 83.943176%, 100%)" offset="0.183594"/><stop stop-opacity="1" stop-color="rgb(32.354736%, 83.761597%, 100%)" offset="0.1875"/><stop stop-opacity="1" stop-color="rgb(32.669067%, 83.580017%, 100%)" offset="0.191406"/><stop stop-opacity="1" stop-color="rgb(32.983398%, 83.398438%, 100%)" offset="0.195312"/><stop stop-opacity="1" stop-color="rgb(33.296204%, 83.215332%, 100%)" offset="0.199219"/><stop stop-opacity="1" stop-color="rgb(33.610535%, 83.033752%, 100%)" offset="0.203125"/><stop stop-opacity="1" stop-color="rgb(33.92334%, 82.850647%, 100%)" offset="0.207031"/><stop stop-opacity="1" stop-color="rgb(34.237671%, 82.669067%, 100%)" offset="0.210938"/><stop stop-opacity="1" stop-color="rgb(34.550476%, 82.487488%, 100%)" offset="0.214844"/><stop stop-opacity="1" stop-color="rgb(34.864807%, 82.305908%, 100%)" offset="0.21875"/><stop stop-opacity="1" stop-color="rgb(35.177612%, 82.122803%, 100%)" offset="0.222656"/><stop stop-opacity="1" stop-color="rgb(35.491943%, 81.941223%, 100%)" offset="0.226562"/><stop stop-opacity="1" stop-color="rgb(35.804749%, 81.759644%, 100%)" offset="0.230469"/><stop stop-opacity="1" stop-color="rgb(36.11908%, 81.578064%, 100%)" offset="0.234375"/><stop stop-opacity="1" stop-color="rgb(36.431885%, 81.394958%, 100%)" offset="0.238281"/><stop stop-opacity="1" stop-color="rgb(36.746216%, 81.213379%, 100%)" offset="0.242187"/><stop stop-opacity="1" stop-color="rgb(37.060547%, 81.030273%, 100%)" offset="0.246094"/><stop stop-opacity="1" stop-color="rgb(37.374878%, 80.848694%, 100%)" offset="0.25"/><stop stop-opacity="1" stop-color="rgb(37.687683%, 80.667114%, 100%)" offset="0.253906"/><stop stop-opacity="1" stop-color="rgb(38.002014%, 80.485535%, 100%)" offset="0.257812"/><stop stop-opacity="1" stop-color="rgb(38.314819%, 80.302429%, 100%)" offset="0.261719"/><stop stop-opacity="1" stop-color="rgb(38.62915%, 80.12085%, 100%)" offset="0.265625"/><stop stop-opacity="1" stop-color="rgb(38.941956%, 79.93927%, 100%)" offset="0.269531"/><stop stop-opacity="1" stop-color="rgb(39.256287%, 79.75769%, 100%)" offset="0.273438"/><stop stop-opacity="1" stop-color="rgb(39.569092%, 79.574585%, 100%)" offset="0.277344"/><stop stop-opacity="1" stop-color="rgb(39.883423%, 79.393005%, 100%)" offset="0.28125"/><stop stop-opacity="1" stop-color="rgb(40.196228%, 79.2099%, 100%)" offset="0.285156"/><stop stop-opacity="1" stop-color="rgb(40.510559%, 79.02832%, 100%)" offset="0.289062"/><stop stop-opacity="1" stop-color="rgb(40.823364%, 78.846741%, 100%)" offset="0.292969"/><stop stop-opacity="1" stop-color="rgb(41.137695%, 78.665161%, 100%)" offset="0.296875"/><stop stop-opacity="1" stop-color="rgb(41.452026%, 78.482056%, 100%)" offset="0.300781"/><stop stop-opacity="1" stop-color="rgb(41.766357%, 78.300476%, 100%)" offset="0.304688"/><stop stop-opacity="1" stop-color="rgb(42.079163%, 78.118896%, 100%)" offset="0.308594"/><stop stop-opacity="1" stop-color="rgb(42.393494%, 77.937317%, 100%)" offset="0.3125"/><stop stop-opacity="1" stop-color="rgb(42.706299%, 77.754211%, 100%)" offset="0.316406"/><stop stop-opacity="1" stop-color="rgb(43.02063%, 77.572632%, 100%)" offset="0.320313"/><stop stop-opacity="1" stop-color="rgb(43.333435%, 77.389526%, 100%)" offset="0.324219"/><stop stop-opacity="1" stop-color="rgb(43.647766%, 77.207947%, 100%)" offset="0.328125"/><stop stop-opacity="1" stop-color="rgb(43.960571%, 77.026367%, 100%)" offset="0.332031"/><stop stop-opacity="1" stop-color="rgb(44.274902%, 76.844788%, 100%)" offset="0.335937"/><stop stop-opacity="1" stop-color="rgb(44.587708%, 76.661682%, 100%)" offset="0.339844"/><stop stop-opacity="1" stop-color="rgb(44.902039%, 76.480103%, 100%)" offset="0.34375"/><stop stop-opacity="1" stop-color="rgb(45.214844%, 76.298523%, 100%)" offset="0.347656"/><stop stop-opacity="1" stop-color="rgb(45.529175%, 76.116943%, 100%)" offset="0.351562"/><stop stop-opacity="1" stop-color="rgb(45.84198%, 75.933838%, 100%)" offset="0.355469"/><stop stop-opacity="1" stop-color="rgb(46.156311%, 75.752258%, 100%)" offset="0.359375"/><stop stop-opacity="1" stop-color="rgb(46.470642%, 75.569153%, 100%)" offset="0.363281"/><stop stop-opacity="1" stop-color="rgb(46.784973%, 75.387573%, 100%)" offset="0.367188"/><stop stop-opacity="1" stop-color="rgb(47.097778%, 75.205994%, 100%)" offset="0.371094"/><stop stop-opacity="1" stop-color="rgb(47.412109%, 75.024414%, 100%)" offset="0.375"/><stop stop-opacity="1" stop-color="rgb(47.724915%, 74.841309%, 100%)" offset="0.378906"/><stop stop-opacity="1" stop-color="rgb(48.039246%, 74.659729%, 100%)" offset="0.382812"/><stop stop-opacity="1" stop-color="rgb(48.352051%, 74.478149%, 100%)" offset="0.386719"/><stop stop-opacity="1" stop-color="rgb(48.666382%, 74.29657%, 100%)" offset="0.390625"/><stop stop-opacity="1" stop-color="rgb(48.979187%, 74.113464%, 100%)" offset="0.394531"/><stop stop-opacity="1" stop-color="rgb(49.293518%, 73.931885%, 100%)" offset="0.398438"/><stop stop-opacity="1" stop-color="rgb(49.606323%, 73.750305%, 100%)" offset="0.402344"/><stop stop-opacity="1" stop-color="rgb(49.920654%, 73.568726%, 100%)" offset="0.40625"/><stop stop-opacity="1" stop-color="rgb(50.233459%, 73.38562%, 100%)" offset="0.410156"/><stop stop-opacity="1" stop-color="rgb(50.547791%, 73.204041%, 100%)" offset="0.414063"/><stop stop-opacity="1" stop-color="rgb(50.862122%, 73.020935%, 100%)" offset="0.417969"/><stop stop-opacity="1" stop-color="rgb(51.176453%, 72.839355%, 100%)" offset="0.421875"/><stop stop-opacity="1" stop-color="rgb(51.489258%, 72.657776%, 100%)" offset="0.425781"/><stop stop-opacity="1" stop-color="rgb(51.803589%, 72.476196%, 100%)" offset="0.429687"/><stop stop-opacity="1" stop-color="rgb(52.116394%, 72.293091%, 100%)" offset="0.433594"/><stop stop-opacity="1" stop-color="rgb(52.430725%, 72.111511%, 100%)" offset="0.4375"/><stop stop-opacity="1" stop-color="rgb(52.74353%, 71.929932%, 100%)" offset="0.441406"/><stop stop-opacity="1" stop-color="rgb(53.057861%, 71.748352%, 100%)" offset="0.445312"/><stop stop-opacity="1" stop-color="rgb(53.370667%, 71.565247%, 100%)" offset="0.449219"/><stop stop-opacity="1" stop-color="rgb(53.684998%, 71.383667%, 100%)" offset="0.453125"/><stop stop-opacity="1" stop-color="rgb(53.997803%, 71.200562%, 100%)" offset="0.457031"/><stop stop-opacity="1" stop-color="rgb(54.312134%, 71.018982%, 100%)" offset="0.460938"/><stop stop-opacity="1" stop-color="rgb(54.624939%, 70.837402%, 100%)" offset="0.464844"/><stop stop-opacity="1" stop-color="rgb(54.93927%, 70.655823%, 100%)" offset="0.46875"/><stop stop-opacity="1" stop-color="rgb(55.253601%, 70.472717%, 100%)" offset="0.472656"/><stop stop-opacity="1" stop-color="rgb(55.567932%, 70.291138%, 100%)" offset="0.476562"/><stop stop-opacity="1" stop-color="rgb(55.880737%, 70.109558%, 100%)" offset="0.480469"/><stop stop-opacity="1" stop-color="rgb(56.195068%, 69.927979%, 100%)" offset="0.484375"/><stop stop-opacity="1" stop-color="rgb(56.507874%, 69.744873%, 100%)" offset="0.488281"/><stop stop-opacity="1" stop-color="rgb(56.822205%, 69.563293%, 100%)" offset="0.492188"/><stop stop-opacity="1" stop-color="rgb(57.13501%, 69.380188%, 100%)" offset="0.496094"/><stop stop-opacity="1" stop-color="rgb(57.449341%, 69.198608%, 100%)" offset="0.5"/><stop stop-opacity="1" stop-color="rgb(57.762146%, 69.017029%, 100%)" offset="0.503906"/><stop stop-opacity="1" stop-color="rgb(58.076477%, 68.835449%, 100%)" offset="0.507812"/><stop stop-opacity="1" stop-color="rgb(58.389282%, 68.652344%, 100%)" offset="0.511719"/><stop stop-opacity="1" stop-color="rgb(58.703613%, 68.470764%, 100%)" offset="0.515625"/><stop stop-opacity="1" stop-color="rgb(59.016418%, 68.289185%, 100%)" offset="0.519531"/><stop stop-opacity="1" stop-color="rgb(59.33075%, 68.107605%, 100%)" offset="0.523437"/><stop stop-opacity="1" stop-color="rgb(59.643555%, 67.9245%, 100%)" offset="0.527344"/><stop stop-opacity="1" stop-color="rgb(59.957886%, 67.74292%, 100%)" offset="0.53125"/><stop stop-opacity="1" stop-color="rgb(60.272217%, 67.559814%, 100%)" offset="0.535156"/><stop stop-opacity="1" stop-color="rgb(60.586548%, 67.378235%, 100%)" offset="0.539062"/><stop stop-opacity="1" stop-color="rgb(60.899353%, 67.196655%, 100%)" offset="0.542969"/><stop stop-opacity="1" stop-color="rgb(61.213684%, 67.015076%, 100%)" offset="0.546875"/><stop stop-opacity="1" stop-color="rgb(61.526489%, 66.83197%, 100%)" offset="0.550781"/><stop stop-opacity="1" stop-color="rgb(61.84082%, 66.650391%, 100%)" offset="0.554688"/><stop stop-opacity="1" stop-color="rgb(62.153625%, 66.468811%, 100%)" offset="0.558594"/><stop stop-opacity="1" stop-color="rgb(62.467957%, 66.287231%, 100%)" offset="0.5625"/><stop stop-opacity="1" stop-color="rgb(62.780762%, 66.104126%, 100%)" offset="0.566406"/><stop stop-opacity="1" stop-color="rgb(63.095093%, 65.922546%, 100%)" offset="0.570312"/><stop stop-opacity="1" stop-color="rgb(63.407898%, 65.739441%, 100%)" offset="0.574219"/><stop stop-opacity="1" stop-color="rgb(63.722229%, 65.557861%, 100%)" offset="0.578125"/><stop stop-opacity="1" stop-color="rgb(64.035034%, 65.376282%, 100%)" offset="0.582031"/><stop stop-opacity="1" stop-color="rgb(64.349365%, 65.194702%, 100%)" offset="0.585938"/><stop stop-opacity="1" stop-color="rgb(64.663696%, 65.011597%, 100%)" offset="0.589844"/><stop stop-opacity="1" stop-color="rgb(64.978027%, 64.830017%, 100%)" offset="0.59375"/><stop stop-opacity="1" stop-color="rgb(65.290833%, 64.648438%, 100%)" offset="0.597656"/><stop stop-opacity="1" stop-color="rgb(65.605164%, 64.466858%, 100%)" offset="0.601562"/><stop stop-opacity="1" stop-color="rgb(65.917969%, 64.283752%, 100%)" offset="0.605469"/><stop stop-opacity="1" stop-color="rgb(66.2323%, 64.102173%, 100%)" offset="0.609375"/><stop stop-opacity="1" stop-color="rgb(66.545105%, 63.920593%, 100%)" offset="0.613281"/><stop stop-opacity="1" stop-color="rgb(66.859436%, 63.739014%, 100%)" offset="0.617187"/><stop stop-opacity="1" stop-color="rgb(67.172241%, 63.555908%, 100%)" offset="0.621094"/><stop stop-opacity="1" stop-color="rgb(67.486572%, 63.374329%, 100%)" offset="0.625"/><stop stop-opacity="1" stop-color="rgb(67.799377%, 63.191223%, 100%)" offset="0.628906"/><stop stop-opacity="1" stop-color="rgb(68.113708%, 63.009644%, 100%)" offset="0.632812"/><stop stop-opacity="1" stop-color="rgb(68.426514%, 62.828064%, 100%)" offset="0.636719"/><stop stop-opacity="1" stop-color="rgb(68.740845%, 62.646484%, 100%)" offset="0.640625"/><stop stop-opacity="1" stop-color="rgb(69.055176%, 62.463379%, 100%)" offset="0.644531"/><stop stop-opacity="1" stop-color="rgb(69.369507%, 62.281799%, 100%)" offset="0.648438"/><stop stop-opacity="1" stop-color="rgb(69.682312%, 62.10022%, 100%)" offset="0.652344"/><stop stop-opacity="1" stop-color="rgb(69.996643%, 61.91864%, 100%)" offset="0.65625"/><stop stop-opacity="1" stop-color="rgb(70.309448%, 61.735535%, 100%)" offset="0.660156"/><stop stop-opacity="1" stop-color="rgb(70.623779%, 61.553955%, 100%)" offset="0.664062"/><stop stop-opacity="1" stop-color="rgb(70.936584%, 61.37085%, 100%)" offset="0.667969"/><stop stop-opacity="1" stop-color="rgb(71.250916%, 61.18927%, 100%)" offset="0.671875"/><stop stop-opacity="1" stop-color="rgb(71.563721%, 61.00769%, 100%)" offset="0.675781"/><stop stop-opacity="1" stop-color="rgb(71.878052%, 60.826111%, 100%)" offset="0.679688"/><stop stop-opacity="1" stop-color="rgb(72.190857%, 60.643005%, 100%)" offset="0.683594"/><stop stop-opacity="1" stop-color="rgb(72.505188%, 60.461426%, 100%)" offset="0.6875"/><stop stop-opacity="1" stop-color="rgb(72.817993%, 60.279846%, 100%)" offset="0.691406"/><stop stop-opacity="1" stop-color="rgb(73.132324%, 60.098267%, 100%)" offset="0.695312"/><stop stop-opacity="1" stop-color="rgb(73.445129%, 59.915161%, 100%)" offset="0.699219"/><stop stop-opacity="1" stop-color="rgb(73.75946%, 59.733582%, 100%)" offset="0.703125"/><stop stop-opacity="1" stop-color="rgb(74.073792%, 59.550476%, 100%)" offset="0.707031"/><stop stop-opacity="1" stop-color="rgb(74.388123%, 59.368896%, 100%)" offset="0.710937"/><stop stop-opacity="1" stop-color="rgb(74.700928%, 59.187317%, 100%)" offset="0.714844"/><stop stop-opacity="1" stop-color="rgb(75.015259%, 59.005737%, 100%)" offset="0.71875"/><stop stop-opacity="1" stop-color="rgb(75.328064%, 58.822632%, 100%)" offset="0.722656"/><stop stop-opacity="1" stop-color="rgb(75.642395%, 58.641052%, 100%)" offset="0.726562"/><stop stop-opacity="1" stop-color="rgb(75.9552%, 58.459473%, 100%)" offset="0.730469"/><stop stop-opacity="1" stop-color="rgb(76.269531%, 58.277893%, 100%)" offset="0.734375"/><stop stop-opacity="1" stop-color="rgb(76.582336%, 58.094788%, 100%)" offset="0.738281"/><stop stop-opacity="1" stop-color="rgb(76.896667%, 57.913208%, 100%)" offset="0.742188"/><stop stop-opacity="1" stop-color="rgb(77.209473%, 57.730103%, 100%)" offset="0.746094"/><stop stop-opacity="1" stop-color="rgb(77.523804%, 57.548523%, 100%)" offset="0.75"/><stop stop-opacity="1" stop-color="rgb(77.836609%, 57.366943%, 100%)" offset="0.753906"/><stop stop-opacity="1" stop-color="rgb(78.15094%, 57.185364%, 100%)" offset="0.757812"/><stop stop-opacity="1" stop-color="rgb(78.465271%, 57.002258%, 100%)" offset="0.761719"/><stop stop-opacity="1" stop-color="rgb(78.779602%, 56.820679%, 100%)" offset="0.765625"/><stop stop-opacity="1" stop-color="rgb(79.092407%, 56.639099%, 100%)" offset="0.769531"/><stop stop-opacity="1" stop-color="rgb(79.406738%, 56.45752%, 100%)" offset="0.773438"/><stop stop-opacity="1" stop-color="rgb(79.719543%, 56.274414%, 100%)" offset="0.777344"/><stop stop-opacity="1" stop-color="rgb(80.033875%, 56.092834%, 100%)" offset="0.78125"/><stop stop-opacity="1" stop-color="rgb(80.34668%, 55.911255%, 100%)" offset="0.785156"/><stop stop-opacity="1" stop-color="rgb(80.661011%, 55.729675%, 100%)" offset="0.789063"/><stop stop-opacity="1" stop-color="rgb(80.973816%, 55.54657%, 100%)" offset="0.792969"/><stop stop-opacity="1" stop-color="rgb(81.288147%, 55.36499%, 100%)" offset="0.796875"/><stop stop-opacity="1" stop-color="rgb(81.600952%, 55.181885%, 100%)" offset="0.800781"/><stop stop-opacity="1" stop-color="rgb(81.915283%, 55.000305%, 100%)" offset="0.804688"/><stop stop-opacity="1" stop-color="rgb(82.228088%, 54.818726%, 100%)" offset="0.808594"/><stop stop-opacity="1" stop-color="rgb(82.542419%, 54.637146%, 100%)" offset="0.8125"/><stop stop-opacity="1" stop-color="rgb(82.85675%, 54.454041%, 100%)" offset="0.816406"/><stop stop-opacity="1" stop-color="rgb(83.171082%, 54.272461%, 100%)" offset="0.820312"/><stop stop-opacity="1" stop-color="rgb(83.483887%, 54.090881%, 100%)" offset="0.824219"/><stop stop-opacity="1" stop-color="rgb(83.798218%, 53.909302%, 100%)" offset="0.828125"/><stop stop-opacity="1" stop-color="rgb(84.111023%, 53.726196%, 100%)" offset="0.832031"/><stop stop-opacity="1" stop-color="rgb(84.425354%, 53.544617%, 100%)" offset="0.835938"/><stop stop-opacity="1" stop-color="rgb(84.738159%, 53.361511%, 100%)" offset="0.839844"/><stop stop-opacity="1" stop-color="rgb(85.05249%, 53.179932%, 100%)" offset="0.84375"/><stop stop-opacity="1" stop-color="rgb(85.365295%, 52.998352%, 100%)" offset="0.847656"/><stop stop-opacity="1" stop-color="rgb(85.679626%, 52.816772%, 100%)" offset="0.851562"/><stop stop-opacity="1" stop-color="rgb(85.992432%, 52.633667%, 100%)" offset="0.855469"/><stop stop-opacity="1" stop-color="rgb(86.306763%, 52.452087%, 100%)" offset="0.859375"/><stop stop-opacity="1" stop-color="rgb(86.619568%, 52.270508%, 100%)" offset="0.863281"/><stop stop-opacity="1" stop-color="rgb(86.933899%, 52.088928%, 100%)" offset="0.867188"/><stop stop-opacity="1" stop-color="rgb(87.246704%, 51.905823%, 100%)" offset="0.871094"/><stop stop-opacity="1" stop-color="rgb(87.561035%, 51.724243%, 100%)" offset="0.875"/><stop stop-opacity="1" stop-color="rgb(87.875366%, 51.541138%, 100%)" offset="0.878906"/><stop stop-opacity="1" stop-color="rgb(88.189697%, 51.359558%, 100%)" offset="0.882813"/><stop stop-opacity="1" stop-color="rgb(88.502502%, 51.177979%, 100%)" offset="0.886719"/><stop stop-opacity="1" stop-color="rgb(88.816833%, 50.996399%, 100%)" offset="0.890625"/><stop stop-opacity="1" stop-color="rgb(89.129639%, 50.813293%, 100%)" offset="0.894531"/><stop stop-opacity="1" stop-color="rgb(89.44397%, 50.631714%, 100%)" offset="0.898438"/><stop stop-opacity="1" stop-color="rgb(89.756775%, 50.450134%, 100%)" offset="0.902344"/><stop stop-opacity="1" stop-color="rgb(90.071106%, 50.268555%, 100%)" offset="0.90625"/><stop stop-opacity="1" stop-color="rgb(90.383911%, 50.085449%, 100%)" offset="0.910156"/><stop stop-opacity="1" stop-color="rgb(90.698242%, 49.90387%, 100%)" offset="0.914062"/><stop stop-opacity="1" stop-color="rgb(91.011047%, 49.720764%, 100%)" offset="0.917969"/><stop stop-opacity="1" stop-color="rgb(91.325378%, 49.539185%, 100%)" offset="0.921875"/><stop stop-opacity="1" stop-color="rgb(91.638184%, 49.357605%, 100%)" offset="0.925781"/><stop stop-opacity="1" stop-color="rgb(91.952515%, 49.176025%, 100%)" offset="0.929688"/><stop stop-opacity="1" stop-color="rgb(92.266846%, 48.99292%, 100%)" offset="0.933594"/><stop stop-opacity="1" stop-color="rgb(92.581177%, 48.81134%, 100%)" offset="0.9375"/><stop stop-opacity="1" stop-color="rgb(92.893982%, 48.629761%, 100%)" offset="0.941406"/><stop stop-opacity="1" stop-color="rgb(93.208313%, 48.448181%, 100%)" offset="0.945312"/><stop stop-opacity="1" stop-color="rgb(93.521118%, 48.265076%, 100%)" offset="0.949219"/><stop stop-opacity="1" stop-color="rgb(93.835449%, 48.083496%, 100%)" offset="0.953125"/><stop stop-opacity="1" stop-color="rgb(94.148254%, 47.900391%, 100%)" offset="0.957031"/><stop stop-opacity="1" stop-color="rgb(94.462585%, 47.718811%, 100%)" offset="0.960938"/><stop stop-opacity="1" stop-color="rgb(94.775391%, 47.537231%, 100%)" offset="0.964844"/><stop stop-opacity="1" stop-color="rgb(95.089722%, 47.355652%, 100%)" offset="0.96875"/><stop stop-opacity="1" stop-color="rgb(95.402527%, 47.172546%, 100%)" offset="0.972656"/><stop stop-opacity="1" stop-color="rgb(95.716858%, 46.990967%, 100%)" offset="0.976563"/><stop stop-opacity="1" stop-color="rgb(96.029663%, 46.809387%, 100%)" offset="0.980469"/><stop stop-opacity="1" stop-color="rgb(96.343994%, 46.627808%, 100%)" offset="0.984375"/><stop stop-opacity="1" stop-color="rgb(96.656799%, 46.444702%, 100%)" offset="0.988281"/><stop stop-opacity="1" stop-color="rgb(96.97113%, 46.263123%, 100%)" offset="0.992188"/><stop stop-opacity="1" stop-color="rgb(97.285461%, 46.081543%, 100%)" offset="0.996094"/><stop stop-opacity="1" stop-color="rgb(97.599792%, 45.899963%, 100%)" offset="1"/></linearGradient></defs><g clip-path="url(#3e00071d8f)"><g clip-path="url(#e5385e1120)"><path fill="url(#b2605e7a8d)" d="M 26.257812 21.605469 L 26.257812 359.050781 L 362.945312 359.050781 L 362.945312 21.605469 Z M 26.257812 21.605469 " fill-rule="nonzero"/></g></g></svg>