<svg xmlns="http://www.w3.org/2000/svg" xmlns:xlink="http://www.w3.org/1999/xlink" width="500" zoomAndPan="magnify" viewBox="0 0 375 374.999991" height="500" preserveAspectRatio="xMidYMid meet" version="1.0"><defs><clipPath id="6465b8b7ff"><path d="M 189 19.503906 L 199 19.503906 L 199 110 L 189 110 Z M 189 19.503906 " clip-rule="nonzero"/></clipPath><clipPath id="42e39824b4"><path d="M 159 230 L 219 230 L 219 346.914062 L 159 346.914062 Z M 159 230 " clip-rule="nonzero"/></clipPath></defs><path fill="#ffffff" d="M 23.421875 152.644531 C 25.121094 150.328125 28.386719 149.832031 30.703125 151.527344 C 33.019531 153.222656 33.523438 156.480469 31.824219 158.789062 C 30.125 161.109375 26.863281 161.613281 24.546875 159.910156 C 25.125 160.339844 25.695312 160.761719 24.546875 159.910156 C 24.125 159.609375 23.9375 159.46875 23.894531 159.433594 C 23.96875 159.492188 24.253906 159.699219 24.539062 159.910156 C 22.226562 158.210938 21.726562 154.953125 23.421875 152.644531 Z M 34.765625 198.597656 C 31.890625 198.605469 29.554688 196.269531 29.554688 193.402344 C 29.550781 190.53125 31.886719 188.203125 34.757812 188.203125 C 37.632812 188.195312 39.964844 190.523438 39.964844 193.402344 C 39.976562 196.261719 37.640625 198.597656 34.765625 198.597656 Z M 23.601562 161.203125 C 26.152344 163.066406 29.574219 162.890625 31.914062 160.984375 L 42.113281 168.308594 L 94.421875 168.28125 L 81.023438 191.773438 L 41.371094 191.792969 C 40.644531 188.820312 37.960938 186.601562 34.757812 186.609375 C 31.003906 186.601562 27.949219 189.65625 27.949219 193.402344 C 27.957031 197.152344 31.011719 200.195312 34.765625 200.191406 C 37.96875 200.1875 40.652344 197.964844 41.375 194.992188 L 82.886719 194.964844 L 98.105469 168.269531 L 128.039062 168.25 L 128.039062 163.378906 L 100.511719 144.285156 L 71.882812 144.300781 C 71.179688 141.761719 68.855469 139.902344 66.089844 139.902344 C 62.773438 139.902344 60.085938 142.59375 60.089844 145.910156 C 60.09375 149.21875 62.78125 151.90625 66.097656 151.902344 C 68.859375 151.898438 71.183594 150.035156 71.882812 147.492188 L 99.511719 147.476562 L 124.867188 165.058594 L 43.160156 165.121094 L 33.847656 158.445312 C 35.101562 155.589844 34.265625 152.15625 31.648438 150.234375 C 28.617188 148.023438 24.355469 148.683594 22.136719 151.699219 C 19.917969 154.71875 20.570312 158.988281 23.601562 161.203125 " fill-opacity="1" fill-rule="nonzero"/><path fill="#ffffff" d="M 352.324219 159.910156 C 352.613281 159.699219 352.898438 159.492188 352.96875 159.433594 C 352.925781 159.46875 352.738281 159.609375 352.320312 159.910156 C 351.171875 160.761719 351.742188 160.339844 352.320312 159.910156 C 350 161.613281 346.738281 161.109375 345.039062 158.789062 C 343.34375 156.480469 343.84375 153.222656 346.160156 151.527344 C 348.476562 149.832031 351.746094 150.328125 353.441406 152.644531 C 355.140625 154.953125 354.636719 158.210938 352.324219 159.910156 Z M 336.898438 193.402344 C 336.898438 190.523438 339.234375 188.195312 342.109375 188.203125 C 344.980469 188.203125 347.3125 190.53125 347.3125 193.402344 C 347.3125 196.269531 344.972656 198.605469 342.097656 198.597656 C 339.222656 198.597656 336.894531 196.261719 336.898438 193.402344 Z M 354.730469 151.699219 C 352.507812 148.683594 348.246094 148.023438 345.222656 150.234375 C 342.597656 152.15625 341.761719 155.589844 343.015625 158.445312 L 333.703125 165.121094 L 252 165.058594 L 277.351562 147.476562 L 304.980469 147.492188 C 305.679688 150.035156 308.003906 151.898438 310.765625 151.902344 C 314.082031 151.90625 316.773438 149.21875 316.773438 145.910156 C 316.777344 142.59375 314.089844 139.902344 310.777344 139.902344 C 308.011719 139.902344 305.6875 141.761719 304.980469 144.300781 L 276.355469 144.285156 L 248.828125 163.378906 L 248.828125 168.25 L 278.757812 168.269531 L 293.980469 194.964844 L 335.492188 194.992188 C 336.210938 197.964844 338.894531 200.1875 342.097656 200.191406 C 345.855469 200.195312 348.90625 197.152344 348.914062 193.402344 C 348.914062 189.65625 345.863281 186.601562 342.109375 186.609375 C 338.90625 186.601562 336.222656 188.820312 335.496094 191.792969 L 295.839844 191.773438 L 282.445312 168.28125 L 334.75 168.308594 L 344.949219 160.984375 C 347.292969 162.890625 350.714844 163.066406 353.265625 161.203125 C 356.292969 158.988281 356.945312 154.71875 354.730469 151.699219 " fill-opacity="1" fill-rule="nonzero"/><path fill="#ffffff" d="M 181.125 37.75 L 181.40625 108.480469 C 182.246094 108.472656 183.089844 108.480469 183.929688 108.507812 L 183.644531 37.71875 C 185.628906 37.148438 187.085938 35.304688 187.0625 33.128906 C 187.027344 30.523438 184.890625 28.433594 182.269531 28.460938 C 179.664062 28.492188 177.566406 30.632812 177.59375 33.242188 C 177.625 35.414062 179.121094 37.21875 181.125 37.75 " fill-opacity="1" fill-rule="nonzero"/><path fill="#ffffff" d="M 151.394531 88.363281 C 152.941406 89.890625 155.269531 90.140625 157.082031 89.113281 L 160.308594 92.320312 L 160.007812 114.582031 C 160.789062 113.886719 161.632812 113.261719 162.542969 112.703125 L 162.8125 91.265625 L 158.851562 87.328125 C 159.867188 85.519531 159.613281 83.1875 158.070312 81.65625 C 156.214844 79.816406 153.214844 79.828125 151.378906 81.671875 C 149.53125 83.527344 149.539062 86.527344 151.394531 88.363281 " fill-opacity="1" fill-rule="nonzero"/><path fill="#ffffff" d="M 171.421875 54.238281 C 173.6875 54.210938 175.554688 56.03125 175.578125 58.289062 C 175.601562 60.542969 173.785156 62.40625 171.523438 62.433594 C 169.257812 62.457031 167.402344 60.644531 167.371094 58.382812 C 167.347656 56.121094 169.160156 54.261719 171.421875 54.238281 Z M 170.269531 63.550781 L 170.292969 109.65625 C 171.113281 109.464844 171.953125 109.296875 172.804688 109.152344 L 172.792969 63.515625 C 175.140625 62.921875 176.863281 60.789062 176.835938 58.269531 C 176.800781 55.320312 174.363281 52.945312 171.414062 52.984375 C 168.453125 53.015625 166.078125 55.449219 166.109375 58.398438 C 166.144531 60.917969 167.917969 63.007812 170.269531 63.550781 " fill-opacity="1" fill-rule="nonzero"/><g clip-path="url(#6465b8b7ff)"><path fill="#ffffff" d="M 192.988281 28.761719 L 193.386719 109.21875 C 194.230469 109.316406 195.066406 109.421875 195.898438 109.539062 L 195.507812 28.734375 C 197.5 28.15625 198.953125 26.316406 198.925781 24.136719 C 198.902344 21.527344 196.757812 19.4375 194.136719 19.464844 C 191.523438 19.5 189.429688 21.640625 189.457031 24.25 C 189.480469 26.425781 190.976562 28.230469 192.988281 28.761719 " fill-opacity="1" fill-rule="nonzero"/></g><path fill="#ffffff" d="M 214.882812 113.054688 C 215.761719 113.246094 216.597656 113.425781 217.390625 113.597656 L 217.640625 86.515625 L 220.792969 83.230469 C 222.621094 84.222656 224.949219 83.914062 226.457031 82.347656 C 228.269531 80.460938 228.203125 77.46875 226.316406 75.660156 C 224.4375 73.863281 221.4375 73.921875 219.628906 75.804688 C 218.121094 77.371094 217.921875 79.710938 218.976562 81.488281 L 215.113281 85.515625 L 214.882812 113.054688 " fill-opacity="1" fill-rule="nonzero"/><path fill="#ffffff" d="M 205.5 37.347656 C 207.761719 37.320312 209.625 39.136719 209.644531 41.390625 C 209.675781 43.65625 207.859375 45.515625 205.59375 45.539062 C 203.332031 45.566406 201.472656 43.75 201.445312 41.5 C 201.417969 39.238281 203.238281 37.371094 205.5 37.347656 Z M 204.351562 46.65625 L 204.542969 110.945312 C 205.402344 111.097656 206.242188 111.265625 207.066406 111.425781 L 206.863281 46.628906 C 209.210938 46.035156 210.9375 43.898438 210.90625 41.382812 C 210.875 38.433594 208.4375 36.054688 205.484375 36.085938 C 202.53125 36.125 200.148438 38.554688 200.1875 41.503906 C 200.214844 44.027344 201.992188 46.109375 204.351562 46.65625 " fill-opacity="1" fill-rule="nonzero"/><path fill="#ffffff" d="M 314.34375 225.476562 L 247.402344 191.34375 C 247.003906 192.128906 246.589844 192.917969 246.160156 193.699219 L 313.144531 227.859375 C 312.71875 230.015625 313.753906 232.277344 315.816406 233.3125 C 318.292969 234.554688 321.308594 233.550781 322.554688 231.074219 C 323.796875 228.601562 322.792969 225.585938 320.3125 224.347656 C 318.25 223.316406 315.816406 223.84375 314.34375 225.476562 " fill-opacity="1" fill-rule="nonzero"/><path fill="#ffffff" d="M 303.488281 208.324219 C 302.414062 210.464844 299.796875 211.339844 297.644531 210.261719 C 295.507812 209.191406 294.628906 206.570312 295.703125 204.429688 C 296.78125 202.28125 299.398438 201.417969 301.542969 202.492188 C 303.699219 203.570312 304.570312 206.179688 303.488281 208.324219 Z M 295.257812 202.710938 L 251.714844 180.296875 C 251.492188 181.167969 251.238281 182.035156 250.957031 182.910156 L 294.066406 205.09375 C 293.484375 207.59375 294.660156 210.253906 297.050781 211.453125 C 299.851562 212.859375 303.28125 211.71875 304.683594 208.917969 C 306.089844 206.117188 304.953125 202.695312 302.144531 201.289062 C 299.75 200.101562 296.910156 200.753906 295.257812 202.710938 " fill-opacity="1" fill-rule="nonzero"/><path fill="#ffffff" d="M 88.492188 262.753906 L 147.914062 215.367188 C 147.355469 214.664062 146.800781 213.957031 146.253906 213.230469 L 86.789062 260.660156 C 84.980469 259.363281 82.457031 259.371094 80.636719 260.84375 C 78.464844 262.609375 78.132812 265.800781 79.898438 267.980469 C 81.664062 270.152344 84.859375 270.488281 87.046875 268.722656 C 88.855469 267.253906 89.382812 264.792969 88.492188 262.753906 " fill-opacity="1" fill-rule="nonzero"/><path fill="#ffffff" d="M 150.964844 254.003906 C 151.222656 251.683594 149.875 249.558594 147.808594 248.726562 L 148.363281 243.871094 L 167.320312 229.289062 C 166.214844 229.09375 165.125 228.796875 164.054688 228.40625 L 145.796875 242.46875 L 145.121094 248.425781 C 142.925781 248.773438 141.128906 250.546875 140.867188 252.855469 C 140.546875 255.648438 142.558594 258.160156 145.339844 258.472656 C 148.132812 258.785156 150.648438 256.78125 150.964844 254.003906 " fill-opacity="1" fill-rule="nonzero"/><path fill="#ffffff" d="M 108.855469 259.914062 C 107.324219 258.027344 107.613281 255.25 109.5 253.722656 C 111.382812 252.199219 114.167969 252.484375 115.695312 254.367188 C 117.226562 256.253906 116.933594 259.027344 115.046875 260.558594 C 113.15625 262.085938 110.382812 261.796875 108.855469 259.914062 Z M 117.46875 254.675781 L 156.320312 223.929688 C 155.605469 223.367188 154.90625 222.773438 154.214844 222.144531 L 115.761719 252.582031 C 113.695312 251.007812 110.75 250.976562 108.648438 252.675781 C 106.183594 254.671875 105.808594 258.304688 107.804688 260.761719 C 109.808594 263.226562 113.4375 263.601562 115.902344 261.609375 C 118.003906 259.898438 118.582031 257.011719 117.46875 254.675781 " fill-opacity="1" fill-rule="nonzero"/><path fill="#ffffff" d="M 73.007812 258.777344 L 140.550781 204.8125 C 140.078125 204.035156 139.605469 203.265625 139.144531 202.484375 L 71.304688 256.675781 C 69.484375 255.382812 66.972656 255.390625 65.15625 256.867188 C 62.96875 258.628906 62.636719 261.820312 64.414062 264.003906 C 66.175781 266.175781 69.378906 266.507812 71.558594 264.746094 C 73.375 263.28125 73.898438 260.816406 73.007812 258.777344 " fill-opacity="1" fill-rule="nonzero"/><path fill="#ffffff" d="M 129.464844 184.1875 C 129.035156 183.320312 128.632812 182.496094 128.242188 181.722656 L 105.25 199.5625 L 100.378906 199.101562 C 99.992188 196.902344 98.191406 195.152344 95.863281 194.929688 C 93.066406 194.664062 90.589844 196.714844 90.316406 199.503906 C 90.058594 202.285156 92.105469 204.761719 94.898438 205.023438 C 97.222656 205.25 99.332031 203.859375 100.128906 201.785156 L 106.09375 202.351562 L 129.464844 184.1875 " fill-opacity="1" fill-rule="nonzero"/><path fill="#ffffff" d="M 71.902344 242.539062 C 70.371094 240.652344 70.664062 237.878906 72.546875 236.355469 C 74.441406 234.820312 77.210938 235.109375 78.742188 236.996094 C 80.277344 238.882812 79.984375 241.652344 78.105469 243.179688 C 76.214844 244.707031 73.4375 244.421875 71.902344 242.539062 Z M 80.519531 237.296875 L 134.570312 194.28125 C 134.132812 193.460938 133.707031 192.644531 133.292969 191.839844 L 78.820312 235.203125 C 76.75 233.628906 73.800781 233.597656 71.703125 235.308594 C 69.234375 237.300781 68.859375 240.929688 70.855469 243.390625 C 72.851562 245.847656 76.484375 246.226562 78.945312 244.230469 C 81.054688 242.527344 81.628906 239.640625 80.519531 237.296875 " fill-opacity="1" fill-rule="nonzero"/><g clip-path="url(#42e39824b4)"><path fill="#ffffff" d="M 182.925781 301.449219 C 185.191406 300.429688 187.859375 301.441406 188.882812 303.699219 C 189.902344 305.960938 188.890625 308.628906 186.625 309.648438 C 184.363281 310.664062 181.695312 309.65625 180.675781 307.390625 C 179.648438 305.132812 180.660156 302.46875 182.925781 301.449219 Z M 196.003906 342.898438 C 196.804688 345.652344 199.683594 347.234375 202.433594 346.441406 C 205.1875 345.644531 206.777344 342.777344 205.980469 340.027344 C 205.316406 337.734375 203.207031 336.253906 200.929688 336.28125 L 195.765625 318.449219 L 211.410156 299.113281 L 201.316406 275.789062 L 218.449219 253.796875 L 210.890625 230.792969 L 176.25 230.773438 L 159.324219 252.507812 L 181.164062 300.921875 C 179.074219 302.550781 178.28125 305.445312 179.414062 307.960938 C 179.292969 307.695312 179.175781 307.4375 179.097656 307.269531 C 179.164062 307.402344 179.257812 307.617188 179.414062 307.960938 C 179.648438 308.488281 179.761719 308.730469 179.789062 308.796875 C 179.75 308.710938 179.582031 308.339844 179.414062 307.960938 C 180.75 310.917969 184.242188 312.234375 187.191406 310.90625 C 190.152344 309.574219 191.46875 306.085938 190.140625 303.132812 C 188.996094 300.613281 186.28125 299.285156 183.675781 299.78125 L 162.53125 252.890625 L 177.605469 233.53125 L 208.890625 233.546875 L 215.359375 253.261719 L 198.132812 275.386719 L 208.210938 298.675781 L 204.394531 303.402344 L 190.828125 276.292969 L 209.777344 251.957031 L 203.886719 239.683594 L 180.949219 239.707031 L 170.902344 252.671875 L 173.875 259.542969 C 172.101562 260.972656 171.410156 263.445312 172.351562 265.640625 C 173.484375 268.265625 176.542969 269.46875 179.175781 268.34375 C 181.808594 267.210938 183.019531 264.160156 181.886719 261.527344 C 180.941406 259.335938 178.664062 258.140625 176.40625 258.453125 L 174.082031 253.074219 L 182.242188 242.542969 L 202.105469 242.34375 L 206.554688 251.617188 L 187.578125 275.972656 L 202.492188 305.757812 L 192.710938 317.835938 L 198.277344 337.050781 C 196.335938 338.242188 195.339844 340.613281 196.003906 342.898438 " fill-opacity="1" fill-rule="nonzero"/></g><path fill="#ffffff" d="M 275.660156 272.082031 C 276.714844 269.722656 279.488281 268.652344 281.855469 269.695312 C 284.214844 270.742188 285.289062 273.519531 284.242188 275.878906 C 283.191406 278.238281 280.414062 279.308594 278.046875 278.253906 C 275.683594 277.210938 274.613281 274.4375 275.660156 272.082031 Z M 314.667969 295.195312 C 317.199219 296.777344 320.539062 296.007812 322.125 293.484375 C 323.707031 290.949219 322.945312 287.625 320.410156 286.042969 C 318.300781 284.722656 315.632812 285.035156 313.886719 286.632812 L 297.457031 276.371094 L 296.160156 250.5 L 272.082031 239.390625 L 270.082031 210.421875 L 248.203125 197.800781 L 221.292969 221.828125 L 223.269531 250.453125 L 273.925781 272.894531 C 273.4375 275.609375 274.835938 278.410156 277.46875 279.578125 C 277.1875 279.449219 276.917969 279.335938 276.742188 279.257812 C 276.882812 279.316406 277.105469 279.417969 277.46875 279.578125 C 278.019531 279.820312 278.269531 279.929688 278.339844 279.957031 C 278.25 279.921875 277.855469 279.753906 277.46875 279.578125 C 280.558594 280.945312 284.1875 279.542969 285.554688 276.464844 C 286.929688 273.378906 285.523438 269.75 282.4375 268.382812 C 279.792969 267.214844 276.761719 268.070312 275.078125 270.265625 L 226.023438 248.523438 L 224.257812 223.027344 L 248.566406 201.332031 L 267.316406 212.152344 L 269.332031 241.289062 L 293.367188 252.378906 L 293.6875 258.699219 L 264.289062 247.058594 L 262.074219 215.007812 L 248.957031 209.5625 L 231.164062 225.507812 L 232.371094 242.546875 L 239.46875 245.816406 C 239.078125 248.15625 240.269531 250.558594 242.527344 251.613281 C 245.234375 252.863281 248.449219 251.675781 249.710938 248.972656 C 250.960938 246.261719 249.785156 243.050781 247.070312 241.800781 C 244.8125 240.75 242.207031 241.40625 240.675781 243.214844 L 235.128906 240.652344 L 234.132812 226.808594 L 249.421875 212.871094 L 259.328125 216.984375 L 261.542969 249.066406 L 293.851562 261.851562 L 294.664062 278.015625 L 312.359375 289.074219 C 311.679688 291.34375 312.558594 293.875 314.667969 295.195312 " fill-opacity="1" fill-rule="nonzero"/><path fill="#ffffff" d="M 94.148438 75.597656 C 93.34375 78.046875 90.6875 79.394531 88.230469 78.589844 C 85.769531 77.78125 84.429688 75.132812 85.234375 72.679688 C 86.039062 70.222656 88.695312 68.886719 91.15625 69.691406 C 93.617188 70.496094 94.957031 73.148438 94.148438 75.597656 Z M 53.023438 56.496094 C 50.347656 55.179688 47.097656 56.273438 45.777344 58.949219 C 44.453125 61.625 45.546875 64.855469 48.226562 66.183594 C 50.460938 67.285156 53.078125 66.703125 54.664062 64.9375 L 72.027344 73.511719 L 75.917969 99.121094 L 100.988281 107.769531 L 105.878906 136.386719 L 128.910156 146.761719 L 153.289062 120.167969 L 148.445312 91.878906 L 95.792969 74.617188 C 96.011719 71.863281 94.335938 69.222656 91.605469 68.324219 C 91.894531 68.417969 92.175781 68.507812 92.355469 68.566406 C 92.214844 68.523438 91.980469 68.441406 91.605469 68.324219 C 91.03125 68.132812 90.769531 68.050781 90.695312 68.027344 C 90.789062 68.054688 91.199219 68.183594 91.605469 68.324219 C 88.386719 67.269531 84.921875 69.023438 83.871094 72.226562 C 82.8125 75.4375 84.570312 78.898438 87.78125 79.960938 C 90.53125 80.851562 93.460938 79.703125 94.914062 77.347656 L 145.902344 94.074219 L 150.210938 119.265625 L 128.203125 143.285156 L 108.464844 134.394531 L 103.53125 105.605469 L 78.507812 96.96875 L 77.554688 90.714844 L 107.972656 99.355469 L 113.390625 131.019531 L 126.984375 135.128906 L 143.101562 117.492188 L 140.179688 100.660156 L 132.796875 98.109375 C 132.945312 95.742188 131.527344 93.476562 129.171875 92.65625 C 126.351562 91.679688 123.273438 93.179688 122.289062 95.996094 C 121.3125 98.816406 122.804688 101.894531 125.636719 102.871094 C 127.988281 103.6875 130.515625 102.78125 131.855469 100.824219 L 137.628906 102.820312 L 140.007812 116.492188 L 126.191406 131.890625 L 115.921875 128.789062 L 110.507812 97.089844 L 77.074219 87.597656 L 74.644531 71.589844 L 55.933594 62.363281 C 56.382812 60.03125 55.253906 57.597656 53.023438 56.496094 " fill-opacity="1" fill-rule="nonzero"/><path fill="#ffffff" d="M 283.351562 71.550781 C 285.703125 70.761719 288.253906 72.027344 289.050781 74.378906 C 289.847656 76.722656 288.570312 79.277344 286.21875 80.070312 C 283.867188 80.855469 281.308594 79.589844 280.519531 77.242188 C 279.722656 74.894531 280.992188 72.339844 283.351562 71.550781 Z M 317.09375 64.269531 L 299.203125 73.257812 L 296.984375 88.636719 L 264.976562 97.972656 L 259.996094 128.425781 L 250.160156 131.472656 L 236.796875 116.792969 L 238.984375 103.660156 L 244.507812 101.699219 C 245.816406 103.566406 248.246094 104.421875 250.496094 103.625 C 253.199219 102.667969 254.617188 99.710938 253.660156 97.003906 C 252.691406 94.308594 249.730469 92.890625 247.035156 93.847656 C 244.777344 94.652344 243.429688 96.835938 243.585938 99.109375 L 236.523438 101.605469 L 233.835938 117.777344 L 249.417969 134.59375 L 262.4375 130.554688 L 267.421875 100.128906 L 296.546875 91.628906 L 295.675781 97.640625 L 271.722656 106.097656 L 267.1875 133.753906 L 248.308594 142.421875 L 227.027344 119.527344 L 230.988281 95.328125 L 279.796875 78.925781 C 281.210938 81.167969 284.027344 82.253906 286.660156 81.378906 C 289.730469 80.34375 291.394531 77 290.359375 73.929688 C 289.324219 70.867188 285.988281 69.207031 282.914062 70.238281 C 283.296875 70.105469 283.6875 69.976562 283.777344 69.953125 C 283.707031 69.96875 283.460938 70.050781 282.914062 70.238281 C 282.550781 70.359375 282.328125 70.433594 282.1875 70.480469 C 282.363281 70.421875 282.636719 70.332031 282.914062 70.238281 C 280.292969 71.121094 278.707031 73.667969 278.925781 76.308594 L 228.527344 93.242188 L 224.082031 120.410156 L 247.648438 145.765625 L 269.683594 135.652344 L 274.179688 108.15625 L 298.171875 99.683594 L 301.726562 75.085938 L 318.335938 66.734375 C 319.863281 68.417969 322.382812 68.957031 324.515625 67.882812 C 327.082031 66.597656 328.113281 63.488281 326.816406 60.925781 C 325.53125 58.378906 322.414062 57.34375 319.847656 58.625 C 317.714844 59.699219 316.648438 62.042969 317.09375 64.269531 " fill-opacity="1" fill-rule="nonzero"/><path fill="#ffffff" d="M 188.890625 229.625 C 221.789062 229.625 248.550781 202.898438 248.550781 170.046875 C 248.550781 137.195312 221.789062 110.46875 188.890625 110.46875 C 155.988281 110.46875 129.222656 137.195312 129.222656 170.046875 C 129.222656 202.898438 155.988281 229.625 188.890625 229.625 Z M 188.890625 105.683594 C 224.429688 105.683594 253.34375 134.558594 253.34375 170.046875 C 253.34375 205.535156 224.429688 234.410156 188.890625 234.410156 C 153.34375 234.410156 124.433594 205.535156 124.433594 170.046875 C 124.433594 134.558594 153.34375 105.683594 188.890625 105.683594 " fill-opacity="1" fill-rule="nonzero"/></svg>